<svg width="100" height="100" viewBox="0 0 100 100" fill="none" xmlns="http://www.w3.org/2000/svg">
<path fill-rule="evenodd" clip-rule="evenodd" d="M50 89C71.5391 89 89 71.5391 89 50C89 28.4609 71.5391 11 50 11C28.4609 11 11 28.4609 11 50C11 71.5391 28.4609 89 50 89ZM50 93C73.7482 93 93 73.7482 93 50C93 26.2518 73.7482 7 50 7C26.2518 7 7 26.2518 7 50C7 73.7482 26.2518 93 50 93Z" fill="#FF8800"/>
<path fill-rule="evenodd" clip-rule="evenodd" d="M9 43C9 41.8954 9.89543 41 11 41H35C41.6274 41 47 46.3726 47 53V88C47 89.1046 46.1046 90 45 90C43.8954 90 43 89.1046 43 88V53C43 48.5817 39.4183 45 35 45H11C9.89543 45 9 44.1046 9 43Z" fill="#FF8800"/>
<path d="M54 70L54 76" stroke="#FF8800" stroke-width="4" stroke-linecap="round"/>
<path d="M54 84L54 90" stroke="#FF8800" stroke-width="4" stroke-linecap="round"/>
<path fill-rule="evenodd" clip-rule="evenodd" d="M35 32C35 30.8954 35.8954 30 37 30H44C50.6274 30 56 35.3726 56 42V63C56 64.1046 55.1046 65 54 65C52.8954 65 52 64.1046 52 63V42C52 37.5817 48.4183 34 44 34H37C35.8954 34 35 33.1046 35 32Z" fill="#FF8800"/>
<path fill-rule="evenodd" clip-rule="evenodd" d="M31 35.5C32.933 35.5 34.5 33.933 34.5 32C34.5 30.067 32.933 28.5 31 28.5C29.067 28.5 27.5 30.067 27.5 32C27.5 33.933 29.067 35.5 31 35.5ZM31 38C34.3137 38 37 35.3137 37 32C37 28.6863 34.3137 26 31 26C27.6863 26 25 28.6863 25 32C25 35.3137 27.6863 38 31 38Z" fill="#FF8800"/>
<path fill-rule="evenodd" clip-rule="evenodd" d="M72 33C72 34.1046 71.1046 35 70 35H67C60.3726 35 55 29.6274 55 23V10C55 8.89543 55.8954 8 57 8C58.1046 8 59 8.89543 59 10V23C59 27.4183 62.5817 31 67 31H70C71.1046 31 72 31.8954 72 33Z" fill="#FF8800"/>
<path fill-rule="evenodd" clip-rule="evenodd" d="M76 28.5C74.067 28.5 72.5 30.067 72.5 32C72.5 33.933 74.067 35.5 76 35.5C77.933 35.5 79.5 33.933 79.5 32C79.5 30.067 77.933 28.5 76 28.5ZM76 26C72.6863 26 70 28.6863 70 32C70 35.3137 72.6863 38 76 38C79.3137 38 82 35.3137 82 32C82 28.6863 79.3137 26 76 26Z" fill="#FF8800"/>
<path fill-rule="evenodd" clip-rule="evenodd" d="M22 54C22 52.8954 22.8954 52 24 52H25C31.6274 52 37 57.3726 37 64V87C37 88.1046 36.1046 89 35 89C33.8954 89 33 88.1046 33 87V64C33 59.5817 29.4183 56 25 56H24C22.8954 56 22 55.1046 22 54Z" fill="#FF8800"/>
<path fill-rule="evenodd" clip-rule="evenodd" d="M18 57.5C19.933 57.5 21.5 55.933 21.5 54C21.5 52.067 19.933 50.5 18 50.5C16.067 50.5 14.5 52.067 14.5 54C14.5 55.933 16.067 57.5 18 57.5ZM18 60C21.3137 60 24 57.3137 24 54C24 50.6863 21.3137 48 18 48C14.6863 48 12 50.6863 12 54C12 57.3137 14.6863 60 18 60Z" fill="#FF8800"/>
<path fill-rule="evenodd" clip-rule="evenodd" d="M77 54C77 52.8954 76.1046 52 75 52H74C67.3726 52 62 57.3726 62 64V87C62 88.1046 62.8954 89 64 89C65.1046 89 66 88.1046 66 87V64C66 59.5817 69.5817 56 74 56H75C76.1046 56 77 55.1046 77 54Z" fill="#FF8800"/>
<path fill-rule="evenodd" clip-rule="evenodd" d="M81 57.5C79.067 57.5 77.5 55.933 77.5 54C77.5 52.067 79.067 50.5 81 50.5C82.933 50.5 84.5 52.067 84.5 54C84.5 55.933 82.933 57.5 81 57.5ZM81 60C77.6863 60 75 57.3137 75 54C75 50.6863 77.6863 48 81 48C84.3137 48 87 50.6863 87 54C87 57.3137 84.3137 60 81 60Z" fill="#FF8800"/>
</svg>
