<svg width="92" height="73" viewBox="0 0 92 73" fill="none" xmlns="http://www.w3.org/2000/svg">
<path fill-rule="evenodd" clip-rule="evenodd" d="M7.33915 59.5775C8.29711 59.1364 9.39745 58.9996 10.4951 59.2588L15.2963 60.3922L18.6815 46.0526C10.9221 42.168 6.8205 32.9288 9.7637 24.0311L16.8248 2.68768C17.1504 1.70002 18.1513 1.12111 19.1296 1.35204L45.9538 7.68456C46.9332 7.91578 47.5684 8.88092 47.4191 9.91023L44.1885 32.1567C42.8417 41.4312 35.0411 47.8606 26.3637 47.8649L22.9782 62.2057L27.7794 63.3391C28.877 63.5983 29.8 64.2127 30.4596 65.0357C30.4882 65.0714 30.5164 65.1076 30.5441 65.1442C30.7906 65.4698 30.997 65.8258 31.1582 66.2035C31.568 67.164 31.6852 68.2654 31.425 69.3675C31.2973 69.9084 30.7642 70.245 30.2336 70.1198L5.26748 64.2259C4.73694 64.1006 4.41066 63.5611 4.53835 63.0202C4.79852 61.9182 5.39592 60.9855 6.192 60.3096C6.50508 60.0439 6.84889 59.8178 7.21499 59.6368C7.25611 59.6165 7.29749 59.5967 7.33915 59.5775ZM14.5107 25.6016C14.5106 25.6017 14.5107 25.6015 14.5107 25.6016C12.3502 32.1332 15.3725 38.8045 20.9198 41.5817L23.486 42.8664L26.3612 42.8649C32.5649 42.8618 38.2517 38.2465 39.2404 31.4381L42.0768 11.9067L20.7101 6.8626L14.5107 25.6016Z" fill="#FF8800"/>
<path fill-rule="evenodd" clip-rule="evenodd" d="M85.1278 60.6894C84.1699 60.2482 83.0696 60.1113 81.9719 60.3702L77.1706 61.503L73.7872 47.163C81.5471 43.2794 85.65 34.0408 82.7079 25.1427L75.6497 3.79832C75.3241 2.81061 74.3233 2.23156 73.345 2.46237L46.52 8.79136C45.5405 9.02246 44.9053 9.98751 45.0543 11.0168L48.2821 33.2637C49.6277 42.5384 57.4274 48.9688 66.1048 48.9743L69.4884 63.3155L64.6871 64.4483C63.5894 64.7073 62.6663 65.3216 62.0067 66.1445C61.978 66.1803 61.9498 66.2165 61.9221 66.253C61.6756 66.5786 61.4691 66.9346 61.3079 67.3123C60.898 68.2727 60.7807 69.3741 61.0407 70.4762C61.1683 71.0171 61.7014 71.3538 62.2319 71.2286L87.1989 65.338C87.7294 65.2129 88.0558 64.6734 87.9282 64.1325C87.6681 63.0304 87.0709 62.0976 86.2749 61.4217C85.9618 61.1559 85.618 60.9297 85.252 60.7487C85.2108 60.7283 85.1695 60.7086 85.1278 60.6894ZM77.9608 26.7125C77.9608 26.7126 77.9607 26.7125 77.9608 26.7125C80.1203 33.2445 77.0971 39.9153 71.5495 42.6918L68.9832 43.9761L66.108 43.9743C59.9043 43.9704 54.218 39.3543 53.2303 32.5458L50.3965 13.014L71.7638 7.97273L77.9608 26.7125Z" fill="#FF8800"/>
</svg>
