<svg width="1920" height="199" viewBox="0 0 1920 199" fill="none" xmlns="http://www.w3.org/2000/svg">
<rect x="-58.0026" y="0.623047" width="2039.22" height="197.549" fill="#2B303A"/>
<g clip-path="url(#clip0_3950_19046)">
<path d="M151.758 43.3848L110.122 154.426H138.857L144.95 136.976H188.88L194.973 154.426H223.708L181.96 43.3848H151.758ZM153.3 113.145L164.169 81.0419C165.486 77.4573 166.389 73.5971 166.953 69.7762C167.517 73.5971 168.382 77.4573 169.736 81.0419L180.606 113.145L153.3 113.145Z" fill="white"/>
<path d="M551.304 96.6404L518.582 43.3848L481.385 43.3848L515.573 96.6404L479.166 154.426H511.812L533.364 117.202L554.877 154.426H587.75L551.304 96.6404Z" fill="white"/>
<path d="M383.595 43.3848L341.659 43.3848V154.544H369.642V119.644H383.52C409.698 119.526 429.707 110.821 429.707 81.5146C429.669 52.2082 409.773 43.3848 383.595 43.3848ZM384.949 94.1982H369.604V68.7521H384.912C393.45 68.7521 401.009 71.4306 401.009 81.4358C401.009 91.4015 393.487 94.1982 384.949 94.1982Z" fill="white"/>
<path d="M76.2715 130.832C73.9396 131.423 71.4949 131.659 69.0502 131.659C56.9393 131.659 37.6446 126.42 37.6446 99.0044C37.6446 76.1974 53.8551 66.9013 70.9307 66.9013C81.5748 66.9013 92.2564 70.0525 100.23 75.7247V47.9546C89.8117 43.4247 78.7163 40.9825 67.3952 40.9825C37.7574 40.9431 8.90936 57.4476 8.90936 98.8468C8.90936 139.182 37.5317 156.751 67.7338 156.751C79.8447 156.632 91.6923 154.19 102.901 149.306V93.3716H76.2715V130.832Z" fill="white"/>
<path d="M301.79 114.091C313.45 109.207 322.1 99.2015 322.1 80.7274C322.1 51.421 300.135 43.3066 278.584 43.3066L233.864 43.3066V154.348H261.96V118.306H274.071L299.383 154.466H331.014L301.79 114.091ZM279.825 94.4352H261.96V68.7528H279.712C287.724 68.7528 293.14 73.0463 293.14 81.6728C293.14 90.2599 287.836 94.4352 279.825 94.4352Z" fill="white"/>
<path d="M442.758 154.426H470.854V43.3848H442.758V154.426Z" fill="white"/>
<path d="M552.395 42.6904H584.816V76.6448H552.395V42.6904Z" fill="#FF8800"/>
</g>
<g clip-path="url(#clip1_3950_19046)">
<path d="M801.758 43.3848L760.122 154.426H788.858L794.951 136.976H838.881L844.974 154.426H873.709L831.96 43.3848H801.758ZM803.3 113.145L814.17 81.0419C815.487 77.4573 816.389 73.5971 816.953 69.7762C817.518 73.5971 818.383 77.4573 819.737 81.0419L830.606 113.145L803.3 113.145Z" fill="white"/>
<path d="M1201.3 96.6404L1168.58 43.3848L1131.39 43.3848L1165.57 96.6404L1129.17 154.426H1161.81L1183.36 117.202L1204.88 154.426H1237.75L1201.3 96.6404Z" fill="white"/>
<path d="M1033.6 43.3848L991.659 43.3848V154.544H1019.64V119.644H1033.52C1059.7 119.526 1079.71 110.821 1079.71 81.5146C1079.67 52.2082 1059.77 43.3848 1033.6 43.3848ZM1034.95 94.1982H1019.6V68.7521H1034.91C1043.45 68.7521 1051.01 71.4306 1051.01 81.4358C1051.01 91.4015 1043.49 94.1982 1034.95 94.1982Z" fill="white"/>
<path d="M726.272 130.832C723.94 131.423 721.496 131.659 719.051 131.659C706.94 131.659 687.645 126.42 687.645 99.0044C687.645 76.1974 703.856 66.9013 720.931 66.9013C731.575 66.9013 742.257 70.0525 750.231 75.7247V47.9546C739.812 43.4247 728.717 40.9825 717.396 40.9825C687.758 40.9431 658.91 57.4476 658.91 98.8468C658.91 139.182 687.532 156.751 717.734 156.751C729.845 156.632 741.693 154.19 752.901 149.306V93.3716H726.272V130.832Z" fill="white"/>
<path d="M951.791 114.091C963.451 109.207 972.101 99.2015 972.101 80.7274C972.101 51.421 950.136 43.3066 928.585 43.3066L883.865 43.3066V154.348H911.96V118.306H924.071L949.384 154.466H981.015L951.791 114.091ZM929.826 94.4352H911.96V68.7528H929.713C937.724 68.7528 943.14 73.0463 943.14 81.6728C943.14 90.2599 937.837 94.4352 929.826 94.4352Z" fill="white"/>
<path d="M1092.76 154.426H1120.85V43.3848H1092.76V154.426Z" fill="white"/>
<path d="M1202.4 42.6904H1234.82V76.6448H1202.4V42.6904Z" fill="#FF8800"/>
</g>
<g clip-path="url(#clip2_3950_19046)">
<path d="M1451.76 43.3848L1410.12 154.426H1438.86L1444.95 136.976H1488.88L1494.97 154.426H1523.71L1481.96 43.3848H1451.76ZM1453.3 113.145L1464.17 81.0419C1465.49 77.4573 1466.39 73.5971 1466.95 69.7762C1467.52 73.5971 1468.38 77.4573 1469.74 81.0419L1480.61 113.145L1453.3 113.145Z" fill="white"/>
<path d="M1851.31 96.6404L1818.58 43.3848L1781.39 43.3848L1815.57 96.6404L1779.17 154.426H1811.81L1833.37 117.202L1854.88 154.426H1887.75L1851.31 96.6404Z" fill="white"/>
<path d="M1683.6 43.3848L1641.66 43.3848V154.544H1669.64V119.644H1683.52C1709.7 119.526 1729.71 110.821 1729.71 81.5146C1729.67 52.2082 1709.77 43.3848 1683.6 43.3848ZM1684.95 94.1982H1669.61V68.7521H1684.91C1693.45 68.7521 1701.01 71.4306 1701.01 81.4358C1701.01 91.4015 1693.49 94.1982 1684.95 94.1982Z" fill="white"/>
<path d="M1376.27 130.832C1373.94 131.423 1371.5 131.659 1369.05 131.659C1356.94 131.659 1337.65 126.42 1337.65 99.0044C1337.65 76.1974 1353.86 66.9013 1370.93 66.9013C1381.58 66.9013 1392.26 70.0525 1400.23 75.7247V47.9546C1389.81 43.4247 1378.72 40.9825 1367.4 40.9825C1337.76 40.9431 1308.91 57.4476 1308.91 98.8468C1308.91 139.182 1337.53 156.751 1367.74 156.751C1379.85 156.632 1391.69 154.19 1402.9 149.306V93.3716H1376.27V130.832Z" fill="white"/>
<path d="M1601.79 114.091C1613.45 109.207 1622.1 99.2015 1622.1 80.7274C1622.1 51.421 1600.14 43.3066 1578.59 43.3066L1533.87 43.3066V154.348H1561.96V118.306H1574.07L1599.38 154.466H1631.02L1601.79 114.091ZM1579.83 94.4352H1561.96V68.7528H1579.71C1587.73 68.7528 1593.14 73.0463 1593.14 81.6728C1593.14 90.2599 1587.84 94.4352 1579.83 94.4352Z" fill="white"/>
<path d="M1742.76 154.426H1770.86V43.3848H1742.76V154.426Z" fill="white"/>
<path d="M1852.4 42.6904H1884.82V76.6448H1852.4V42.6904Z" fill="#FF8800"/>
</g>
<defs>
<clipPath id="clip0_3950_19046">
<rect width="578.841" height="115.768" fill="white" transform="translate(8.90936 40.9824)"/>
</clipPath>
<clipPath id="clip1_3950_19046">
<rect width="578.841" height="115.768" fill="white" transform="translate(658.91 40.9824)"/>
</clipPath>
<clipPath id="clip2_3950_19046">
<rect width="578.841" height="115.768" fill="white" transform="translate(1308.91 40.9824)"/>
</clipPath>
</defs>
</svg>
