<svg width="1920" height="199" viewBox="0 0 1920 199" fill="none" xmlns="http://www.w3.org/2000/svg">
<rect x="-61.1239" y="0.889648" width="2042.05" height="197.824" fill="#6F6F6F"/>
<g clip-path="url(#clip0_3950_19017)">
<path d="M148.928 43.7109L107.234 154.907H136.009L142.111 137.432H186.102L192.204 154.907H220.979L179.172 43.7109L148.928 43.7109ZM150.472 113.568L161.357 81.4204C162.675 77.8309 163.579 73.9653 164.144 70.1391C164.709 73.9653 165.575 77.8309 166.931 81.4204L177.816 113.568H150.472Z" fill="#181D27"/>
<path d="M549.03 97.0407L516.263 43.7109H479.013L513.25 97.0407L476.791 154.907H509.483L531.065 117.631L552.608 154.907H585.527L549.03 97.0407Z" fill="#181D27"/>
<path d="M381.088 43.7109H339.093V155.025H367.115V120.077H381.013C407.227 119.958 427.264 111.241 427.264 81.8938C427.226 52.5466 407.302 43.7109 381.088 43.7109ZM382.444 94.5951H367.077V69.1136H382.406C390.956 69.1136 398.527 71.7958 398.527 81.8149C398.527 91.7945 390.994 94.5951 382.444 94.5951Z" fill="#181D27"/>
<path d="M73.3369 131.279C71.0017 131.871 68.5536 132.107 66.1054 132.107C53.9777 132.107 34.6562 126.861 34.6562 99.4074C34.6562 76.5687 50.8893 67.2596 67.9886 67.2596C78.6475 67.2596 89.344 70.4152 97.3287 76.0953V48.2865C86.8959 43.7503 75.785 41.3048 64.4482 41.3048C34.7691 41.2653 5.88098 57.7928 5.88098 99.2496C5.88098 139.641 34.5432 157.234 64.7872 157.234C76.915 157.116 88.7791 154.67 100.003 149.779L100.003 93.7667H73.3369L73.3369 131.279Z" fill="#181D27"/>
<path d="M299.169 114.516C310.845 109.624 319.508 99.6054 319.508 81.1056C319.508 51.7585 297.512 43.6328 275.931 43.6328L231.148 43.6328V154.829H259.283V118.736H271.411L296.759 154.947H328.434L299.169 114.516ZM277.174 94.8325H259.283V69.1143H277.061C285.083 69.1143 290.507 73.4138 290.507 82.0523C290.507 90.6513 285.196 94.8325 277.174 94.8325Z" fill="#181D27"/>
<path d="M440.333 154.907H468.468V43.7109H440.333V154.907Z" fill="#181D27"/>
<path d="M550.123 43.0146H582.589V77.0163H550.123V43.0146Z" fill="#FF8800"/>
</g>
<g clip-path="url(#clip1_3950_19017)">
<path d="M799.833 43.7119L758.139 154.908H786.914L793.016 137.433H837.007L843.109 154.908H871.884L830.077 43.7119L799.833 43.7119ZM801.377 113.569L812.262 81.4214C813.58 77.8319 814.484 73.9663 815.049 70.1401C815.614 73.9663 816.481 77.8319 817.836 81.4214L828.721 113.569H801.377Z" fill="#181D27"/>
<path d="M1199.94 97.0417L1167.17 43.7119H1129.92L1164.15 97.0417L1127.7 154.908H1160.39L1181.97 117.632L1203.51 154.908H1236.43L1199.94 97.0417Z" fill="#181D27"/>
<path d="M1031.99 43.7119H989.998V155.026H1018.02V120.078H1031.92C1058.13 119.959 1078.17 111.242 1078.17 81.8948C1078.13 52.5476 1058.21 43.7119 1031.99 43.7119ZM1033.35 94.5961H1017.98V69.1145H1033.31C1041.86 69.1145 1049.43 71.7968 1049.43 81.8159C1049.43 91.7955 1041.9 94.5961 1033.35 94.5961Z" fill="#181D27"/>
<path d="M724.242 131.28C721.907 131.872 719.459 132.108 717.011 132.108C704.883 132.108 685.561 126.862 685.561 99.4084C685.561 76.5696 701.794 67.2606 718.894 67.2606C729.553 67.2606 740.249 70.4162 748.234 76.0963V48.2875C737.801 43.7513 726.69 41.3057 715.353 41.3057C685.674 41.2663 656.786 57.7938 656.786 99.2506C656.786 139.642 685.448 157.235 715.692 157.235C727.82 157.117 739.684 154.671 750.908 149.78V93.7677H724.242V131.28Z" fill="#181D27"/>
<path d="M950.074 114.517C961.75 109.625 970.413 99.6064 970.413 81.1066C970.413 51.7595 948.417 43.6338 926.836 43.6338L882.054 43.6338V154.829H910.188V118.737H922.316L947.664 154.948H979.339L950.074 114.517ZM928.079 94.8335H910.188V69.1153H927.966C935.988 69.1153 941.412 73.4148 941.412 82.0533C941.412 90.6523 936.101 94.8335 928.079 94.8335Z" fill="#181D27"/>
<path d="M1091.24 154.908H1119.37V43.7119H1091.24V154.908Z" fill="#181D27"/>
<path d="M1201.03 43.0156H1233.49V77.0173H1201.03V43.0156Z" fill="#FF8800"/>
</g>
<g clip-path="url(#clip2_3950_19017)">
<path d="M1450.74 43.7109L1409.04 154.907H1437.82L1443.92 137.432H1487.91L1494.01 154.907H1522.79L1480.98 43.7109L1450.74 43.7109ZM1452.28 113.568L1463.17 81.4204C1464.49 77.8309 1465.39 73.9653 1465.95 70.1391C1466.52 73.9653 1467.39 77.8309 1468.74 81.4204L1479.63 113.568H1452.28Z" fill="#181D27"/>
<path d="M1850.84 97.0407L1818.07 43.7109H1780.82L1815.06 97.0407L1778.6 154.907H1811.29L1832.87 117.631L1854.42 154.907H1887.34L1850.84 97.0407Z" fill="#181D27"/>
<path d="M1682.9 43.7109H1640.9V155.025H1668.93V120.077H1682.82C1709.04 119.958 1729.07 111.241 1729.07 81.8938C1729.04 52.5466 1709.11 43.7109 1682.9 43.7109ZM1684.25 94.5951H1668.89V69.1136H1684.22C1692.77 69.1136 1700.34 71.7958 1700.34 81.8149C1700.34 91.7945 1692.8 94.5951 1684.25 94.5951Z" fill="#181D27"/>
<path d="M1375.15 131.279C1372.81 131.871 1370.36 132.107 1367.92 132.107C1355.79 132.107 1336.47 126.861 1336.47 99.4074C1336.47 76.5687 1352.7 67.2596 1369.8 67.2596C1380.46 67.2596 1391.15 70.4152 1399.14 76.0953V48.2865C1388.71 43.7503 1377.6 41.3048 1366.26 41.3048C1336.58 41.2653 1307.69 57.7928 1307.69 99.2496C1307.69 139.641 1336.35 157.234 1366.6 157.234C1378.73 157.116 1390.59 154.67 1401.81 149.779V93.7667H1375.15V131.279Z" fill="#181D27"/>
<path d="M1600.98 114.516C1612.66 109.624 1621.32 99.6054 1621.32 81.1056C1621.32 51.7585 1599.32 43.6328 1577.74 43.6328L1532.96 43.6328V154.829H1561.09V118.736H1573.22L1598.57 154.947H1630.24L1600.98 114.516ZM1578.98 94.8325H1561.09V69.1143H1578.87C1586.89 69.1143 1592.32 73.4138 1592.32 82.0523C1592.32 90.6513 1587.01 94.8325 1578.98 94.8325Z" fill="#181D27"/>
<path d="M1742.14 154.907H1770.28V43.7109H1742.14V154.907Z" fill="#181D27"/>
<path d="M1851.93 43.0146H1884.4V77.0163H1851.93V43.0146Z" fill="#FF8800"/>
</g>
<defs>
<clipPath id="clip0_3950_19017">
<rect width="579.646" height="115.929" fill="white" transform="translate(5.88098 41.3047)"/>
</clipPath>
<clipPath id="clip1_3950_19017">
<rect width="579.646" height="115.929" fill="white" transform="translate(656.786 41.3057)"/>
</clipPath>
<clipPath id="clip2_3950_19017">
<rect width="579.646" height="115.929" fill="white" transform="translate(1307.69 41.3047)"/>
</clipPath>
</defs>
</svg>
