<svg width="415" height="200" viewBox="0 0 415 200" fill="none" xmlns="http://www.w3.org/2000/svg">
<g clip-path="url(#clip0_5104_10805)">
<g clip-path="url(#clip1_5104_10805)">
<path d="M0 164.545H45.8114C67.5344 164.545 85.1444 147.928 85.1444 127.43L39.333 127.43C17.61 127.43 0 144.047 0 164.545Z" fill="#24D7FF"/>
<path d="M0 72.4558L0 127.43C21.2932 127.43 37.8419 111.199 37.8419 90.3145L37.8419 34.6411C16.5488 34.6411 0 51.5713 0 72.4558Z" fill="#1966DB"/>
<path d="M132.447 34.6411L86.6357 34.6411C64.9127 34.6411 47.3027 51.2583 47.3027 71.7567H93.1141C114.837 71.7567 132.447 55.1395 132.447 34.6411Z" fill="#F9983F"/>
<path d="M132.446 126.988V71.7566C111.547 71.7566 94.6045 88.5716 94.6045 109.314L94.6045 164.545C115.504 164.545 132.446 147.73 132.446 126.988Z" fill="#30B54B"/>
</g>
<path d="M198.463 160.216H177.38V123.122H198.463V126.953H181.778V138.903H197.454V142.709H181.778V156.359H198.463V160.216Z" fill="white"/>
<path d="M238.766 156.486H238.534C236.55 159.311 233.584 160.723 229.635 160.723C225.927 160.723 223.038 159.48 220.969 156.993C218.917 154.507 217.89 150.972 217.89 146.388C217.89 141.804 218.925 138.243 220.995 135.706C223.064 133.169 225.944 131.9 229.635 131.9C233.481 131.9 236.43 133.271 238.482 136.011H238.818L238.637 134.006L238.534 132.053V120.737H242.828V160.216H239.335L238.766 156.486ZM230.178 157.196C233.11 157.196 235.231 156.418 236.542 154.862C237.87 153.289 238.534 150.76 238.534 147.276V146.388C238.534 142.447 237.861 139.639 236.516 137.964C235.188 136.273 233.058 135.427 230.126 135.427C227.608 135.427 225.677 136.391 224.332 138.32C223.004 140.231 222.34 142.937 222.34 146.439C222.34 149.991 223.004 152.672 224.332 154.482C225.66 156.291 227.608 157.196 230.178 157.196Z" fill="white"/>
<path d="M277.492 160.216H273.094V126.953H261.117V123.122H289.469V126.953H277.492V160.216Z" fill="white"/>
<path d="M319.761 160.723C315.57 160.723 312.259 159.471 309.827 156.968C307.413 154.465 306.206 150.989 306.206 146.54C306.206 142.058 307.327 138.497 309.568 135.859C311.828 133.22 314.854 131.9 318.648 131.9C322.201 131.9 325.012 133.051 327.081 135.351C329.151 137.635 330.186 140.654 330.186 144.409V147.073H310.655C310.741 150.337 311.578 152.815 313.164 154.507C314.768 156.198 317.019 157.044 319.916 157.044C322.968 157.044 325.986 156.418 328.97 155.167V158.922C327.452 159.564 326.012 160.021 324.65 160.292C323.305 160.579 321.675 160.723 319.761 160.723ZM318.597 135.427C316.32 135.427 314.501 136.155 313.138 137.609C311.793 139.064 311 141.077 310.758 143.648H325.581C325.581 140.992 324.978 138.962 323.77 137.558C322.563 136.138 320.839 135.427 318.597 135.427Z" fill="white"/>
<path d="M362.107 160.723C358.003 160.723 354.821 159.488 352.562 157.019C350.32 154.532 349.199 151.022 349.199 146.489C349.199 141.838 350.337 138.243 352.614 135.706C354.907 133.169 358.167 131.9 362.392 131.9C363.754 131.9 365.117 132.044 366.479 132.332C367.842 132.619 368.911 132.958 369.687 133.347L368.368 136.924C367.419 136.552 366.384 136.248 365.263 136.011C364.142 135.757 363.151 135.63 362.289 135.63C356.528 135.63 353.648 139.233 353.648 146.439C353.648 149.855 354.347 152.477 355.744 154.304C357.158 156.131 359.245 157.044 362.004 157.044C364.367 157.044 366.79 156.545 369.273 155.547V159.277C367.376 160.241 364.987 160.723 362.107 160.723Z" fill="white"/>
<path d="M408.671 160.216V142.227C408.671 139.96 408.145 138.269 407.093 137.152C406.041 136.036 404.394 135.478 402.152 135.478C399.168 135.478 396.987 136.273 395.607 137.863C394.245 139.453 393.564 142.058 393.564 145.677V160.216H389.269V120.737H393.564V132.687C393.564 134.125 393.495 135.317 393.357 136.264H393.615C394.46 134.928 395.659 133.879 397.211 133.118C398.78 132.34 400.565 131.951 402.566 131.951C406.032 131.951 408.628 132.763 410.352 134.387C412.094 135.994 412.965 138.556 412.965 142.075V160.216H408.671Z" fill="white"/>
<path d="M176.596 95.2632V34.6411H186.9V95.2632H176.596Z" fill="white"/>
<path d="M203.085 95.2632V34.6411H212.923V86.7629H238.404V95.2632H203.085Z" fill="white"/>
<path d="M294.659 95.2632L288.365 78.4972H264.264L258.099 95.2632H247.234L270.817 34.6411H282.027L305.611 95.2632H294.659ZM285.649 69.9902L279.742 53.5545C279.311 52.4533 278.707 50.7189 277.931 48.3513C277.184 45.9837 276.667 44.2492 276.379 43.148C275.603 46.5343 274.468 50.2371 272.973 54.2566L267.282 69.9902H285.649Z" fill="white"/>
</g>
<defs>
<clipPath id="clip0_5104_10805">
<rect width="415" height="199.187" fill="white"/>
</clipPath>
<clipPath id="clip1_5104_10805">
<rect width="132.447" height="129.904" fill="white" transform="translate(0 34.6411)"/>
</clipPath>
</defs>
</svg>
