<svg width="200" height="177" viewBox="0 0 200 177" fill="none" xmlns="http://www.w3.org/2000/svg">
<path d="M156.816 48.8044C181.38 58.1257 198.825 81.758 198.825 109.436C198.825 145.271 169.588 174.318 133.517 174.318C115.428 174.318 99.0561 167.011 87.2285 155.206L107.417 118.23C111.104 129.032 121.398 136.808 133.517 136.808C148.734 136.808 161.069 124.553 161.069 109.436C161.069 95.9214 151.208 84.6916 138.245 82.4649L156.816 48.8044Z" fill="white"/>
<path d="M93.5938 46.8347C105.712 38.8502 120.509 35.4282 134.028 35.4282C141.156 35.4282 145.247 36.0419 152.143 37.838L171.914 1.97339H118.339L93.5938 46.8347Z" fill="white"/>
<path d="M147.372 46.213L126.809 83.4754C123.215 84.2658 121.187 85.1173 118.112 87.1255C113.917 89.863 113.202 91.476 109.428 96.5527L87.8298 135.788C81.7656 146.786 72.6613 159.938 51.9946 169.313C34.3972 177.301 16.4894 175.855 2.00977 171.405L21.994 135.54C28.3913 136.736 32.6055 136.27 38.5823 133.706C45.3936 130.788 49.0838 127.395 52.538 120.876L79.2235 73.1806C81.8788 69.598 91.7367 54.6699 112.639 48.1056C125.803 43.9735 136.844 44.1181 147.372 46.213Z" fill="white"/>
</svg>
