<svg width="100" height="100" viewBox="0 0 100 100" fill="none" xmlns="http://www.w3.org/2000/svg">
<path fill-rule="evenodd" clip-rule="evenodd" d="M89.7878 7.48977C90.3329 7.96456 90.6459 8.65209 90.6459 9.37502V63.6042C90.6459 64.9849 89.5266 66.1042 88.1459 66.1042C86.7651 66.1042 85.6459 64.9849 85.6459 63.6042V30.7455L38.3542 37.3023V78.625C38.3542 80.0057 37.2349 81.125 35.8542 81.125C34.4735 81.125 33.3542 80.0057 33.3542 78.625V16.625C33.3542 15.377 34.2746 14.3201 35.5109 14.1487L87.8025 6.8987C88.5186 6.79942 89.2426 7.01498 89.7878 7.48977ZM38.3542 32.2545L85.6459 25.6977V12.2455L38.3542 18.8023V32.2545Z" fill="#FF8800"/>
<path fill-rule="evenodd" clip-rule="evenodd" d="M23.8542 69.125C18.6075 69.125 14.3542 73.3783 14.3542 78.625C14.3542 83.8717 18.6074 88.125 23.8542 88.125C29.1009 88.125 33.3542 83.8717 33.3542 78.625C33.3542 73.3783 29.1009 69.125 23.8542 69.125ZM9.35416 78.625C9.35416 70.6169 15.846 64.125 23.8542 64.125C31.8623 64.125 38.3542 70.6169 38.3542 78.625C38.3542 86.6331 31.8623 93.125 23.8542 93.125C15.846 93.125 9.35416 86.6331 9.35416 78.625Z" fill="#FF8800"/>
<path fill-rule="evenodd" clip-rule="evenodd" d="M76.1458 54.104C70.8991 54.104 66.6458 58.3573 66.6458 63.604C66.6458 68.8507 70.8991 73.104 76.1458 73.104C81.3925 73.104 85.6458 68.8507 85.6458 63.604C85.6458 58.3573 81.3925 54.104 76.1458 54.104ZM61.6458 63.604C61.6458 55.5959 68.1377 49.104 76.1458 49.104C84.1539 49.104 90.6458 55.5959 90.6458 63.604C90.6458 71.6121 84.1539 78.104 76.1458 78.104C68.1377 78.104 61.6458 71.6121 61.6458 63.604Z" fill="#FF8800"/>
</svg>
