<svg width="56" height="30" viewBox="0 0 56 30" fill="none" xmlns="http://www.w3.org/2000/svg">
<path fill-rule="evenodd" clip-rule="evenodd" d="M54.6463 0.618593C55.6854 1.5278 55.7907 3.1072 54.8815 4.1463L33.0065 29.1463C32.5578 29.659 31.9193 29.9665 31.2387 29.9974C30.558 30.0284 29.8942 29.7803 29.4009 29.3104L23.1074 23.3166L18.0064 29.1463C17.5578 29.659 16.9193 29.9665 16.2387 29.9974C15.558 30.0284 14.8942 29.7803 14.4009 29.3104L1.27587 16.8104C0.276041 15.8582 0.237445 14.2757 1.18966 13.2759C2.14187 12.2761 3.72432 12.2375 4.72414 13.1897L15.9608 23.8912L19.4835 19.8653L16.2759 16.8104C15.276 15.8582 15.2374 14.2757 16.1897 13.2759C17.1419 12.2761 18.7243 12.2375 19.7241 13.1897L22.779 16.099L36.1186 0.853773C37.0278 -0.185319 38.6072 -0.290613 39.6463 0.618593C40.6854 1.5278 40.7907 3.1072 39.8814 4.1463L26.4029 19.5504L30.9608 23.8912L51.1186 0.853773C52.0278 -0.185319 53.6072 -0.290613 54.6463 0.618593Z" fill="#FF8800"/>
</svg>
