<svg width="60" height="60" viewBox="0 0 60 60" fill="none" xmlns="http://www.w3.org/2000/svg">
<path fill-rule="evenodd" clip-rule="evenodd" d="M11.7949 25.9744C13.7208 25.9744 15.2821 24.4131 15.2821 22.4872C15.2821 20.5613 13.7208 19 11.7949 19C9.869 19 8.30774 20.5613 8.30774 22.4872C8.30774 24.4131 9.869 25.9744 11.7949 25.9744ZM11.7949 28.9744C15.3777 28.9744 18.2821 26.0699 18.2821 22.4872C18.2821 18.9044 15.3777 16 11.7949 16C8.21215 16 5.30774 18.9044 5.30774 22.4872C5.30774 26.0699 8.21215 28.9744 11.7949 28.9744Z" fill="#FF8800"/>
<path fill-rule="evenodd" clip-rule="evenodd" d="M13.5641 34.3334H9.4359C5.88145 34.3334 3 37.2148 3 40.7693V41.8975H20V40.7693C20 37.2148 17.1185 34.3334 13.5641 34.3334ZM9.4359 31.3334C4.2246 31.3334 0 35.558 0 40.7693V44.8975H23V40.7693C23 35.558 18.7754 31.3334 13.5641 31.3334H9.4359Z" fill="#FF8800"/>
<path fill-rule="evenodd" clip-rule="evenodd" d="M48.7949 25.9744C50.7208 25.9744 52.2821 24.4131 52.2821 22.4872C52.2821 20.5613 50.7208 19 48.7949 19C46.869 19 45.3077 20.5613 45.3077 22.4872C45.3077 24.4131 46.869 25.9744 48.7949 25.9744ZM48.7949 28.9744C52.3777 28.9744 55.2821 26.0699 55.2821 22.4872C55.2821 18.9044 52.3777 16 48.7949 16C45.2121 16 42.3077 18.9044 42.3077 22.4872C42.3077 26.0699 45.2121 28.9744 48.7949 28.9744Z" fill="#FF8800"/>
<path fill-rule="evenodd" clip-rule="evenodd" d="M50.5641 34.3334H46.4359C42.8815 34.3334 40 37.2148 40 40.7693V41.8975H57V40.7693C57 37.2148 54.1185 34.3334 50.5641 34.3334ZM46.4359 31.3334C41.2246 31.3334 37 35.558 37 40.7693V44.8975H60V40.7693C60 35.558 55.7754 31.3334 50.5641 31.3334H46.4359Z" fill="#FF8800"/>
<circle cx="30" cy="19" r="11" fill="white"/>
<path d="M10 50C10 41.1634 17.1634 34 26 34H33C41.8366 34 49 41.1634 49 50V57H10V50Z" fill="white"/>
<path fill-rule="evenodd" clip-rule="evenodd" d="M30 26C33.866 26 37 22.866 37 19C37 15.134 33.866 12 30 12C26.134 12 23 15.134 23 19C23 22.866 26.134 26 30 26ZM30 30C36.0751 30 41 25.0751 41 19C41 12.9249 36.0751 8 30 8C23.9249 8 19 12.9249 19 19C19 25.0751 23.9249 30 30 30Z" fill="#FF8800"/>
<path fill-rule="evenodd" clip-rule="evenodd" d="M33 38H26C19.3726 38 14 43.3726 14 50V53H45V50C45 43.3726 39.6274 38 33 38ZM26 34C17.1634 34 10 41.1634 10 50V57H49V50C49 41.1634 41.8366 34 33 34H26Z" fill="#FF8800"/>
</svg>
