<svg width="60" height="60" viewBox="0 0 60 60" fill="none" xmlns="http://www.w3.org/2000/svg">
<path fill-rule="evenodd" clip-rule="evenodd" d="M27.6223 15.4635C28.3707 13.1603 31.6292 13.1603 32.3776 15.4635L34.9065 23.2467L43.0903 23.2467C45.5121 23.2467 46.519 26.3458 44.5597 27.7693L37.9389 32.5795L40.4679 40.3627C41.2162 42.666 38.58 44.5813 36.6208 43.1578L30 38.3475L23.3792 43.1578C21.4199 44.5813 18.7837 42.666 19.5321 40.3627L22.061 32.5795L15.4402 27.7693C13.481 26.3458 14.4879 23.2467 16.9097 23.2467L25.0934 23.2467L27.6223 15.4635ZM30 17.8541L27.8343 24.5193C27.4997 25.5493 26.5398 26.2467 25.4567 26.2467L18.4485 26.2467L24.1183 30.366C24.9945 31.0026 25.3611 32.131 25.0264 33.1611L22.8608 39.8263L28.5305 35.707C29.4067 35.0704 30.5932 35.0704 31.4694 35.707L37.1392 39.8263L34.9735 33.1611C34.6388 32.131 35.0055 31.0026 35.8817 30.366L41.5514 26.2467L34.5433 26.2467C33.4602 26.2467 32.5003 25.5493 32.1656 24.5193L30 17.8541Z" fill="#FF8800"/>
<path fill-rule="evenodd" clip-rule="evenodd" d="M27.0812 2.51651C28.7631 1.0832 31.2368 1.0832 32.9187 2.51651L38.8058 7.53347C39.0461 7.73821 39.3448 7.86194 39.6594 7.88704L47.3698 8.50233C49.5726 8.67812 51.3218 10.4273 51.4975 12.6301L52.1128 20.3405C52.1379 20.6551 52.2617 20.9538 52.4664 21.1941L57.4834 27.0812C58.9167 28.7631 58.9167 31.2368 57.4834 32.9187L52.4664 38.8058C52.2617 39.0461 52.1379 39.3448 52.1128 39.6594L51.4975 47.3698C51.3218 49.5726 49.5726 51.3218 47.3698 51.4975L39.6594 52.1128C39.3448 52.1379 39.0461 52.2617 38.8058 52.4664L32.9187 57.4834C31.2368 58.9167 28.7631 58.9167 27.0812 57.4834L21.1941 52.4664C20.9538 52.2617 20.6551 52.1379 20.3405 52.1128L12.6301 51.4975C10.4273 51.3218 8.67812 49.5726 8.50233 47.3698L7.88704 39.6594C7.86194 39.3448 7.73821 39.0461 7.53347 38.8058L2.51651 32.9187C1.0832 31.2368 1.0832 28.7631 2.51651 27.0812L7.53347 21.1941C7.73821 20.9538 7.86194 20.6551 7.88704 20.3405L8.50233 12.6301C8.67812 10.4273 10.4273 8.67812 12.6301 8.50233L20.3405 7.88704C20.6551 7.86194 20.9538 7.73821 21.1941 7.53347L27.0812 2.51651ZM30.9729 4.79986C30.4122 4.32209 29.5877 4.32209 29.027 4.79986L23.1399 9.81681C22.4192 10.431 21.523 10.8022 20.5791 10.8775L12.8688 11.4928C12.1345 11.5514 11.5514 12.1345 11.4928 12.8688L10.8775 20.5791C10.8022 21.523 10.431 22.4192 9.81682 23.1399L4.79986 29.027C4.32209 29.5877 4.32209 30.4122 4.79986 30.9729L9.81681 36.86C10.431 37.5807 10.8022 38.4768 10.8775 39.4208L11.4928 47.1311C11.5514 47.8654 12.1345 48.4485 12.8688 48.5071L20.5791 49.1223C21.523 49.1977 22.4192 49.5689 23.1399 50.1831L29.027 55.2C29.5877 55.6778 30.4122 55.6778 30.9729 55.2L36.86 50.1831C37.5807 49.5689 38.4768 49.1977 39.4208 49.1223L47.1311 48.5071C47.8654 48.4485 48.4485 47.8654 48.5071 47.1311L49.1223 39.4208C49.1977 38.4768 49.5689 37.5807 50.1831 36.86L55.2 30.9729C55.6778 30.4122 55.6778 29.5877 55.2 29.027L50.1831 23.1399C49.5689 22.4192 49.1977 21.523 49.1223 20.5791L48.5071 12.8688C48.4485 12.1345 47.8654 11.5514 47.1311 11.4928L39.4208 10.8775C38.4768 10.8022 37.5807 10.431 36.86 9.81682L30.9729 4.79986Z" fill="#FF8800"/>
</svg>
