<svg width="48" height="58" viewBox="0 0 48 58" fill="none" xmlns="http://www.w3.org/2000/svg">
<path d="M46.0833 11.3333C42.3066 10.3254 38.6169 9.01558 35.05 7.41667C31.5407 5.89436 28.153 4.10581 24.9166 2.06667L24 1.5L23.1 2.08333C19.8636 4.12247 16.4759 5.91102 12.9666 7.43333C9.39378 9.0274 5.69854 10.3316 1.91663 11.3333L0.666626 11.65V25.55C0.666626 47.8667 23.2166 56.2167 23.4333 56.3L24 56.5L24.5666 56.3C24.8 56.3 47.3333 47.8833 47.3333 25.55V11.65L46.0833 11.3333ZM44 25.55C44 43.8833 27.3333 51.5667 24 52.9333C20.6666 51.5667 3.99996 43.8667 3.99996 25.55V14.2333C7.51575 13.2226 10.9573 11.9696 14.3 10.4833C17.6428 9.03832 20.8836 7.36781 24 5.48333C27.1163 7.36781 30.3571 9.03832 33.7 10.4833C37.0426 11.9696 40.4842 13.2226 44 14.2333V25.55Z" fill="#FF8800"/>
<path fill-rule="evenodd" clip-rule="evenodd" d="M23.9936 0.908203L25.1832 1.64356C28.398 3.6691 31.7631 5.44575 35.2489 6.95791L35.2545 6.96032C38.7961 8.54785 42.4594 9.8484 46.2092 10.8494C46.2102 10.8496 46.2112 10.8499 46.2122 10.8502L47.8333 11.2608V25.5499C47.8333 36.9061 42.0982 44.7207 36.3645 49.6782C33.4984 52.1562 30.6268 53.9264 28.4567 55.0776C27.3712 55.6534 26.4593 56.0753 25.8089 56.3542C25.4838 56.4936 25.2229 56.5977 25.0373 56.6678C24.9448 56.7027 24.8688 56.7299 24.8116 56.7491C24.7835 56.7585 24.7562 56.7673 24.7319 56.7743C24.7237 56.7766 24.7135 56.7795 24.7022 56.7823L24 57.0302L23.2537 56.7668C23.2622 56.77 23.2088 56.7496 23.1689 56.7342C23.1178 56.7145 23.0462 56.6865 22.9554 56.65C22.7738 56.577 22.5156 56.4701 22.1918 56.3279C21.5443 56.0435 20.6341 55.6179 19.5494 55.0396C17.381 53.8836 14.5091 52.1147 11.6421 49.641C5.90638 44.6921 0.166626 36.8983 0.166626 25.5499V11.2608L1.79121 10.8492C5.54631 9.85448 9.21535 8.55944 12.7629 6.97666L12.7676 6.97455C16.2525 5.46281 19.6167 3.68678 22.8307 1.66195L23.9936 0.908203ZM24.0063 2.09168L23.3665 2.50634C20.1093 4.55861 16.6998 6.35871 13.168 7.89094C9.57139 9.49545 5.85163 10.8082 2.04465 11.8166L2.03942 11.818L1.16663 12.0391V25.5499C1.16663 36.5183 6.70187 44.0577 12.2953 48.8839C17.8095 53.6416 23.3515 55.7346 23.6049 55.8303C23.6049 55.8303 23.6048 55.8303 23.6049 55.8303L24 55.9697L24.481 55.7999H24.4968C24.5386 55.7858 24.6012 55.7635 24.6843 55.7321C24.8543 55.668 25.1014 55.5695 25.4148 55.4351C26.0414 55.1665 26.9282 54.7564 27.9881 54.1942C30.1086 53.0693 32.914 51.3395 35.7104 48.9217C41.3017 44.0875 46.8333 36.5271 46.8333 25.5499V12.0391L45.9544 11.8164C42.1527 10.8018 38.4387 9.48341 34.8482 7.87411C31.3172 6.34219 27.9084 4.54249 24.6519 2.49075C24.6513 2.49038 24.6507 2.49001 24.6501 2.48964L24.0063 2.09168ZM24 4.89896L24.2587 5.05542C27.3556 6.92817 30.5763 8.58829 33.8984 10.0243L33.9031 10.0264C37.2247 11.5033 40.6445 12.7484 44.1381 13.7527L44.5 13.8568V25.5499C44.5 34.8864 40.2505 41.5136 35.5955 45.9655C30.9484 50.4098 25.8842 52.7011 24.1896 53.3959L24 53.4737L23.8103 53.3959C22.1154 52.701 17.0513 50.4055 12.4043 45.9591C7.74953 41.5054 3.49996 34.8782 3.49996 25.5499V13.8568L3.86181 13.7527C7.35541 12.7484 10.7753 11.5033 14.0968 10.0264L14.1016 10.0243C17.4236 8.58827 20.6443 6.92817 23.7412 5.05542L24 4.89896ZM14.5007 10.9412C11.2525 12.3854 7.91144 13.6106 4.49996 14.6089V25.5499C4.49996 34.5383 8.58373 40.9195 13.0956 45.2366C17.4525 49.4053 22.1962 51.635 24 52.392C25.804 51.6352 30.5476 49.4094 34.9044 45.2428C39.4161 40.9279 43.5 34.5468 43.5 25.5499V14.6089C40.0885 13.6106 36.7474 12.3854 33.4992 10.9412C30.2288 9.52738 27.0555 7.89907 24 6.06692C20.9444 7.89907 17.7711 9.52739 14.5007 10.9412Z" fill="#FF8800"/>
</svg>
