<svg width="53" height="53" viewBox="0 0 53 53" fill="none" xmlns="http://www.w3.org/2000/svg">
<path fill-rule="evenodd" clip-rule="evenodd" d="M24.25 5.5C19.2772 5.5 14.5081 7.47544 10.9917 10.9917C7.47544 14.5081 5.5 19.2772 5.5 24.25C5.5 29.2228 7.47544 33.9919 10.9917 37.5083C14.5081 41.0246 19.2772 43 24.25 43C29.2228 43 33.9919 41.0246 37.5083 37.5083C41.0246 33.9919 43 29.2228 43 24.25C43 19.2772 41.0246 14.5081 37.5083 10.9917C33.9919 7.47544 29.2228 5.5 24.25 5.5ZM7.45621 7.45621C11.9102 3.00223 17.9511 0.5 24.25 0.5C30.5489 0.5 36.5898 3.00223 41.0438 7.45621C45.4978 11.9102 48 17.9511 48 24.25C48 29.7059 46.1227 34.9682 42.7259 39.1734L52.2693 48.7338L48.7307 52.2662L39.1922 42.7107C34.9839 46.1171 29.714 48 24.25 48C17.9511 48 11.9102 45.4978 7.45621 41.0438C3.00223 36.5898 0.5 30.5489 0.5 24.25C0.5 17.9511 3.00223 11.9102 7.45621 7.45621Z" fill="#FF8800"/>
</svg>
