<svg width="51" height="31" viewBox="0 0 51 31" fill="none" xmlns="http://www.w3.org/2000/svg">
<path d="M50.8 1.55C50.5463 0.939126 50.0609 0.453687 49.45 0.2C49.1494 0.0718974 48.8267 0.00394997 48.5 0H36C35.337 0 34.7011 0.263393 34.2322 0.732233C33.7634 1.20107 33.5 1.83696 33.5 2.5C33.5 3.16304 33.7634 3.79893 34.2322 4.26777C34.7011 4.73661 35.337 5 36 5H42.475L28.5 18.975L20.275 10.725C20.0426 10.4907 19.7661 10.3047 19.4614 10.1778C19.1568 10.0508 18.83 9.9855 18.5 9.9855C18.17 9.9855 17.8432 10.0508 17.5386 10.1778C17.2339 10.3047 16.9574 10.4907 16.725 10.725L1.725 25.725C1.49068 25.9574 1.30469 26.2339 1.17777 26.5386C1.05085 26.8432 0.985504 27.17 0.985504 27.5C0.985504 27.83 1.05085 28.1568 1.17777 28.4614C1.30469 28.7661 1.49068 29.0426 1.725 29.275C1.95741 29.5093 2.23391 29.6953 2.53856 29.8222C2.84321 29.9492 3.16997 30.0145 3.5 30.0145C3.83003 30.0145 4.15679 29.9492 4.46144 29.8222C4.76609 29.6953 5.04259 29.5093 5.275 29.275L18.5 16.025L26.725 24.275C26.9574 24.5093 27.2339 24.6953 27.5386 24.8222C27.8432 24.9491 28.17 25.0145 28.5 25.0145C28.83 25.0145 29.1568 24.9491 29.4614 24.8222C29.7661 24.6953 30.0426 24.5093 30.275 24.275L46 8.525V15C46 15.663 46.2634 16.2989 46.7322 16.7678C47.2011 17.2366 47.837 17.5 48.5 17.5C49.163 17.5 49.7989 17.2366 50.2678 16.7678C50.7366 16.2989 51 15.663 51 15V2.5C50.9961 2.17331 50.9281 1.85056 50.8 1.55Z" fill="#FF8800"/>
</svg>
