<svg width="60" height="60" viewBox="0 0 60 60" fill="none" xmlns="http://www.w3.org/2000/svg">
<path fill-rule="evenodd" clip-rule="evenodd" d="M27.1429 6C26.1649 6 25.2226 6.39258 24.5243 7.09865C23.8252 7.80547 23.4286 8.76876 23.4286 9.77778C23.4286 10.7868 23.8252 11.7501 24.5243 12.4569C25.2226 13.163 26.1649 13.5556 27.1429 13.5556H32.8571C33.8351 13.5556 34.7774 13.163 35.4757 12.4569C36.1748 11.7501 36.5714 10.7868 36.5714 9.77778C36.5714 8.76876 36.1748 7.80547 35.4757 7.09865C34.7774 6.39258 33.8351 6 32.8571 6H27.1429ZM21.6802 4.28589C23.1252 2.82487 25.0897 2 27.1429 2H32.8571C34.9103 2 36.8748 2.82487 38.3198 4.28589C39.2858 5.26264 39.9669 6.47007 40.312 7.77778H44.2857C46.3388 7.77778 48.3034 8.60265 49.7483 10.0637C51.1926 11.5239 52 13.4998 52 15.5556V50.2222C52 52.2779 51.1926 54.2538 49.7483 55.7141C48.3034 57.1751 46.3388 58 44.2857 58H15.7143C13.6612 58 11.6966 57.1751 10.2517 55.7141C8.80744 54.2538 8 52.2779 8 50.2222V15.5556C8 13.4998 8.80744 11.5239 10.2517 10.0637C11.6966 8.60265 13.6612 7.77778 15.7143 7.77778H19.688C20.0331 6.47007 20.7142 5.26264 21.6802 4.28589ZM19.688 11.7778H15.7143C14.7364 11.7778 13.794 12.1704 13.0957 12.8764C12.3966 13.5832 12 14.5465 12 15.5556V50.2222C12 51.2312 12.3966 52.1945 13.0957 52.9014C13.794 53.6074 14.7364 54 15.7143 54H44.2857C45.2636 54 46.206 53.6074 46.9043 52.9014C47.6034 52.1945 48 51.2312 48 50.2222V15.5556C48 14.5465 47.6034 13.5832 46.9043 12.8764C46.206 12.1704 45.2636 11.7778 44.2857 11.7778H40.312C39.9669 13.0855 39.2858 14.2929 38.3198 15.2697C36.8748 16.7307 34.9103 17.5556 32.8571 17.5556H27.1429C25.0897 17.5556 23.1252 16.7307 21.6802 15.2697C20.7142 14.2929 20.0331 13.0855 19.688 11.7778ZM39.9778 28.578C40.7632 29.3547 40.7702 30.621 39.9934 31.4064L28.5649 42.9619C28.1892 43.3418 27.6771 43.5556 27.1429 43.5556C26.6086 43.5556 26.0965 43.3418 25.7209 42.9619L20.0066 37.1842C19.2298 36.3988 19.2368 35.1325 20.0222 34.3558C20.8075 33.5791 22.0739 33.586 22.8506 34.3714L27.1429 38.7114L37.1494 28.5936C37.9261 27.8083 39.1925 27.8013 39.9778 28.578Z" fill="#FF8800"/>
</svg>
