<svg width="60" height="60" viewBox="0 0 60 60" fill="none" xmlns="http://www.w3.org/2000/svg">
<path fill-rule="evenodd" clip-rule="evenodd" d="M8.5 34.4139C8.5 29.4903 12.4913 25.499 17.4149 25.499H20.3979V43.3288H17.4149C12.4913 43.3288 8.5 39.3374 8.5 34.4139ZM17.3979 28.499C14.139 28.5082 11.5 31.1529 11.5 34.4139C11.5 37.6749 14.139 40.3196 17.3979 40.3288V28.499Z" fill="#FF8800"/>
<path fill-rule="evenodd" clip-rule="evenodd" d="M52.5 34.4139C52.5 29.4903 48.5087 25.499 43.5851 25.499H40.6021V43.3288H43.5851C48.5087 43.3288 52.5 39.3374 52.5 34.4139ZM43.6021 28.499C46.861 28.5082 49.5 31.1529 49.5 34.4139C49.5 37.6749 46.861 40.3196 43.6021 40.3288V28.499Z" fill="#FF8800"/>
<path fill-rule="evenodd" clip-rule="evenodd" d="M31.5468 42.8054C29.4363 42.8054 27.7255 44.5162 27.7255 46.6266C27.7255 48.7371 29.4363 50.4479 31.5468 50.4479C33.6572 50.4479 35.3681 48.7371 35.3681 46.6266C35.3681 44.5162 33.6572 42.8054 31.5468 42.8054ZM24.7255 46.6266C24.7255 42.8594 27.7795 39.8054 31.5468 39.8054C35.3141 39.8054 38.3681 42.8594 38.3681 46.6266C38.3681 50.3939 35.3141 53.4479 31.5468 53.4479C27.7795 53.4479 24.7255 50.3939 24.7255 46.6266Z" fill="#FF8800"/>
<path fill-rule="evenodd" clip-rule="evenodd" d="M46.8866 43.024C46.7265 43.8908 46.3576 45.0485 45.5135 46.1596C44.1023 48.0174 41.5956 48.5793 39.8754 48.7715C38.9527 48.8745 38.1075 48.886 37.4958 48.8725C37.1883 48.8657 36.9357 48.8526 36.7568 48.8408C36.6672 48.8349 36.5959 48.8293 36.5451 48.8251L36.4844 48.8197L36.4661 48.818L36.4601 48.8174L36.4579 48.8172C36.4579 48.8172 36.4562 48.817 36.6064 47.3245C36.7566 45.8321 36.7559 45.832 36.7559 45.832L36.7611 45.8325L36.7967 45.8356C36.8304 45.8385 36.8836 45.8427 36.9539 45.8473C37.0947 45.8566 37.3033 45.8675 37.5618 45.8732C38.0822 45.8847 38.7882 45.8742 39.5424 45.79C41.1761 45.6075 42.5257 45.1334 43.1247 44.3449C43.6137 43.7011 43.8373 43.0163 43.9365 42.4792C43.9858 42.2126 44.0025 41.9919 44.0074 41.8461C44.0098 41.7736 44.0092 41.7209 44.0085 41.6919C44.0081 41.6775 44.0076 41.6672 44.0076 41.6672L44.0077 41.6693L44.0081 41.6742L44.0083 41.6777L44.0085 41.6796L44.0085 41.6807C44.0085 41.6807 44.0086 41.6817 45.5042 41.5671C46.9999 41.4525 46.9999 41.4536 46.9999 41.4536L47 41.4548L47.0002 41.4572L47.0006 41.4628L47.0015 41.476L47.0035 41.5112C47.005 41.5385 47.0064 41.5732 47.0075 41.615C47.0096 41.6984 47.0102 41.8103 47.0057 41.9462C46.9966 42.2171 46.9671 42.5886 46.8866 43.024Z" fill="#FF8800"/>
<path fill-rule="evenodd" clip-rule="evenodd" d="M30.1789 7.09379C38.1711 6.77691 44.898 11.284 47.0382 19.1007C47.4894 20.7485 47.6684 22.8507 47.7425 24.4625C47.7803 25.2844 47.7919 26.01 47.7942 26.5306C47.7953 26.7913 47.794 27.0015 47.7925 27.1477C47.7917 27.2209 47.7909 27.2781 47.7902 27.3177L47.7893 27.3638L47.789 27.3815C47.789 27.3815 47.7889 27.3822 46.2893 27.3479C44.7897 27.3137 44.7897 27.3139 44.7897 27.3139L44.7899 27.3038L44.7906 27.2668C44.7912 27.2332 44.7919 27.1824 44.7926 27.116C44.7941 26.9831 44.7952 26.7878 44.7942 26.5435C44.7921 26.0541 44.7811 25.3714 44.7456 24.6002C44.6732 23.0258 44.5033 21.2024 44.1447 19.893C42.4008 13.5236 37.0022 9.82561 30.2977 10.0914C23.9338 10.3438 19.2117 13.8504 17.5529 19.8939C17.1966 21.192 17.0465 23.006 16.996 24.5794C16.9712 25.3489 16.971 26.0303 16.9769 26.5187C16.9799 26.7626 16.9844 26.9574 16.9881 27.0899C16.9899 27.1561 16.9916 27.2067 16.9928 27.24L16.9941 27.2768L16.9944 27.2851L16.9945 27.2866C16.9945 27.2866 16.9945 27.2864 15.4957 27.3479C13.997 27.4095 13.997 27.4091 13.997 27.4091L13.9968 27.4036L13.9963 27.3908L13.9946 27.3444C13.9932 27.3046 13.9913 27.2472 13.9893 27.1738C13.9852 27.0271 13.9803 26.8165 13.9771 26.5553C13.9708 26.0336 13.971 25.3066 13.9975 24.483C14.0494 22.8699 14.2046 20.7584 14.6599 19.0998C16.6912 11.699 22.6122 7.3938 30.1789 7.09379Z" fill="#FF8800"/>
</svg>
