<svg width="560" height="96" viewBox="0 0 560 96" fill="none" xmlns="http://www.w3.org/2000/svg">
<path d="M278.064 0L290.115 36.3257H329.056L297.555 58.7784L309.564 95.1468L278.064 72.694L246.563 95.1468L258.572 58.7784L227.071 36.3257H266.012L278.064 0Z" fill="#FF8800"/>
<path d="M137.792 25.6108L146.711 52.503H175.514L152.193 69.1077L161.113 95.9999L137.792 79.3523L114.471 95.9999L123.391 69.1077L100.07 52.503H128.873L137.792 25.6108Z" fill="#FF8800"/>
<path d="M23.3206 51.2229L28.8461 67.8704H46.6413L32.2399 78.115L37.722 94.7199L23.3206 84.4751L8.91923 94.7199L14.4448 78.115L0 67.8704H17.8385L23.3206 51.2229Z" fill="#FF8800"/>
<path d="M420.598 25.6108L411.679 52.503H382.876L406.197 69.1077L397.278 95.9999L420.598 79.3523L443.919 95.9999L435 69.1077L458.32 52.503H429.474L420.598 25.6108Z" fill="#FF8800"/>
<path d="M536.723 51.2229L531.197 67.8704H513.402L527.804 78.115L522.278 94.7199L536.723 84.4751L551.124 94.7199L545.599 78.115L560 67.8704H542.205L536.723 51.2229Z" fill="#FF8800"/>
</svg>
