<svg width="60" height="60" viewBox="0 0 60 60" fill="none" xmlns="http://www.w3.org/2000/svg">
<path d="M14.6488 18.8201C12.5076 20.7194 10.9304 23.1715 10.09 25.9076L10.0888 25.9063C8.4238 26.2965 6.88792 27.1103 5.63002 28.2688C5.63002 28.2688 5.46376 33.6588 6.76251 36.0876C9.15876 39.1501 20.4713 44.2738 20.4713 44.2738C20.4713 44.2738 21.17 48.0338 22.5675 49.2313H27.0588C27.6849 48.2326 28.0827 47.1079 28.2238 45.9376C29.8578 46.258 31.5165 46.4361 33.1813 46.4701C35.5438 46.4701 38.8375 46.0701 38.8375 46.0701C39.3529 47.1624 39.9418 48.2186 40.6 49.2313H44.7263C45.5581 47.4798 46.1832 45.6374 46.5888 43.7413C46.5888 43.7413 54.375 40.3138 54.375 29.5676C54.375 18.8213 44.5613 10.7688 34.1463 10.7688C23.7313 10.7688 20.1388 15.1276 20.1388 15.1276C19.3063 14.1625 14.6488 12.1 14.6488 12.1C14.6488 12.1 13.4838 17.8888 14.6488 18.8201Z" stroke="#FF8800" stroke-width="4" stroke-linecap="round" stroke-linejoin="round"/>
<path fill-rule="evenodd" clip-rule="evenodd" d="M33.5351 17.0266C30.5971 16.8723 27.6943 17.7241 25.3056 19.4416C24.633 19.9252 23.6957 19.7719 23.2121 19.0993C22.7285 18.4267 22.8817 17.4894 23.5543 17.0058C26.483 14.9001 30.0389 13.8507 33.6406 14.0281C37.5309 13.9752 41.3339 15.1854 44.4786 17.4778C45.148 17.9658 45.2951 18.9041 44.8071 19.5735C44.3191 20.243 43.3808 20.39 42.7114 19.902C40.0797 17.9836 36.8947 16.9749 33.6384 17.0285C33.6039 17.029 33.5695 17.0284 33.5351 17.0266Z" fill="#FF8800"/>
<path d="M15.6 28.8C16.9255 28.8 18 27.8598 18 26.7C18 25.5402 16.9255 24.6 15.6 24.6C14.2745 24.6 13.2 25.5402 13.2 26.7C13.2 27.8598 14.2745 28.8 15.6 28.8Z" fill="#FF8800"/>
</svg>
