<svg fill-opacity="0.4" width="188" height="52" viewBox="0 0 188 52" xmlns="http://www.w3.org/2000/svg">
    <g clip-path="url(#clip0_4002_9284)">
    <path fill-rule="evenodd" clip-rule="evenodd" d="M42.1304 40.0364C45.7073 36.0083 48.394 30.6701 48.394 23.7317C48.394 17.4195 45.6937 11.7049 41.3281 7.56802C36.9625 3.43161 30.9319 0.872437 24.2706 0.872437C17.6095 0.872437 11.5784 3.43114 7.21322 7.56802C2.84808 11.7049 0.1474 17.4195 0.1474 23.7317C0.1474 30.6701 2.83398 36.0083 6.41089 40.0364C13.4324 47.9429 24.0343 50.7748 24.2702 50.7748C24.5069 50.7748 35.1089 47.9429 42.1304 40.0364ZM24.2711 49.4989C24.0528 49.4989 14.1589 46.7872 7.43738 39.2189C4.0433 35.3968 1.49434 30.3282 1.49434 23.7317C1.49434 17.772 4.04427 12.3758 8.1653 8.47023C12.2868 4.56466 17.9814 2.1488 24.2706 2.1488C30.5599 2.1488 36.254 4.56466 40.376 8.47023C44.4975 12.3758 47.047 17.772 47.047 23.7317C47.047 30.3282 44.4985 35.3968 41.1044 39.2189C34.3834 46.7876 24.4895 49.4989 24.2711 49.4989Z"/>
    <path fill-rule="evenodd" clip-rule="evenodd" d="M36.7406 26.1425V23.5262V22.888V22.8875V22.2498V19.6529V19.0147V18.3765V15.1418V14.5037H36.0671H28.8763H28.2029H28.2024H27.5289H21.012H20.3385H20.3381H19.6646H12.4738H11.8004V15.1418V18.3765V19.0147V19.6529V22.2498V22.8875V22.888V23.5262V26.1421L10.6159 26.2784L9.88014 26.3632L10.0396 27.0488L10.9125 30.7968C11.3696 31.2147 11.9156 31.5658 12.5264 31.828L11.5091 27.4603L24.269 25.9955V32.3584H24.27C26.1338 32.3584 27.7827 31.6189 28.8291 30.4821C29.8707 31.6189 31.5225 32.3584 33.3844 32.3584C34.3331 32.3584 35.2259 32.1644 36.0126 31.8257L36.0121 31.8285C36.0243 31.8234 36.035 31.817 36.0472 31.8119C36.1556 31.7644 36.2606 31.7128 36.3642 31.6603C36.3987 31.6428 36.4347 31.6271 36.4687 31.6092C36.6 31.5391 36.7279 31.4654 36.8514 31.387L36.8519 31.3857C37.1311 31.2092 37.3907 31.0125 37.626 30.7973L38.4989 27.0488L38.6584 26.3632L37.9227 26.2784L36.7406 26.1425ZM19.6656 25.2398L13.1483 25.9877V23.5262H19.6656V25.2398ZM19.6656 18.3774H13.1483V15.7805H19.6656V18.3774ZM27.5294 25.0849L24.3497 24.7201L24.271 24.7113L24.1922 24.7201L21.013 25.0849V23.5267H27.5298V25.0849H27.5294ZM27.5294 22.2503H21.0125V19.6538H27.5294V22.2503ZM27.5294 18.3774H21.0125V15.7805H27.5294V18.3774ZM35.3936 25.9881L28.8763 25.2398V23.5262H35.3936V25.9881ZM35.3936 22.2503H28.8763V19.6538H35.3936V22.2503Z"/>
    <path fill-rule="evenodd" clip-rule="evenodd" d="M26.5403 43.5461C25.8571 43.8277 25.0859 43.9871 24.2709 43.9871V43.9843C23.4506 43.9843 22.6804 43.8263 22.0015 43.5461C21.2975 43.2558 20.6882 42.8356 20.2214 42.3269L19.2061 43.1591C19.8046 43.8111 20.5778 44.3465 21.4652 44.7124C22.3142 45.0621 23.2678 45.2602 24.2714 45.2602V45.2575C25.2794 45.2575 26.2325 45.0607 27.0776 44.7119C27.965 44.346 28.7381 43.8106 29.3358 43.1591L28.3205 42.3269C27.8532 42.8361 27.2449 43.2558 26.5403 43.5461Z"/>
    <path fill-rule="evenodd" clip-rule="evenodd" d="M35.6562 35.0429C34.9774 35.3221 34.2067 35.4802 33.3859 35.4802C32.5655 35.4802 31.7954 35.3221 31.1165 35.0429C30.4129 34.7526 29.8046 34.3333 29.3387 33.8255L28.8321 33.273L28.3259 33.8232C27.8562 34.3342 27.2464 34.7545 26.5442 35.0438H26.5418C25.8629 35.3235 25.0927 35.4811 24.2719 35.4811C23.4516 35.4811 22.6823 35.3231 22.0036 35.0438C21.2984 34.7535 20.6882 34.3333 20.218 33.8232L19.7108 33.2726L19.2056 33.8232C18.7364 34.3338 18.1276 34.7545 17.4254 35.0434C16.7466 35.3226 15.9764 35.4807 15.156 35.4807C14.3348 35.4807 13.564 35.3231 12.8852 35.0443L12.8857 35.0434C12.184 34.7545 11.5748 34.3342 11.106 33.8232L10.0907 34.6609C10.6864 35.3097 11.4595 35.8433 12.3499 36.2101H12.3523C13.2018 36.5598 14.1544 36.757 15.1565 36.757C16.1602 36.757 17.1127 36.5593 17.9622 36.2101C18.6182 35.9396 19.2105 35.5788 19.7152 35.148C20.2214 35.5797 20.8132 35.941 21.4672 36.2105C22.3157 36.5603 23.2678 36.7575 24.2715 36.7575C25.2756 36.7575 26.2286 36.5603 27.0776 36.2105L27.0767 36.2101C27.7321 35.94 28.3244 35.5793 28.8297 35.148C29.3344 35.5802 29.9257 35.9414 30.5792 36.2101C31.4282 36.5598 32.3818 36.7575 33.3854 36.7575C34.3895 36.7575 35.343 36.5598 36.192 36.2105C37.0824 35.8437 37.8551 35.3102 38.4512 34.6614L37.436 33.8237C36.9672 34.3338 36.3579 34.754 35.6562 35.0429Z"/>
    <path fill-rule="evenodd" clip-rule="evenodd" d="M31.0985 39.294C30.4192 39.5742 29.6485 39.7322 28.8292 39.7322C28.0088 39.7322 27.2381 39.5737 26.5583 39.2935C25.8542 39.0032 25.2449 38.5835 24.7786 38.0748L24.271 37.5219L23.7633 38.0748C23.2965 38.5835 22.6877 39.0037 21.9836 39.2935C21.3043 39.5737 20.5341 39.7322 19.7142 39.7322C18.8939 39.7322 18.1237 39.5742 17.4449 39.294C16.7408 39.0037 16.1315 38.5835 15.6647 38.0748L14.6494 38.9069C15.2479 39.559 16.0206 40.0944 16.9085 40.4602C17.758 40.81 18.7111 41.0081 19.7147 41.0081C20.7183 41.0081 21.6709 40.8104 22.5204 40.4602C23.1744 40.1907 23.7667 39.829 24.2719 39.3968C24.7771 39.829 25.3689 40.1902 26.0234 40.4602C26.8734 40.8104 27.8269 41.0081 28.8306 41.0081C29.8342 41.0081 30.7873 40.8104 31.6363 40.4602C32.5237 40.0944 33.2974 39.5585 33.8955 38.9069L32.8802 38.0748C32.4119 38.5835 31.8021 39.0042 31.0985 39.294Z"/>
    <path fill-rule="evenodd" clip-rule="evenodd" d="M17.3689 11.9809H18.1805V6.42987H17.3689L16.5622 7.00124V7.84769L17.3689 7.26895V11.9809Z"/>
    <path fill-rule="evenodd" clip-rule="evenodd" d="M19.65 10.3608C19.6548 10.8603 19.8275 11.2589 20.1693 11.5588C20.4946 11.8662 20.9001 12.0214 21.3845 12.027C21.8712 12.0219 22.2831 11.8662 22.6186 11.5584C22.9497 11.2589 23.117 10.8589 23.1223 10.3594C23.117 9.82353 22.886 9.40744 22.4309 9.10978C22.605 8.96417 22.747 8.79876 22.8564 8.61076C22.9609 8.43613 23.0129 8.22785 23.0129 7.98733C23.0076 7.52471 22.8534 7.14318 22.55 6.84045C22.2485 6.5414 21.859 6.38935 21.3845 6.38428C20.9172 6.38935 20.5355 6.5414 20.2384 6.84045C19.9247 7.14318 19.7638 7.52563 19.7594 7.98779C19.7594 8.22877 19.8177 8.43705 19.9325 8.61214C20.0307 8.79968 20.1678 8.96602 20.3424 9.11071C19.8863 9.40883 19.6548 9.82491 19.65 10.3608ZM20.8248 7.37127C20.9867 7.24086 21.1729 7.17589 21.3845 7.17589C21.6028 7.17589 21.7934 7.24086 21.9553 7.37127C22.1153 7.50581 22.1975 7.70625 22.2023 7.9712C22.1975 8.22877 22.1153 8.42553 21.9553 8.561C21.7939 8.70061 21.6033 8.77111 21.3845 8.77111C21.1729 8.77111 20.9867 8.70061 20.8248 8.561C20.6599 8.42553 20.5753 8.22831 20.5705 7.9712C20.5753 7.70625 20.6599 7.50581 20.8248 7.37127ZM20.7441 9.71985C20.9196 9.55951 21.1336 9.47656 21.3845 9.4715C21.6427 9.47656 21.8595 9.55951 22.036 9.71985C22.2145 9.88251 22.3059 10.0931 22.3113 10.3534C22.3054 10.6078 22.2145 10.8156 22.036 10.9792C21.8595 11.1501 21.6427 11.2349 21.3845 11.2349C21.1336 11.2349 20.9196 11.1501 20.7441 10.9792C20.5603 10.8156 20.4679 10.6078 20.4611 10.3534C20.4674 10.0935 20.5603 9.88251 20.7441 9.71985Z"/>
    <path fill-rule="evenodd" clip-rule="evenodd" d="M25.5653 10.0309C25.9008 10.036 26.2626 9.97927 26.6506 9.85948L26.6501 10.3825C26.6341 10.9455 26.3676 11.2294 25.8498 11.2344C25.4831 11.2344 25.2366 11.0796 25.1092 10.7686H24.2699C24.356 11.1713 24.5471 11.4782 24.8432 11.692C25.1364 11.9099 25.471 12.021 25.8478 12.0265C26.2893 12.0214 26.6643 11.8818 26.9735 11.6072C27.2871 11.3307 27.4496 10.9372 27.4603 10.4272V7.97903C27.45 7.46619 27.2876 7.0713 26.9735 6.79529C26.6638 6.52067 26.2893 6.38428 25.8478 6.38428C25.4185 6.38428 25.0504 6.52067 24.7416 6.79437C24.4114 7.07038 24.2437 7.46434 24.2393 7.97627V8.48728C24.2339 9.02086 24.3613 9.41159 24.621 9.65765C24.8816 9.91246 25.1962 10.036 25.5653 10.0309ZM25.0504 8.02696C25.0606 7.46895 25.3266 7.18603 25.8483 7.17636C26.3671 7.18603 26.6336 7.46895 26.6506 8.02696L26.6501 8.48036C26.6341 9.04343 26.3676 9.32635 25.8483 9.33096C25.3266 9.32635 25.0606 9.04343 25.0504 8.48036V8.02696Z"/>
    <path fill-rule="evenodd" clip-rule="evenodd" d="M29.5643 7.22149H31.0678L29.1524 11.9804H30.0578L31.9795 7.22149V6.42987H28.7537V8.02601H29.5643V7.22149Z"/>
    <path fill-rule="evenodd" clip-rule="evenodd" d="M68.6994 10.1387C68.5997 9.85903 68.4504 9.6102 68.251 9.38672C68.0507 9.16371 67.8324 8.98169 67.598 8.84162C67.3602 8.6997 67.103 8.6034 66.8253 8.54903C67.0563 8.45917 67.2678 8.32601 67.455 8.15552C67.6427 7.98411 67.7944 7.77215 67.9058 7.52471C68.0201 7.27451 68.0775 6.99067 68.0794 6.6709C68.077 6.16495 67.9515 5.73689 67.7021 5.38578C67.4526 5.03466 67.103 4.76695 66.6527 4.58494C66.201 4.39971 65.6715 4.30756 65.0588 4.30756H60.3698V13.7604H65.3855C65.9136 13.7604 66.3882 13.6996 66.8088 13.5761C67.2294 13.4549 67.5941 13.2674 67.9087 13.0181C68.5355 12.5186 68.8487 11.8699 68.8487 11.0732C68.8491 10.7304 68.8 10.4207 68.6994 10.1387ZM62.4223 5.9295H64.731C65.1633 5.93181 65.4983 6.02396 65.7361 6.20781C65.9763 6.39074 66.0974 6.6497 66.0998 6.98238C66.0974 7.30953 65.9763 7.56066 65.7361 7.73851C65.4983 7.91638 65.1633 8.00623 64.731 8.00946H62.4223V5.9295ZM65.8728 11.9459C66.1154 11.8519 66.3007 11.7141 66.4286 11.5321C66.5603 11.3492 66.6265 11.1248 66.6265 10.8584C66.6265 10.593 66.5603 10.3686 66.4286 10.1811C66.3002 9.99726 66.1154 9.85718 65.8728 9.76088C65.6301 9.66549 65.3408 9.61665 65.0014 9.61665H62.4218V12.0878H65.0014C65.3413 12.0878 65.6301 12.0399 65.8728 11.9459Z"/>
    <path d="M75.5045 8.61671V13.7618H77.5147V7.0238H71.3728L71.3295 9.00884C71.3271 9.28715 71.3203 9.53551 71.3135 9.75622C71.3033 9.97417 71.2916 10.1723 71.2746 10.352C71.2585 10.5299 71.2347 10.6985 71.2085 10.8579C71.1798 11.016 71.1443 11.1731 71.101 11.3316C71.0232 11.633 70.9089 11.8537 70.7567 11.9905C70.6026 12.1302 70.4105 12.1983 70.1747 12.1951C70.0969 12.1951 70.0225 12.191 69.9515 12.1841C69.8829 12.1753 69.8187 12.1615 69.7618 12.1417V13.6945C69.8396 13.7346 69.9422 13.765 70.0706 13.7843C70.1965 13.8051 70.3463 13.8157 70.5175 13.8157C70.9853 13.8005 71.3796 13.7148 71.6996 13.559C72.021 13.4042 72.2816 13.1886 72.4839 12.9112C72.6852 12.6347 72.8418 12.3057 72.9536 11.9251C73.0314 11.6574 73.0932 11.403 73.1365 11.1602C73.1788 10.9174 73.2094 10.6653 73.2313 10.4082C73.2507 10.1516 73.2692 9.86958 73.2814 9.56224L73.3101 8.61626H75.5045V8.61671Z"/>
    <path fill-rule="evenodd" clip-rule="evenodd" d="M86.2504 12.2905C86.3359 12.2905 86.4147 12.2841 86.4833 12.2698C86.5538 12.2569 86.6136 12.2366 86.6637 12.2103V13.6014C86.5353 13.6954 86.3812 13.7659 86.2027 13.8125C86.0218 13.8604 85.8151 13.8853 85.5808 13.8853C85.1738 13.8853 84.8397 13.8125 84.5732 13.6706C84.3048 13.5263 84.1059 13.3107 83.9698 13.0204C83.6566 13.3236 83.2953 13.5531 82.8893 13.706C82.4813 13.8618 82.0252 13.9378 81.5186 13.9378C81.0007 13.9355 80.5465 13.8415 80.1556 13.6572C79.7632 13.472 79.4549 13.2107 79.2341 12.8739C79.0133 12.538 78.9015 12.1394 78.8966 11.6832C78.8966 11.3247 78.9652 11.0082 79.1004 10.7331C79.2385 10.4571 79.4451 10.2253 79.7233 10.0355C80.0009 9.84701 80.3053 9.70463 80.6321 9.61064C80.9623 9.51526 81.3192 9.46871 81.7033 9.46871C82.1025 9.46871 82.474 9.50236 82.8159 9.57146C83.1582 9.63829 83.4714 9.74472 83.7558 9.88664V9.6839C83.7558 9.25906 83.5993 8.9402 83.2861 8.72917C82.9725 8.51997 82.5018 8.41399 81.875 8.41399C81.4976 8.41399 81.1271 8.46191 80.7658 8.55591C80.407 8.65037 80.0583 8.79183 79.7233 8.98167V7.38784C80.0865 7.20583 80.4857 7.07036 80.9248 6.98051C81.3615 6.8925 81.8395 6.84827 82.3598 6.84827C82.8655 6.84827 83.324 6.9054 83.7354 7.02152C84.1458 7.13718 84.5052 7.31365 84.8115 7.55003C85.4383 8.02233 85.7514 8.67064 85.7514 9.49497V11.7768C85.7514 11.9459 85.7952 12.0735 85.8774 12.1592C85.9634 12.2472 86.087 12.2905 86.2504 12.2905ZM83.0751 12.2951C83.3435 12.1804 83.5711 12.0067 83.7563 11.7772H83.7568V11.1026C83.5496 10.9736 83.3245 10.8773 83.0799 10.81C82.8349 10.7451 82.5664 10.7105 82.2747 10.7105C81.9868 10.7105 81.7398 10.7474 81.5341 10.8147C81.325 10.8838 81.1636 10.9838 81.0493 11.1137C80.9375 11.2469 80.8801 11.404 80.8791 11.5892C80.8801 11.7864 80.935 11.9509 81.0425 12.0799C81.149 12.2099 81.2988 12.3062 81.4884 12.3712C81.678 12.4352 81.8973 12.4665 82.1468 12.4665C82.4954 12.4665 82.8042 12.4099 83.0751 12.2951Z"/>
    <path fill-rule="evenodd" clip-rule="evenodd" d="M95.1431 7.0238V12.1693H96.313V15.4782H94.4176V13.7618H89.2876V15.4782H87.363V12.1693H88.2752C88.545 11.7708 88.7517 11.2528 88.8947 10.6156C89.0362 9.97832 89.1154 9.21803 89.129 8.33379L89.1577 7.0238H95.1431ZM90.3257 12.1693H93.1761V8.61672H90.9535C90.9535 9.31894 90.901 9.96772 90.7945 10.5594C90.6894 11.1542 90.5329 11.6892 90.3257 12.1693Z"/>
    <path d="M99.5762 13.7618L102.797 9.79216V13.7618H104.777V7.0238H102.896L99.6754 10.9939V7.0238H97.6954V13.7618H99.5762Z"/>
    <path fill-rule="evenodd" clip-rule="evenodd" d="M113.189 10.8409C112.96 10.5506 112.623 10.3318 112.175 10.1834C112.466 10.0415 112.685 9.85302 112.828 9.61479C112.973 9.37887 113.043 9.09042 113.043 8.75221C113.043 8.42183 112.955 8.12463 112.781 7.86613C112.609 7.60718 112.352 7.40259 112.012 7.25284C111.674 7.10217 111.257 7.02659 110.763 7.02429H106.744V13.7623H110.934C111.487 13.76 111.955 13.6844 112.342 13.536C112.726 13.3844 113.022 13.1729 113.224 12.8955C113.425 12.6214 113.524 12.2933 113.528 11.9127C113.528 11.4869 113.414 11.1289 113.189 10.8409ZM108.725 8.33383H110.122C110.442 8.33383 110.682 8.39004 110.839 8.50385C110.998 8.61859 111.077 8.79184 111.077 9.02177C111.077 9.2517 110.998 9.42265 110.839 9.53738C110.682 9.65441 110.442 9.71063 110.122 9.71063H108.725V8.33383ZM110.436 12.4251C110.784 12.4251 111.046 12.362 111.217 12.2343C111.39 12.1076 111.476 11.9191 111.476 11.6685C111.476 11.4192 111.39 11.2298 111.217 11.104C111.046 10.9764 110.784 10.9123 110.436 10.9123H108.725V12.4251H110.436Z"/>
    <path fill-rule="evenodd" clip-rule="evenodd" d="M120.131 7.10169C120.603 7.2731 121.024 7.52976 121.394 7.87442C122.135 8.56236 122.506 9.40006 122.505 10.3857C122.505 10.8925 122.413 11.3565 122.228 11.7768C122.043 12.1979 121.765 12.5804 121.394 12.925C121.024 13.2618 120.603 13.5144 120.131 13.6835C119.661 13.8512 119.135 13.9369 118.559 13.9369C117.982 13.9369 117.457 13.8512 116.986 13.6835C116.514 13.5144 116.093 13.2618 115.723 12.925C115.352 12.5808 115.074 12.1984 114.889 11.7768C114.704 11.3565 114.612 10.8925 114.612 10.3857C114.612 9.3867 114.982 8.54946 115.723 7.87442C116.093 7.52976 116.514 7.2731 116.986 7.10169C117.457 6.93397 117.981 6.84827 118.559 6.84827C119.135 6.84827 119.661 6.93351 120.131 7.10169ZM119.97 11.7371C120.155 11.5551 120.295 11.3515 120.387 11.1271C120.48 10.9036 120.525 10.6566 120.526 10.3861C120.526 9.84655 120.341 9.40006 119.97 9.04895C119.785 8.86694 119.575 8.73147 119.34 8.64162C119.106 8.55177 118.844 8.50938 118.559 8.50938C118.274 8.50938 118.014 8.55177 117.779 8.64162C117.545 8.73147 117.333 8.86694 117.148 9.04895C116.777 9.40006 116.592 9.84655 116.592 10.3861C116.592 10.6566 116.637 10.904 116.729 11.1271C116.822 11.3515 116.963 11.5551 117.148 11.7371C117.333 11.9191 117.545 12.0546 117.779 12.1445C118.015 12.2325 118.275 12.2767 118.559 12.2767C118.843 12.2767 119.106 12.232 119.34 12.1445C119.576 12.0546 119.785 11.9191 119.97 11.7371Z"/>
    <path d="M127.379 13.9373C127.8 13.9373 128.197 13.8972 128.57 13.8138C128.942 13.7327 129.297 13.6069 129.632 13.4378V11.8168C129.354 11.973 129.055 12.0878 128.733 12.1633C128.413 12.238 128.071 12.2762 127.708 12.2762C127.401 12.2762 127.116 12.2338 126.855 12.1463C126.592 12.0587 126.354 11.9251 126.14 11.7495C125.926 11.574 125.765 11.3712 125.658 11.1441C125.551 10.9141 125.499 10.663 125.499 10.3856C125.499 10.1092 125.551 9.85666 125.658 9.6295C125.763 9.40187 125.919 9.20466 126.125 9.03556C126.553 8.68445 127.081 8.50889 127.708 8.50889C128 8.50889 128.299 8.54252 128.6 8.6098C128.904 8.67707 129.211 8.7789 129.517 8.91437V7.29335C129.204 7.14498 128.872 7.03209 128.523 6.95744C128.171 6.88372 127.8 6.84778 127.408 6.84778C126.874 6.84778 126.378 6.92795 125.922 7.09061C125.463 7.25188 125.042 7.49563 124.658 7.82002C124.28 8.13749 123.995 8.50889 123.805 8.93373C123.612 9.35948 123.517 9.83823 123.517 10.3727C123.517 10.9059 123.612 11.3878 123.805 11.8223C123.995 12.2546 124.28 12.6347 124.658 12.9655C125.036 13.2895 125.452 13.5323 125.907 13.695C126.361 13.8571 126.852 13.9373 127.379 13.9373Z"/>
    <path d="M134.805 13.7618V8.61671H137.057V7.0238H130.573V8.61671H132.796V13.7618H134.805Z"/>
    <path fill-rule="evenodd" clip-rule="evenodd" d="M143.29 7.10169C143.762 7.2731 144.182 7.52976 144.553 7.87442C145.294 8.56236 145.664 9.40006 145.664 10.3857C145.664 10.8925 145.572 11.3565 145.386 11.7768C145.201 12.1979 144.923 12.5804 144.553 12.925C144.182 13.2618 143.762 13.5144 143.29 13.6835C142.82 13.8512 142.294 13.9369 141.717 13.9369C141.14 13.9369 140.615 13.8512 140.144 13.6835C139.672 13.5144 139.251 13.2618 138.881 12.925C138.51 12.5808 138.232 12.1984 138.047 11.7768C137.862 11.3565 137.77 10.8925 137.77 10.3857C137.77 9.3867 138.14 8.54946 138.881 7.87442C139.251 7.52976 139.672 7.2731 140.144 7.10169C140.615 6.93397 141.14 6.84827 141.717 6.84827C142.294 6.84827 142.819 6.93351 143.29 7.10169ZM143.129 11.7371C143.314 11.5551 143.453 11.3515 143.546 11.1271C143.638 10.9036 143.684 10.6566 143.684 10.3861C143.684 9.84655 143.499 9.40006 143.129 9.04895C142.943 8.86694 142.734 8.73147 142.498 8.64162C142.263 8.55177 142.002 8.50938 141.717 8.50938C141.432 8.50938 141.173 8.55177 140.937 8.64162C140.703 8.73147 140.492 8.86694 140.306 9.04895C139.936 9.40006 139.751 9.84655 139.751 10.3861C139.751 10.6566 139.795 10.904 139.888 11.1271C139.981 11.3515 140.121 11.5551 140.306 11.7371C140.492 11.9191 140.703 12.0546 140.937 12.1445C141.173 12.2325 141.432 12.2767 141.717 12.2767C142.002 12.2767 142.263 12.232 142.498 12.1445C142.734 12.0546 142.943 11.9191 143.129 11.7371Z"/>
    <path d="M149.156 13.7618V10.8584L151.964 13.7618H154.558L150.981 10.0617L154.074 7.0238H151.607L149.156 9.48113V7.0238H147.148V13.7618H149.156Z"/>
    <path d="M159.076 13.9373C159.496 13.9373 159.893 13.8972 160.265 13.8138C160.639 13.7327 160.992 13.6069 161.327 13.4378V11.8168C161.049 11.973 160.75 12.0878 160.429 12.1633C160.108 12.238 159.766 12.2762 159.403 12.2762C159.097 12.2762 158.812 12.2338 158.551 12.1463C158.287 12.0587 158.049 11.9251 157.835 11.7495C157.621 11.574 157.46 11.3712 157.353 11.1441C157.246 10.9141 157.194 10.663 157.194 10.3856C157.194 10.1092 157.246 9.85666 157.353 9.6295C157.458 9.40187 157.614 9.20466 157.822 9.03556C158.249 8.68445 158.776 8.50889 159.403 8.50889C159.696 8.50889 159.995 8.54252 160.296 8.6098C160.6 8.67707 160.906 8.7789 161.213 8.91437V7.29335C160.9 7.14498 160.567 7.03209 160.218 6.95744C159.866 6.88372 159.495 6.84778 159.104 6.84778C158.569 6.84778 158.073 6.92795 157.617 7.09061C157.158 7.25188 156.739 7.49563 156.354 7.82002C155.976 8.13749 155.69 8.50889 155.501 8.93373C155.309 9.35948 155.214 9.83823 155.214 10.3727C155.214 10.9059 155.309 11.3878 155.501 11.8223C155.69 12.2546 155.976 12.6347 156.354 12.9655C156.731 13.2895 157.147 13.5323 157.603 13.695C158.056 13.8571 158.548 13.9373 159.076 13.9373Z"/>
    <path d="M165.047 13.7618V10.8584L167.855 13.7618H170.448L166.871 10.0617L169.964 7.0238H167.498L165.047 9.48113V7.0238H163.038V13.7618H165.047Z"/>
    <path d="M173.455 13.7618L176.677 9.79216V13.7618H178.657V7.0238H176.776L173.555 10.9939V7.0238H171.574V13.7618H173.455Z"/>
    <path d="M182.505 13.7618L185.725 9.79216V13.7618H187.706V7.0238H185.825L182.604 10.9939V7.0238H180.623V13.7618H182.505Z"/>
    <path d="M184.157 6.28058C184.521 6.28058 184.856 6.22851 185.16 6.1276C185.466 6.02347 185.74 5.86864 185.982 5.65946C186.225 5.44933 186.408 5.20651 186.529 4.92497C186.652 4.64666 186.716 4.32918 186.723 3.97162H185.198C185.193 4.16883 185.146 4.34208 185.061 4.49046C184.975 4.63652 184.854 4.75172 184.699 4.83281C184.543 4.91391 184.358 4.954 184.144 4.95723C183.93 4.954 183.742 4.91391 183.586 4.83281C183.428 4.75172 183.305 4.63652 183.22 4.49046C183.135 4.34208 183.09 4.16883 183.09 3.97162H181.579C181.589 4.44622 181.702 4.85585 181.921 5.20005C182.142 5.54472 182.443 5.81013 182.828 5.99628C183.212 6.18428 183.654 6.27874 184.157 6.28058Z"/>
    <path d="M62.1514 29.3692V25.2098L63.9044 27.3031H64.7023L66.4699 25.2098V29.3692H68.3643V22.6299H66.3843L64.3031 25.1416L62.237 22.6299H60.2555V29.3692H62.1514Z"/>
    <path fill-rule="evenodd" clip-rule="evenodd" d="M75.381 22.7092C75.8541 22.8802 76.2737 23.1359 76.6443 23.4806C77.3868 24.1695 77.7568 25.0071 77.7563 25.9932C77.7563 26.4992 77.6625 26.9632 77.4787 27.3834C77.2934 27.8045 77.0153 28.187 76.6438 28.5316C76.2733 28.8685 75.8536 29.121 75.3805 29.2901C74.9108 29.4592 74.3861 29.5449 73.8084 29.5449C73.2307 29.5449 72.7061 29.4592 72.2363 29.2901C71.7627 29.121 71.3431 28.8685 70.9716 28.5316C70.6011 28.1874 70.3244 27.805 70.1381 27.3834C69.9529 26.9627 69.8605 26.4992 69.8605 25.9932C69.8605 24.9929 70.231 24.1556 70.9721 23.4806C71.3441 23.1364 71.7632 22.8807 72.2368 22.7092C72.7066 22.5406 73.2317 22.4549 73.8089 22.4549C74.3861 22.4549 74.9108 22.5401 75.381 22.7092ZM75.2195 27.3433C75.4048 27.1613 75.5444 26.9586 75.6382 26.7332C75.7311 26.5098 75.7758 26.2628 75.7753 25.9932C75.7753 25.4527 75.5901 25.0076 75.2195 24.6565C75.0343 24.4736 74.8247 24.339 74.5894 24.2492C74.355 24.1593 74.0929 24.116 73.8084 24.116C73.524 24.116 73.2643 24.1593 73.0299 24.2492C72.7946 24.339 72.5831 24.4736 72.3978 24.6565C72.0273 25.0071 71.842 25.4527 71.842 25.9932C71.842 26.2628 71.8867 26.5102 71.9791 26.7332C72.072 26.9586 72.2125 27.1613 72.3978 27.3433C72.5831 27.5253 72.7941 27.6608 73.0299 27.7506C73.2643 27.8382 73.524 27.8838 73.8084 27.8838C74.0929 27.8838 74.355 27.8386 74.5894 27.7506C74.8252 27.6608 75.0343 27.5253 75.2195 27.3433Z"/>
    <path fill-rule="evenodd" clip-rule="evenodd" d="M85.98 23.4806C86.3 23.8188 86.5402 24.1971 86.6968 24.6173C86.8558 25.0366 86.9346 25.5002 86.9355 26.0066C86.9355 26.5061 86.8568 26.9655 86.6978 27.3857C86.5412 27.805 86.301 28.1874 85.981 28.5321C85.3533 29.2067 84.5553 29.5449 83.5867 29.5449C83.08 29.5449 82.6341 29.4615 82.2466 29.2924C81.859 29.1256 81.5274 28.8763 81.2483 28.545V32.0704H79.2395V22.6305H81.2483V23.4539C81.5123 23.123 81.8405 22.8728 82.2291 22.706C82.6215 22.5383 83.0727 22.4549 83.5862 22.4549C84.071 22.4549 84.512 22.5401 84.9113 22.7092C85.31 22.8802 85.6669 23.1359 85.98 23.4806ZM84.3978 27.3428C84.5762 27.1608 84.7124 26.9585 84.8014 26.7351C84.8937 26.513 84.9395 26.2692 84.9395 26.0057C84.9395 25.7356 84.8937 25.4877 84.8014 25.2656C84.7124 25.0403 84.5762 24.8376 84.3978 24.6556C84.2193 24.4726 84.0136 24.3381 83.7827 24.2482C83.5492 24.1584 83.293 24.1151 83.0153 24.1151C82.7508 24.1174 82.5077 24.1607 82.2811 24.2482C82.056 24.3363 81.8537 24.4551 81.6786 24.6081C81.5026 24.7588 81.3577 24.932 81.2478 25.1283V26.8834C81.3572 27.0797 81.5026 27.2507 81.6786 27.4014C81.8537 27.5497 82.056 27.6668 82.2811 27.7525C82.5096 27.8377 82.7547 27.8801 83.0153 27.8833C83.2935 27.8833 83.5492 27.8382 83.7827 27.7502C84.0136 27.6603 84.2193 27.5248 84.3978 27.3428Z"/>
    <path d="M91.8088 29.5444C92.2294 29.5444 92.6252 29.5034 92.9992 29.42C93.3721 29.3398 93.7251 29.2131 94.0602 29.0449V27.4239C93.7825 27.5787 93.483 27.6934 93.1625 27.7704C92.8411 27.8441 92.4993 27.8828 92.1356 27.8828C91.8302 27.8828 91.5443 27.8395 91.2836 27.752C91.0196 27.6644 90.7818 27.5322 90.5679 27.3552C90.3539 27.1811 90.193 26.9769 90.0865 26.7507C89.979 26.5212 89.9275 26.2687 89.9275 25.9922C89.9275 25.7149 89.979 25.4624 90.0865 25.2361C90.1905 25.0085 90.3471 24.8103 90.5543 24.6412C90.9817 24.2901 91.5088 24.1146 92.1356 24.1146C92.4283 24.1146 92.7278 24.1482 93.0283 24.2164C93.3337 24.2837 93.6391 24.3846 93.9454 24.5196V22.8986C93.6322 22.7502 93.2997 22.6373 92.9505 22.5636C92.5985 22.4889 92.2289 22.453 91.837 22.453C91.3021 22.453 90.8057 22.5341 90.3496 22.6958C89.891 22.8585 89.4714 23.1009 89.0863 23.4252C88.7089 23.7427 88.423 24.1141 88.2334 24.5399C88.0413 24.9647 87.9465 25.4444 87.9465 25.9775C87.9465 26.5115 88.0413 26.9926 88.2334 27.4271C88.423 27.8593 88.7089 28.2395 89.0863 28.5703C89.4636 28.8942 89.8798 29.138 90.3359 29.2997C90.7891 29.4633 91.2817 29.5444 91.8088 29.5444Z"/>
    <path d="M97.7793 29.3692V26.4654L100.587 29.3692H103.182L99.6043 25.6692L102.697 22.6299H100.231L97.7793 25.0872V22.6299H95.7701V29.3692H97.7793Z"/>
    <path fill-rule="evenodd" clip-rule="evenodd" d="M109.357 22.7092C109.829 22.8802 110.25 23.1359 110.62 23.4806C111.361 24.1695 111.731 25.0071 111.732 25.9932C111.732 26.4992 111.639 26.9632 111.454 27.3834C111.268 27.8045 110.991 28.187 110.62 28.5316C110.25 28.8685 109.829 29.121 109.357 29.2901C108.886 29.4592 108.361 29.5449 107.785 29.5449C107.208 29.5449 106.683 29.4592 106.212 29.2901C105.74 29.121 105.319 28.8685 104.949 28.5316C104.578 28.1874 104.3 27.805 104.115 27.3834C103.93 26.9627 103.837 26.4992 103.837 25.9932C103.837 24.9929 104.207 24.1556 104.949 23.4806C105.319 23.1364 105.74 22.8807 106.212 22.7092C106.683 22.5406 107.208 22.4549 107.785 22.4549C108.361 22.4549 108.886 22.5401 109.357 22.7092ZM109.195 27.3433C109.381 27.1613 109.52 26.9586 109.613 26.7332C109.706 26.5098 109.751 26.2628 109.751 25.9932C109.751 25.4527 109.566 25.0076 109.195 24.6565C109.01 24.4736 108.801 24.339 108.565 24.2492C108.331 24.1593 108.069 24.116 107.784 24.116C107.498 24.116 107.24 24.1593 107.004 24.2492C106.77 24.339 106.559 24.4736 106.373 24.6565C106.003 25.0071 105.817 25.4527 105.817 25.9932C105.817 26.2628 105.862 26.5102 105.955 26.7332C106.047 26.9586 106.188 27.1613 106.373 27.3433C106.559 27.5253 106.77 27.6608 107.004 27.7506C107.24 27.8382 107.498 27.8838 107.784 27.8838C108.069 27.8838 108.331 27.8386 108.565 27.7506C108.801 27.6608 109.01 27.5253 109.195 27.3433Z"/>
    <path d="M115.095 29.3692L118.316 25.3982V29.3692H120.297V22.6299H118.416L115.195 26.5995V22.6299H113.214V29.3692H115.095Z"/>
    <path d="M116.749 21.8867C117.113 21.8867 117.448 21.8355 117.752 21.7337C118.058 21.6295 118.33 21.4747 118.574 21.2655C118.815 21.0563 118.998 20.814 119.12 20.532C119.243 20.2523 119.307 19.9348 119.314 19.5777H117.79C117.786 19.7758 117.738 19.9491 117.652 20.0979C117.567 20.244 117.445 20.3592 117.292 20.4403C117.134 20.5205 116.949 20.5615 116.735 20.5638C116.523 20.5615 116.334 20.5205 116.177 20.4403C116.021 20.3592 115.897 20.244 115.812 20.0979C115.727 19.9495 115.681 19.7763 115.681 19.5777H114.171C114.18 20.0523 114.295 20.4619 114.513 20.8061C114.734 21.1508 115.036 21.4162 115.42 21.6037C115.803 21.7904 116.245 21.8844 116.749 21.8867Z"/>
    <path d="M63.7191 44.975V39.8299H65.97V38.2361H59.4863V39.8299H61.7099V44.975H63.7191Z"/>
    <path fill-rule="evenodd" clip-rule="evenodd" d="M72.2039 38.3153C72.676 38.4862 73.0967 38.7429 73.4672 39.0876C74.2082 39.7755 74.5788 40.6132 74.5783 41.5988C74.5783 42.1047 74.4859 42.5683 74.3006 42.9899C74.1154 43.4101 73.8377 43.794 73.4672 44.1372C73.0967 44.4755 72.676 44.7275 72.2039 44.8957C71.7332 45.0648 71.208 45.1505 70.6308 45.1505C70.0536 45.1505 69.529 45.0648 69.0588 44.8957C68.5866 44.7275 68.166 44.4755 67.7954 44.1372C67.4249 43.794 67.1473 43.4101 66.962 42.9899C66.7767 42.5683 66.6839 42.1047 66.6839 41.5988C66.6839 40.5998 67.0544 39.7626 67.7954 39.0876C68.166 38.7434 68.5866 38.4862 69.0588 38.3153C69.5285 38.1462 70.0536 38.0605 70.6308 38.0605C71.208 38.0605 71.7327 38.1462 72.2039 38.3153ZM72.0415 42.9494C72.2267 42.7673 72.3673 42.5646 72.4601 42.3393C72.5525 42.1172 72.5982 41.8688 72.5982 41.5993C72.5982 41.0588 72.412 40.6137 72.0415 40.2625C71.8562 40.0805 71.6471 39.9451 71.4127 39.8552C71.1774 39.7654 70.9168 39.7221 70.6308 39.7221C70.3464 39.7221 70.0877 39.7654 69.8523 39.8552C69.617 39.9451 69.4055 40.0805 69.2202 40.2625C68.8497 40.6132 68.6644 41.0588 68.6644 41.5993C68.6644 41.8688 68.7106 42.1172 68.803 42.3393C68.8954 42.5646 69.0349 42.7673 69.2202 42.9494C69.4055 43.1323 69.617 43.2664 69.8523 43.3576C70.0877 43.4442 70.3464 43.4898 70.6308 43.4898C70.9163 43.4898 71.1774 43.4442 71.4127 43.3576C71.6471 43.2668 71.8562 43.1323 72.0415 42.9494Z"/>
    <path fill-rule="evenodd" clip-rule="evenodd" d="M82.8018 39.0876C83.1232 39.4248 83.362 39.8027 83.5186 40.2243C83.6785 40.6422 83.7563 41.1062 83.7573 41.6122C83.7573 42.113 83.6795 42.5711 83.5195 42.9927C83.363 43.4106 83.1242 43.7944 82.8028 44.1377C82.176 44.8137 81.3781 45.1505 80.4085 45.1505C79.9028 45.1505 79.4559 45.0671 79.0683 44.898C78.6818 44.7321 78.3491 44.4819 78.071 44.1515V47.676H76.0608V38.236H78.071V39.0604C78.3336 38.7291 78.6618 38.4798 79.0518 38.313C79.4442 38.1439 79.8945 38.0605 80.408 38.0605C80.8923 38.0605 81.3338 38.1462 81.733 38.3153C82.1318 38.4862 82.4887 38.7429 82.8018 39.0876ZM81.22 42.9489C81.3975 42.7669 81.5332 42.5641 81.6236 42.3411C81.7165 42.119 81.7612 41.8753 81.7607 41.6112C81.7607 41.3412 81.716 41.0943 81.6236 40.8712C81.5332 40.6459 81.3975 40.4432 81.22 40.2612C81.0416 40.0792 80.8349 39.9437 80.6049 39.8538C80.3715 39.764 80.1157 39.7207 79.8366 39.7207C79.5735 39.723 79.329 39.7663 79.1038 39.8538C78.8772 39.9418 78.6759 40.0607 78.4999 40.2137C78.3239 40.3644 78.1785 40.5376 78.07 40.7339V42.4904C78.1785 42.6858 78.3239 42.8567 78.4999 43.0074C78.6764 43.1567 78.8772 43.2737 79.1038 43.3595C79.3314 43.4438 79.576 43.4871 79.8366 43.4894C80.1157 43.4894 80.3715 43.4438 80.6049 43.3571C80.8349 43.2664 81.0416 43.1318 81.22 42.9489Z"/>
    <path d="M87.2481 44.975V39.8299H90.8829V38.2361H85.2389V44.975H87.2481Z"/>
    <path fill-rule="evenodd" clip-rule="evenodd" d="M97.1864 38.3153C97.6585 38.4862 98.0791 38.7429 98.4496 39.0876C99.1902 39.7755 99.5608 40.6132 99.5603 41.5988C99.5603 42.1047 99.4679 42.5683 99.2826 42.9899C99.0973 43.4101 98.8197 43.794 98.4492 44.1372C98.0786 44.4755 97.658 44.7275 97.1859 44.8957C96.7161 45.0648 96.19 45.1505 95.6138 45.1505C95.0366 45.1505 94.5119 45.0648 94.0407 44.8957C93.5686 44.7275 93.148 44.4755 92.7774 44.1372C92.4069 43.794 92.1293 43.4101 91.944 42.9899C91.7587 42.5683 91.6663 42.1047 91.6663 41.5988C91.6663 40.5998 92.0369 39.7626 92.7779 39.0876C93.1485 38.7434 93.5691 38.4862 94.0412 38.3153C94.5119 38.1462 95.0366 38.0605 95.6143 38.0605C96.1905 38.0605 96.7161 38.1462 97.1864 38.3153ZM97.0249 42.9494C97.2102 42.7673 97.3497 42.5646 97.4421 42.3393C97.535 42.1172 97.5807 41.8688 97.5807 41.5993C97.5807 41.0588 97.3954 40.6137 97.0249 40.2625C96.8396 40.0805 96.6301 39.9451 96.3947 39.8552C96.1594 39.7654 95.8983 39.7221 95.6138 39.7221C95.3279 39.7221 95.0692 39.7654 94.8338 39.8552C94.5995 39.9451 94.3879 40.0805 94.2027 40.2625C93.8321 40.6132 93.6469 41.0588 93.6469 41.5993C93.6469 41.8688 93.6916 42.1172 93.784 42.3393C93.8769 42.5646 94.0174 42.7673 94.2027 42.9494C94.3879 43.1323 94.5995 43.2664 94.8338 43.3576C95.0697 43.4442 95.3279 43.4898 95.6138 43.4898C95.8983 43.4898 96.1594 43.4442 96.3947 43.3576C96.6306 43.2668 96.8396 43.1323 97.0249 42.9494Z"/>
    <path fill-rule="evenodd" clip-rule="evenodd" d="M107.488 42.0541C107.259 41.7638 106.922 41.5449 106.474 41.3966C106.766 41.2546 106.984 41.0662 107.127 40.8266C107.273 40.5902 107.343 40.3022 107.343 39.9654C107.343 39.6341 107.255 39.3369 107.081 39.0779C106.909 38.819 106.653 38.6144 106.312 38.4656C105.976 38.3149 105.557 38.2379 105.063 38.2361H101.044V44.975H105.235C105.787 44.9727 106.256 44.8957 106.642 44.7473C107.027 44.5967 107.321 44.3856 107.523 44.1082C107.725 43.8341 107.825 43.506 107.827 43.1245C107.827 42.7001 107.713 42.3412 107.488 42.0541ZM103.024 39.5461H104.421C104.741 39.5461 104.981 39.6023 105.138 39.717C105.297 39.8318 105.376 40.0055 105.376 40.2349C105.376 40.4644 105.297 40.6358 105.138 40.7505C104.981 40.8676 104.741 40.9238 104.421 40.9238H103.024V39.5461ZM104.735 43.6383C105.083 43.6383 105.345 43.5751 105.517 43.4475C105.689 43.3208 105.775 43.1323 105.775 42.8821C105.775 42.6328 105.689 42.4434 105.517 42.3177C105.345 42.1886 105.083 42.126 104.735 42.126H103.024V43.6383H104.735Z"/>
    <path d="M116.635 38.2361H118.616V44.975H116.635V38.2361Z"/>
    <path fill-rule="evenodd" clip-rule="evenodd" d="M114.397 40.5027C114.834 40.6966 115.173 40.9708 115.413 41.327C115.653 41.6804 115.777 42.1006 115.779 42.5845C115.779 42.9291 115.717 43.2434 115.596 43.5272C115.473 43.8134 115.288 44.07 115.039 44.2999C114.789 44.5229 114.49 44.6907 114.141 44.8036C113.791 44.9188 113.393 44.975 112.944 44.975H109.381V38.2361H111.39V40.2078H112.844C113.44 40.2101 113.958 40.31 114.397 40.5027ZM112.529 43.5028C112.924 43.5005 113.228 43.4203 113.444 43.26C113.658 43.101 113.768 42.8711 113.77 42.5711C113.768 42.272 113.658 42.0398 113.444 41.8753C113.228 41.7117 112.924 41.6283 112.529 41.626H111.39V43.5028H112.529Z"/>
    <path d="M122.464 44.975L125.684 41.0054V44.975H127.666V38.2361H125.784L122.563 42.2071V38.2361H120.583V44.975H122.464Z"/>
    <path d="M124.117 37.4938C124.481 37.4938 124.816 37.4417 125.12 37.3399C125.426 37.2371 125.698 37.0818 125.94 36.8717C126.183 36.6625 126.366 36.4202 126.487 36.1382C126.61 35.8599 126.675 35.5424 126.682 35.1839H125.157C125.153 35.382 125.105 35.5557 125.018 35.7041C124.934 35.8502 124.813 35.9654 124.658 36.0465C124.501 36.1276 124.315 36.1677 124.101 36.17C123.889 36.1677 123.7 36.1276 123.544 36.0465C123.387 35.9654 123.264 35.8502 123.178 35.7041C123.092 35.5557 123.048 35.3825 123.048 35.1839H121.537C121.547 35.6594 121.661 36.0691 121.879 36.4137C122.1 36.757 122.402 37.0238 122.787 37.2099C123.171 37.3966 123.613 37.4919 124.117 37.4938Z"/>
    <path d="M135.29 44.975V39.8299H138.127V44.975H140.135V38.2361H133.281V44.975H135.29Z"/>
    <path fill-rule="evenodd" clip-rule="evenodd" d="M147.152 38.3153C147.624 38.4862 148.044 38.7429 148.415 39.0876C149.156 39.7755 149.527 40.6132 149.526 41.5988C149.526 42.1047 149.434 42.5683 149.248 42.9899C149.063 43.4101 148.785 43.794 148.415 44.1372C148.044 44.4755 147.624 44.7275 147.152 44.8957C146.682 45.0648 146.157 45.1505 145.58 45.1505C145.002 45.1505 144.478 45.0648 144.007 44.8957C143.534 44.7275 143.114 44.4755 142.743 44.1372C142.373 43.794 142.095 43.4101 141.91 42.9899C141.725 42.5683 141.632 42.1047 141.632 41.5988C141.632 40.5998 142.002 39.7626 142.743 39.0876C143.114 38.7434 143.534 38.4862 144.007 38.3153C144.477 38.1462 145.002 38.0605 145.58 38.0605C146.157 38.0605 146.682 38.1462 147.152 38.3153ZM146.991 42.9494C147.176 42.7673 147.316 42.5646 147.408 42.3393C147.5 42.1172 147.546 41.8688 147.546 41.5993C147.546 41.0588 147.361 40.6137 146.991 40.2625C146.806 40.0805 146.596 39.9451 146.361 39.8552C146.126 39.7654 145.865 39.7221 145.58 39.7221C145.294 39.7221 145.036 39.7654 144.8 39.8552C144.564 39.9451 144.354 40.0805 144.169 40.2625C143.798 40.6132 143.613 41.0588 143.613 41.5993C143.613 41.8688 143.658 42.1172 143.75 42.3393C143.843 42.5646 143.984 42.7673 144.169 42.9494C144.354 43.1323 144.565 43.2664 144.8 43.3576C145.036 43.4442 145.294 43.4898 145.58 43.4898C145.865 43.4898 146.126 43.4442 146.361 43.3576C146.596 43.2668 146.805 43.1323 146.991 42.9494Z"/>
    <path fill-rule="evenodd" clip-rule="evenodd" d="M155.357 38.0605C154.843 38.0605 154.392 38.1439 154 38.313C153.611 38.4798 153.283 38.7291 153.019 39.0604V38.236H151.01V47.676H153.019V44.1515C153.297 44.4819 153.63 44.7321 154.017 44.898C154.405 45.0671 154.851 45.1505 155.357 45.1505C156.326 45.1505 157.124 44.8123 157.752 44.1372C158.072 43.7926 158.312 43.4101 158.468 42.9922C158.627 42.5706 158.706 42.1126 158.706 41.6117C158.706 41.1058 158.627 40.6422 158.468 40.2238C158.312 39.8022 158.072 39.4244 157.752 39.0862C157.437 38.7429 157.082 38.4858 156.683 38.3148C156.283 38.1462 155.84 38.0605 155.357 38.0605ZM154.786 39.7216C155.064 39.7216 155.32 39.7649 155.553 39.8548C155.783 39.9446 155.99 40.0801 156.168 40.2621C156.347 40.4441 156.482 40.6468 156.572 40.8722C156.664 41.0943 156.711 41.3426 156.711 41.6122C156.711 41.8753 156.665 42.119 156.572 42.3411C156.482 42.5641 156.347 42.7669 156.168 42.9489C155.99 43.1318 155.783 43.2664 155.553 43.3562C155.32 43.4438 155.064 43.4894 154.786 43.4894C154.525 43.4871 154.279 43.4438 154.052 43.3585C153.827 43.2728 153.624 43.1572 153.448 43.0074C153.273 42.8567 153.128 42.6858 153.018 42.4904V40.7344C153.128 40.5381 153.273 40.3648 153.448 40.2142C153.624 40.0612 153.826 39.9423 154.052 39.8543C154.277 39.7672 154.522 39.7239 154.786 39.7216ZM163.65 39.8299V44.9749H161.641V39.8299H159.418V38.236H165.902V39.8299H163.65Z"/>
    </g>
    <defs>
    <clipPath id="clip0_4002_9284">
    <rect width="187.917" height="50.75" fill="white" transform="translate(0.0416565 0.625)"/>
    </clipPath>
    </defs>
</svg>