<svg width="80" height="84" viewBox="0 0 80 84" fill="none" xmlns="http://www.w3.org/2000/svg">
<path d="M68.125 16.5312H42.3438V3.25C42.3438 2.6284 42.0968 2.03226 41.6573 1.59272C41.2177 1.15318 40.6216 0.90625 40 0.90625C39.3784 0.90625 38.7823 1.15318 38.3427 1.59272C37.9032 2.03226 37.6562 2.6284 37.6562 3.25V16.5312H11.875C8.77016 16.5415 5.79543 17.7795 3.59997 19.975C1.40451 22.1704 0.166548 25.1452 0.15625 28.25V72C0.166548 75.1048 1.40451 78.0796 3.59997 80.275C5.79543 82.4705 8.77016 83.7085 11.875 83.7188H68.125C71.2298 83.7085 74.2046 82.4705 76.4 80.275C78.5955 78.0796 79.8335 75.1048 79.8438 72V28.25C79.8335 25.1452 78.5955 22.1704 76.4 19.975C74.2046 17.7795 71.2298 16.5415 68.125 16.5312ZM75.1562 72C75.146 73.8616 74.4019 75.6441 73.0855 76.9605C71.7691 78.2769 69.9866 79.021 68.125 79.0312H11.875C10.0134 79.021 8.23089 78.2769 6.91449 76.9605C5.59809 75.6441 4.85401 73.8616 4.84375 72V28.25C4.85401 26.3884 5.59809 24.6059 6.91449 23.2895C8.23089 21.9731 10.0134 21.229 11.875 21.2188H68.125C69.9866 21.229 71.7691 21.9731 73.0855 23.2895C74.4019 24.6059 75.146 26.3884 75.1562 28.25V72ZM54.0625 50.9062H25.9375C23.2439 50.9062 20.6606 51.9763 18.7559 53.8809C16.8513 55.7856 15.7812 58.3689 15.7812 61.0625C15.7812 63.7561 16.8513 66.3394 18.7559 68.2441C20.6606 70.1487 23.2439 71.2188 25.9375 71.2188H54.0625C56.7561 71.2188 59.3394 70.1487 61.2441 68.2441C63.1487 66.3394 64.2188 63.7561 64.2188 61.0625C64.2188 58.3689 63.1487 55.7856 61.2441 53.8809C59.3394 51.9763 56.7561 50.9062 54.0625 50.9062ZM45.4688 55.5938V66.5312H34.5312V55.5938H45.4688ZM20.4688 61.0625C20.4688 59.6121 21.0449 58.2211 22.0705 57.1955C23.0961 56.1699 24.4871 55.5938 25.9375 55.5938H29.8438V66.5312H25.9375C24.4871 66.5312 23.0961 65.9551 22.0705 64.9295C21.0449 63.9039 20.4688 62.5129 20.4688 61.0625ZM54.0625 66.5312H50.1562V55.5938H54.0625C55.5129 55.5938 56.9039 56.1699 57.9295 57.1955C58.9551 58.2211 59.5312 59.6121 59.5312 61.0625C59.5312 62.5129 58.9551 63.9039 57.9295 64.9295C56.9039 65.9551 55.5129 66.5312 54.0625 66.5312ZM18.9062 39.1875C18.9062 38.4149 19.1353 37.6597 19.5646 37.0173C19.9938 36.3749 20.6039 35.8743 21.3176 35.5786C22.0314 35.2829 22.8168 35.2056 23.5746 35.3563C24.3323 35.507 25.0283 35.8791 25.5746 36.4254C26.1209 36.9717 26.493 37.6677 26.6437 38.4254C26.7944 39.1832 26.7171 39.9686 26.4214 40.6824C26.1257 41.3961 25.6251 42.0062 24.9827 42.4354C24.3403 42.8647 23.5851 43.0938 22.8125 43.0938C21.7765 43.0938 20.7829 42.6822 20.0504 41.9496C19.3178 41.2171 18.9062 40.2235 18.9062 39.1875ZM53.2812 39.1875C53.2812 38.4149 53.5103 37.6597 53.9396 37.0173C54.3688 36.3749 54.9789 35.8743 55.6926 35.5786C56.4064 35.2829 57.1918 35.2056 57.9496 35.3563C58.7073 35.507 59.4033 35.8791 59.9496 36.4254C60.4959 36.9717 60.868 37.6677 61.0187 38.4254C61.1694 39.1832 61.0921 39.9686 60.7964 40.6824C60.5008 41.3961 60.0001 42.0062 59.3577 42.4354C58.7153 42.8647 57.9601 43.0938 57.1875 43.0938C56.1515 43.0938 55.1579 42.6822 54.4254 41.9496C53.6928 41.2171 53.2812 40.2235 53.2812 39.1875Z" fill="#FF8800"/>
</svg>
