<svg width="100" height="100" viewBox="0 0 100 100" fill="none" xmlns="http://www.w3.org/2000/svg">
<path d="M70.25 11.4585C71.5521 11.4585 72.8249 11.8446 73.9075 12.568C74.9901 13.2914 75.8339 14.3196 76.3322 15.5225C76.8305 16.7255 76.9609 18.0492 76.7068 19.3262C76.4528 20.6032 75.8258 21.7763 74.9051 22.697C73.9844 23.6177 72.8114 24.2447 71.5344 24.4987C70.2573 24.7527 68.9336 24.6223 67.7307 24.1241C66.5277 23.6258 65.4995 22.782 64.7762 21.6994C64.0528 20.6167 63.6667 19.3439 63.6667 18.0419C63.6639 17.1766 63.8323 16.3192 64.1622 15.5193C64.4921 14.7193 64.9769 13.9925 65.5887 13.3806C66.2006 12.7687 66.9275 12.2839 67.7274 11.9541C68.5274 11.6242 69.3847 11.4558 70.25 11.4585V11.4585ZM44.7292 24.521H61.3958C61.7022 24.5198 62.0057 24.58 62.2884 24.6981C62.5711 24.8162 62.8272 24.9897 63.0417 25.2085L73.9583 36.0835L81.5833 26.8127C81.9625 26.3469 82.5109 26.0503 83.1083 25.9878C83.7057 25.9253 84.3035 26.1021 84.7708 26.4794L86.3333 27.6252C86.5777 27.8121 86.7816 28.0467 86.9326 28.3148C87.0836 28.5828 87.1785 28.8788 87.2117 29.1847C87.2448 29.4906 87.2154 29.8 87.1253 30.0942C87.0352 30.3884 86.8863 30.6612 86.6875 30.896L76.0833 43.7502C75.8808 43.9962 75.6288 44.1968 75.3437 44.3389C75.0585 44.4811 74.7467 44.5617 74.4283 44.5754C74.11 44.5892 73.7924 44.5358 73.496 44.4188C73.1997 44.3017 72.9313 44.1236 72.7083 43.896L64.9583 36.521L55 47.5627L64.9375 57.5835C65.2073 57.8506 65.4044 58.1822 65.5101 58.5468C65.6158 58.9113 65.6267 59.2969 65.5417 59.6669L59.8542 86.7502C59.7938 87.0569 59.6707 87.3479 59.4926 87.6049C59.3146 87.8618 59.0854 88.0793 58.8194 88.2435C58.5534 88.4078 58.2564 88.5154 57.9469 88.5596C57.6374 88.6037 57.3222 88.5835 57.0208 88.5002L54.1667 87.7085C53.5995 87.5652 53.1104 87.2066 52.8032 86.7088C52.496 86.211 52.3947 85.6131 52.5208 85.0419L57.3542 62.9377L46.9375 52.521L36.6458 64.0835C36.4901 64.2495 36.3153 64.3963 36.125 64.521C35.5778 64.9332 34.9306 65.1921 34.25 65.271H15.2083C14.5765 65.2711 13.9703 65.0215 13.5215 64.5767C13.0728 64.1319 12.818 63.5278 12.8125 62.896V60.5419C12.8428 59.9162 13.105 59.3243 13.5479 58.8814C13.9908 58.4385 14.5827 58.1764 15.2083 58.146H30.7708L53.5 30.6252H46.3125L36.75 42.5835C36.3789 43.056 35.8476 43.3762 35.2565 43.4837C34.6654 43.5912 34.0553 43.4785 33.5417 43.1669L32.2917 42.2085C32.0556 42.0223 31.8593 41.7906 31.7143 41.5271C31.5693 41.2637 31.4786 40.9738 31.4475 40.6748C31.4164 40.3757 31.4456 40.0734 31.5334 39.7858C31.6211 39.4981 31.7656 39.231 31.9583 39.0002L42.9583 25.5419C43.1685 25.2705 43.4365 25.0493 43.7428 24.8943C44.0491 24.7394 44.386 24.6546 44.7292 24.646V24.521Z" stroke="#FF8800" stroke-width="4" stroke-linecap="round" stroke-linejoin="round"/>
</svg>
