<svg width="415" height="362" viewBox="0 0 415 362" fill="none" xmlns="http://www.w3.org/2000/svg">
<path d="M325.394 99.8147C376.364 118.878 412.563 167.211 412.563 223.818C412.563 297.109 351.896 356.515 277.048 356.515C239.513 356.515 205.542 341.571 181 317.428L222.89 241.804C230.541 263.897 251.902 279.8 277.048 279.8C308.623 279.8 334.219 254.736 334.219 223.818C334.219 196.178 313.757 173.211 286.859 168.657L325.394 99.8147Z" fill="white"/>
<path d="M194.207 95.7862C219.353 79.4562 250.056 72.4576 278.108 72.4576C292.899 72.4576 301.389 73.7127 315.696 77.3862L356.721 4.03589H245.553L194.207 95.7862Z" fill="white"/>
<path d="M305.795 94.5147L263.126 170.723C255.67 172.34 251.463 174.081 245.081 178.189C236.376 183.787 234.893 187.086 227.061 197.469L182.245 277.713C169.662 300.207 150.771 327.104 107.887 346.279C71.3729 362.616 34.2141 359.659 4.16895 350.557L45.6362 277.207C58.9106 279.651 67.655 278.699 80.057 273.455C94.1903 267.488 101.848 260.548 109.015 247.215L164.387 149.669C169.897 142.341 190.352 111.811 233.725 98.3852C261.039 89.9344 283.951 90.2301 305.795 94.5147Z" fill="white"/>
</svg>
