<svg width="236" height="36" viewBox="0 0 236 36" fill="none" xmlns="http://www.w3.org/2000/svg">
<path d="M33.3688 7.50024C34.2312 8.55492 34.9614 9.70074 35.5443 10.9147L19.0066 22.446L12.0951 18.3478V13.4176L19.0066 17.5157L33.3688 7.50024Z" fill="white"/>
<path d="M5.04129 17.9999C5.04129 17.7786 5.04699 17.5589 5.0584 17.3404L0.869797 17.1462C0.85554 17.4294 0.84699 17.7153 0.84699 18.0038C0.845208 20.2584 1.31403 22.491 2.22658 24.5737C3.13913 26.6565 4.47743 28.5483 6.16471 30.1406L9.13579 27.3316C7.83698 26.1081 6.80663 24.6537 6.10395 23.0522C5.40128 21.4508 5.04014 19.7337 5.04129 17.9999Z" fill="white"/>
<path d="M19.0028 4.79398C19.2366 4.79398 19.4689 4.80207 19.6998 4.81286L19.9094 0.849543C19.6092 0.836058 19.3069 0.829316 19.0028 0.829316C16.6181 0.826565 14.2565 1.26938 12.0534 2.13235C9.85026 2.99531 7.84904 4.26142 6.16465 5.85798L9.13573 8.6683C10.4294 7.43936 11.967 6.4644 13.6604 5.79951C15.3537 5.13462 17.1693 4.79289 19.0028 4.79398Z" fill="white"/>
<path d="M19.0028 31.206C18.769 31.206 18.5366 31.206 18.3043 31.1885L18.0947 35.1504C18.396 35.1648 18.6987 35.1721 19.0028 35.1721C21.3864 35.1744 23.7469 34.7313 25.9489 33.8681C28.1508 33.0049 30.1508 31.7386 31.8339 30.1421L28.8685 27.3331C27.5746 28.5614 26.0371 29.5358 24.3441 30.2004C22.6511 30.8651 20.8359 31.2069 19.0028 31.206Z" fill="white"/>
<path d="M26.8726 7.09831L30.4025 4.63725C27.1761 2.16602 23.1488 0.820777 18.9972 0.827663V4.79367C21.8084 4.79038 24.5544 5.59398 26.8726 7.09831Z" fill="white"/>
<path d="M37.1574 17.9999C37.1596 16.9681 37.0642 15.9382 36.8722 14.9225L32.9645 17.6465C32.9645 17.7639 32.9645 17.8812 32.9645 17.9999C32.9655 19.845 32.5566 21.6698 31.7643 23.3559C30.972 25.042 29.8139 26.5518 28.3653 27.7874L31.1838 30.734C33.0672 29.1258 34.5722 27.1611 35.6013 24.9674C36.6304 22.7737 37.1605 20.3998 37.1574 17.9999Z" fill="white"/>
<path d="M19.0028 31.206C17.0519 31.2066 15.1228 30.8197 13.34 30.0703C11.5573 29.321 9.96082 28.2257 8.65399 26.8557L5.54035 29.5203C7.24039 31.3021 9.31737 32.7259 11.6366 33.6996C13.9558 34.6731 16.4654 35.1749 19.0028 35.1721V31.206Z" fill="white"/>
<path d="M9.64049 8.21218L6.82338 5.26565C4.93946 6.8736 3.4339 8.83815 2.40432 11.0319C1.37476 13.2256 0.844178 15.5996 0.846996 17.9998L5.04129 17.9999C5.04042 16.1548 5.4494 14.3299 6.24169 12.6438C7.03398 10.9578 8.19192 9.44794 9.64049 8.21218Z" fill="white"/>
<path d="M105.618 10.6481L110.813 7.06906H93.4272V28.576H110.813V24.997H98.388V19.4879H108.987V15.9089H98.388V10.6481H105.618Z" fill="white"/>
<path d="M81.7291 15.4474H75.6932V10.6467H85.3263L90.5178 7.05676H70.7354V28.5637H81.0906C86.8963 28.5637 90.2282 26.1029 90.2282 21.8114C90.2282 17.7058 87.2103 15.4474 81.7291 15.4474ZM80.8673 24.9835H75.6932V19.0242H80.8673C84.0074 19.0242 85.4797 20.0229 85.4797 22.0039C85.4797 23.9849 83.9132 24.9835 80.8673 24.9835Z" fill="white"/>
<path d="M123.592 7.06598H114.129V28.5728H119.089V22.4803H123.592C129.63 22.4803 133.365 19.5091 133.365 14.7617C133.365 10.0143 129.63 7.06598 123.592 7.06598ZM123.488 18.8986H119.089V10.6477H123.488C126.664 10.6477 128.416 12.1138 128.416 14.7748C128.416 17.4358 126.664 18.8986 123.488 18.8986Z" fill="white"/>
<path d="M63.2917 23.4973C62.0103 24.1462 60.5747 24.4822 59.1177 24.4743C54.7568 24.4743 51.5931 21.5627 51.5931 17.5535C51.5931 13.5442 54.7568 10.6263 59.1177 10.6263C60.6903 10.6013 62.2304 11.0473 63.5127 11.8991L66.9825 9.50945L66.7478 9.35354C64.7238 7.68937 62.0194 6.80797 58.9239 6.80797C55.5663 6.80797 52.5218 7.86438 50.3481 9.78629C49.249 10.7758 48.3798 11.9667 47.7945 13.2844C47.2092 14.6022 46.9205 16.0185 46.9464 17.4452C46.9232 18.8865 47.2106 20.3173 47.7915 21.6524C48.3725 22.9875 49.235 24.1993 50.3277 25.2157C52.5116 27.2139 55.5493 28.3148 58.883 28.3148C62.3664 28.3148 65.411 27.1788 67.4724 25.1107L64.3666 22.9469L63.2917 23.4973Z" fill="white"/>
<path d="M153.034 15.4474H147V10.6467H159.966V7.05676H142.039V28.5637H152.381C158.186 28.5637 161.518 26.1029 161.518 21.8114C161.532 17.7058 158.515 15.4474 153.034 15.4474ZM152.172 24.9835H147V19.0242H152.172C155.312 19.0242 156.783 20.0229 156.783 22.0039C156.783 23.9849 155.231 24.9835 152.172 24.9835Z" fill="white"/>
<path d="M217.912 28.5329H212.884V7.026H217.912V16.059H220.649L228.041 7.026H233.74L224.973 17.2571L235.153 28.5329H228.481L220.998 20.0744H217.912V28.5329Z" fill="white"/>
<path d="M179.788 24.4457H169.15L167.347 28.6221H161.995L171.973 7.1152H177.323L187.139 28.6221H181.592L179.788 24.4457ZM178.122 20.5488L174.501 12.196L170.859 20.5488H178.122Z" fill="white"/>
<path d="M193.909 7.1152V16.0961H204.316V7.1152H209.501V28.6221H204.316V20.1476H193.909V28.6221H188.724V7.1152H193.909Z" fill="white"/>
</svg>
