<svg>
    <symbol id="logo" viewBox="0 0 160 32" fill="none" xmlns="http://www.w3.org/2000/svg">
        <g clip-path="url(#clip0_34_36)">
        <path d="M39.8607 1.06787L28.3878 30.8404H36.3059L37.9849 26.1617H50.09L51.769 30.8404H59.687L48.183 1.06787H39.8607ZM40.2857 19.7721L43.2809 11.1646C43.6436 10.2035 43.8923 9.16846 44.0478 8.144C44.2033 9.16846 44.4416 10.2035 44.8147 11.1646L47.8099 19.7721H40.2857Z" fill="#181D27"/>
        <path d="M149.957 15.3469L140.941 1.06787H130.691L140.111 15.3469L130.079 30.8404H139.075L145.014 20.8599L150.942 30.8404H160L149.957 15.3469Z" fill="#181D27"/>
        <path d="M103.744 1.06787H92.1886V30.8721H99.8994V21.5147H103.724C110.937 21.483 116.451 19.149 116.451 11.2913C116.44 3.43362 110.958 1.06787 103.744 1.06787ZM104.118 14.6921H99.889V7.8694H104.107C106.46 7.8694 108.543 8.58758 108.543 11.2702C108.543 13.9422 106.47 14.6921 104.118 14.6921Z" fill="#181D27"/>
        <path d="M150.258 0.881348H159.192V9.98526H150.258V0.881348Z" fill="#FF8800"/>
        <path d="M19.0603 24.5139C18.4177 24.6723 17.7441 24.7357 17.0704 24.7357C13.7332 24.7357 8.4165 23.331 8.4165 15.9803C8.4165 9.86524 12.8834 7.37275 17.5886 7.37275C20.5216 7.37275 23.465 8.21766 25.6622 9.7385V2.29272C22.7913 1.07816 19.734 0.423359 16.6144 0.423359C8.44759 0.412797 0.498413 4.83802 0.498413 15.938C0.498413 26.7529 8.38541 31.4633 16.7077 31.4633C20.0449 31.4316 23.3095 30.7768 26.398 29.4672V14.47H19.0603V24.5139Z" fill="#181D27"/>
        <path d="M81.2027 20.0252C84.4155 18.7156 86.7993 16.033 86.7993 11.0797C86.7993 3.22203 80.7467 1.04639 74.8082 1.04639H62.4854V30.8189H70.2273V21.1553H73.5645L80.5394 30.8506H89.2555L81.2027 20.0252ZM75.1502 14.7551H70.2273V7.86904H75.1191C77.3266 7.86904 78.819 9.02023 78.819 11.3332C78.819 13.6356 77.3577 14.7551 75.1502 14.7551Z" fill="#181D27"/>
        <path d="M120.047 30.8404H127.789V1.06787H120.047V30.8404Z" fill="#181D27"/>
        </g>
        <defs>
        <clipPath id="clip0_34_36">
        <rect width="160" height="32" fill="white"/>
        </clipPath>
        </defs>
    </symbol>

    <symbol id="arrow-cirlce" viewBox="0 0 50 77" fill="none" xmlns="http://www.w3.org/2000/svg">
        <rect x="23.595" y="0.830322" width="1.98517" height="73.9245" fill="#181D27"/>
        <rect width="1.99157" height="34.7801" transform="matrix(0.705097 -0.70911 0.705097 0.70911 0.0917358 52.1674)" fill="#181D27"/>
        <rect width="1.99157" height="32.9481" transform="matrix(-0.704833 -0.709374 -0.704833 0.709374 49.0917 52.1921)" fill="#181D27"/>
    </symbol>
    
    <symbol id="cirlce" viewBox="0 0 163 163" fill="none" xmlns="http://www.w3.org/2000/svg">
        <path d="M45.5931 24.5911L44.2909 25.2254L39.0048 14.3734L40.307 13.739L42.5951 18.4364L45.0601 17.2357L46.0431 10.9449L47.5314 10.22L46.4168 17.3038L53.143 20.9134L51.6548 21.6384L45.7107 18.4533L43.1993 19.6766L45.5931 24.5911Z" fill="#181D27"/>
        <path d="M56.0743 7.21545L63.968 5.23085L64.3043 6.56876L57.8155 8.20017L58.7699 11.9965L64.7571 10.4912L65.0935 11.8291L59.1063 13.3344L60.086 17.231L66.6752 15.5744L67.0116 16.9123L59.0176 18.9221L56.0743 7.21545Z" fill="#181D27"/>
        <path d="M82.4568 15.6055L83.9047 15.5647L83.5649 3.4985L82.2204 3.53636L75.2348 13.3765L74.9634 3.74074L73.5155 3.78152L73.8553 15.8477L75.1998 15.8099L82.1849 5.95252L82.4568 15.6055ZM80.8914 1.67617C80.227 2.17791 79.4294 2.44189 78.4985 2.46811C77.5677 2.49432 76.7565 2.27565 76.0649 1.8121L76.027 0.467576C76.8112 0.951524 77.6228 1.18169 78.4617 1.15806C79.3005 1.13443 80.0978 0.858962 80.8535 0.331646L80.8914 1.67617Z" fill="#181D27"/>
        <path d="M91.9258 10.247C92.185 8.93885 92.7197 7.86695 93.5298 7.03129C94.3422 6.18436 95.2554 5.62695 96.2695 5.35908C97.2836 5.09122 98.3207 5.06229 99.3807 5.27232C100.599 5.51362 101.657 5.9987 102.556 6.72757L102.274 8.14847C101.531 7.40354 100.556 6.91154 99.3494 6.67247C97.9962 6.40436 96.7407 6.58925 95.583 7.22713C94.4275 7.85373 93.6877 8.9553 93.3637 10.5318C93.1648 11.5355 93.2465 12.4541 93.6087 13.2876C93.9822 14.1234 94.5087 14.7786 95.1882 15.2531C95.879 15.7298 96.6529 16.0531 97.51 16.2229C98.7843 16.4753 99.8844 16.3944 100.81 15.9802L100.529 17.4011C99.3975 17.7278 98.2004 17.766 96.9374 17.5158C96.1818 17.3661 95.4632 17.0889 94.7816 16.6843C94.1022 16.2685 93.5117 15.7589 93.0101 15.1555C92.5107 14.5409 92.1577 13.8088 91.951 12.9592C91.7465 12.0983 91.7382 11.1942 91.9258 10.247Z" fill="#181D27"/>
        <path d="M110.866 21.6876L107.121 19.9676L112.159 8.9981L113.475 9.60264L111.683 13.5046L114.112 14.6202C117.215 16.0452 118.227 17.933 117.147 20.2836C116.063 22.6446 113.969 23.1126 110.866 21.6876ZM111.107 14.7583L109.013 19.3184L111.505 20.4628C111.996 20.6883 112.439 20.8536 112.833 20.9589C113.232 21.0537 113.619 21.0923 113.994 21.0747C114.384 21.0515 114.733 20.9268 115.039 20.7006C115.35 20.464 115.609 20.121 115.815 19.6718C116.208 18.8152 116.187 18.0906 115.751 17.498C115.33 16.8998 114.612 16.368 113.599 15.9026L111.107 14.7583ZM118.043 24.9838L116.727 24.3793L121.765 13.4098L123.081 14.0144L118.043 24.9838Z" fill="#181D27"/>
        <path d="M116.796 138.056L118.098 137.422L123.384 148.274L122.082 148.908L119.794 144.211L117.329 145.412L116.346 151.703L114.858 152.428L115.972 145.344L109.246 141.734L110.734 141.009L116.678 144.194L119.19 142.971L116.796 138.056Z" fill="#181D27"/>
        <path d="M106.315 155.432L98.4211 157.417L98.0847 156.079L104.574 154.447L103.619 150.651L97.632 152.156L97.2956 150.818L103.283 149.313L102.303 145.416L95.7139 147.073L95.3775 145.735L103.371 143.725L106.315 155.432Z" fill="#181D27"/>
        <path d="M79.9323 147.042L78.4843 147.083L78.8242 159.149L80.1687 159.111L87.1543 149.271L87.4257 158.907L88.8736 158.866L88.5338 146.8L87.1893 146.838L80.2041 156.695L79.9323 147.042ZM81.4977 160.971C82.1621 160.47 82.9597 160.206 83.8905 160.179C84.8213 160.153 85.6325 160.372 86.3241 160.835L86.362 162.18C85.5778 161.696 84.7663 161.466 83.9274 161.489C83.0885 161.513 82.2912 161.789 81.5355 162.316L81.4977 160.971Z" fill="#181D27"/>
        <path d="M70.4632 152.401C70.2041 153.709 69.6694 154.781 68.8592 155.616C68.0469 156.463 67.1336 157.021 66.1195 157.288C65.1055 157.556 64.0684 157.585 63.0084 157.375C61.7904 157.134 60.7322 156.649 59.8335 155.92L60.115 154.499C60.8581 155.244 61.833 155.736 63.0397 155.975C64.3929 156.243 65.6484 156.058 66.8061 155.42C67.9616 154.794 68.7013 153.692 69.0254 152.116C69.2243 151.112 69.1426 150.193 68.7803 149.36C68.4068 148.524 67.8803 147.869 67.2008 147.394C66.5101 146.918 65.7362 146.594 64.8791 146.425C63.6048 146.172 62.5047 146.253 61.5788 146.667L61.8603 145.246C62.9916 144.92 64.1887 144.881 65.4517 145.132C66.2073 145.281 66.9258 145.559 67.6075 145.963C68.2868 146.379 68.8773 146.889 69.3789 147.492C69.8783 148.107 70.2314 148.839 70.4381 149.688C70.6425 150.549 70.6509 151.453 70.4632 152.401Z" fill="#181D27"/>
        <path d="M51.5227 140.96L55.268 142.68L50.2301 153.649L48.9138 153.045L50.7059 149.143L48.2769 148.027C45.1741 146.602 44.1625 144.715 45.242 142.364C46.3264 140.003 48.42 139.535 51.5227 140.96ZM51.2816 147.889L53.3759 143.329L50.8843 142.185C50.3933 141.959 49.9506 141.794 49.5561 141.689C49.1569 141.594 48.7698 141.555 48.3949 141.573C48.0047 141.596 47.6565 141.721 47.3502 141.947C47.0391 142.183 46.7804 142.526 46.574 142.976C46.1806 143.832 46.202 144.557 46.6383 145.149C47.0594 145.748 47.7766 146.279 48.79 146.745L51.2816 147.889ZM44.3456 137.664L45.6619 138.268L40.624 149.238L39.3077 148.633L44.3456 137.664Z" fill="#181D27"/>
        <path d="M137.927 45.7222L137.293 44.42L148.145 39.1339L148.779 40.4361L144.082 42.7242L145.282 45.1892L151.573 46.1722L152.298 47.6605L145.214 46.5459L141.605 53.2721L140.88 51.7838L144.065 45.8398L142.842 43.3284L137.927 45.7222Z" fill="#181D27"/>
        <path d="M155.303 56.2034L157.287 64.0971L155.949 64.4334L154.318 57.9446L150.522 58.899L152.027 64.8862L150.689 65.2225L149.184 59.2354L145.287 60.2151L146.944 66.8043L145.606 67.1407L143.596 59.1467L155.303 56.2034Z" fill="#181D27"/>
        <path d="M146.913 82.5859L146.953 84.0338L159.02 83.694L158.982 82.3495L149.142 75.3639L158.777 75.0925L158.737 73.6446L146.67 73.9844L146.708 75.3289L156.566 82.314L146.913 82.5859ZM160.842 81.0205C160.34 80.3561 160.076 79.5585 160.05 78.6276C160.024 77.6968 160.243 76.8856 160.706 76.194L162.051 76.1561C161.567 76.9403 161.337 77.7519 161.36 78.5907C161.384 79.4296 161.659 80.2269 162.187 80.9826L160.842 81.0205Z" fill="#181D27"/>
        <path d="M152.271 92.0549C153.579 92.3141 154.651 92.8487 155.487 93.6589C156.334 94.4713 156.891 95.3845 157.159 96.3986C157.427 97.4127 157.456 98.4497 157.246 99.5098C157.005 100.728 156.519 101.786 155.791 102.685L154.37 102.403C155.115 101.66 155.607 100.685 155.846 99.4785C156.114 98.1252 155.929 96.8698 155.291 95.7121C154.664 94.5566 153.563 93.8168 151.986 93.4927C150.983 93.2939 150.064 93.3756 149.231 93.7378C148.395 94.1113 147.74 94.6378 147.265 95.3173C146.788 96.0081 146.465 96.782 146.295 97.639C146.043 98.9133 146.124 100.013 146.538 100.939L145.117 100.658C144.79 99.5266 144.752 98.3295 145.002 97.0664C145.152 96.3109 145.429 95.5923 145.834 94.9107C146.25 94.2313 146.759 93.6408 147.363 93.1392C147.977 92.6398 148.709 92.2868 149.559 92.0801C150.42 91.8756 151.324 91.8672 152.271 92.0549Z" fill="#181D27"/>
        <path d="M140.831 110.995L142.551 107.25L153.52 112.288L152.916 113.604L149.014 111.812L147.898 114.241C146.473 117.344 144.585 118.356 142.235 117.276C139.874 116.192 139.406 114.098 140.831 110.995ZM147.76 111.237L143.2 109.142L142.055 111.634C141.83 112.125 141.665 112.568 141.559 112.962C141.464 113.361 141.426 113.748 141.443 114.123C141.467 114.513 141.591 114.862 141.818 115.168C142.054 115.479 142.397 115.738 142.846 115.944C143.703 116.338 144.428 116.316 145.02 115.88C145.618 115.459 146.15 114.742 146.616 113.728L147.76 111.237ZM137.534 118.173L138.139 116.856L149.108 121.894L148.504 123.21L137.534 118.173Z" fill="#181D27"/>
        <path d="M24.462 116.925L25.0963 118.228L14.2443 123.514L13.61 122.211L18.3073 119.923L17.1066 117.458L10.8159 116.475L10.0909 114.987L17.1747 116.102L20.7844 109.375L21.5093 110.864L18.3242 116.808L19.5476 119.319L24.462 116.925Z" fill="#181D27"/>
        <path d="M7.08638 106.444L5.10178 98.5504L6.43969 98.214L8.0711 104.703L11.8674 103.748L10.3621 97.7613L11.7 97.4249L13.2053 103.412L17.102 102.432L15.4453 95.8432L16.7832 95.5068L18.7931 103.501L7.08638 106.444Z" fill="#181D27"/>
        <path d="M15.4764 80.0616L15.4357 78.6137L3.36944 78.9535L3.4073 80.298L13.2474 87.2836L3.61168 87.555L3.65246 89.0029L15.7187 88.6631L15.6808 87.3186L5.82346 80.3335L15.4764 80.0616ZM1.5471 81.627C2.04885 82.2914 2.31283 83.089 2.33904 84.0198C2.36526 84.9507 2.14659 85.7619 1.68303 86.4535L0.33851 86.4913C0.822459 85.7072 1.05262 84.8956 1.029 84.0567C1.00537 83.2178 0.729899 82.4205 0.202582 81.6648L1.5471 81.627Z" fill="#181D27"/>
        <path d="M10.1179 70.5926C8.80979 70.3334 7.7379 69.7987 6.90224 68.9886C6.0553 68.1762 5.4979 67.263 5.23003 66.2489C4.96216 65.2348 4.93324 64.1977 5.14326 63.1377C5.38457 61.9198 5.86965 60.8615 6.59852 59.9629L8.01942 60.2444C7.27449 60.9875 6.78249 61.9624 6.54342 63.169C6.27531 64.5222 6.46019 65.7777 7.09807 66.9354C7.72468 68.0909 8.82625 68.8307 10.4028 69.1548C11.4064 69.3536 12.3251 69.2719 13.1586 68.9097C13.9944 68.5362 14.6495 68.0097 15.124 67.3302C15.6007 66.6394 15.924 65.8655 16.0938 65.0085C16.3463 63.7342 16.2654 62.6341 15.8511 61.7082L17.272 61.9897C17.5987 63.1209 17.637 64.318 17.3867 65.5811C17.237 66.3366 16.9599 67.0552 16.5553 67.7368C16.1394 68.4162 15.6298 69.0067 15.0265 69.5083C14.4119 70.0077 13.6798 70.3607 12.8302 70.5674C11.9693 70.7719 11.0652 70.7803 10.1179 70.5926Z" fill="#181D27"/>
        <path d="M21.5586 51.6521L19.8385 55.3974L8.86906 50.3595L9.4736 49.0432L13.3756 50.8352L14.4911 48.4063C15.9161 45.3035 17.8039 44.2919 20.1545 45.3714C22.5156 46.4558 22.9836 48.5493 21.5586 51.6521ZM14.6292 51.411L19.1894 53.5053L20.3337 51.0137C20.5592 50.5227 20.7246 50.0799 20.8299 49.6855C20.9247 49.2863 20.9633 48.8992 20.9457 48.5242C20.9225 48.1341 20.7978 47.7858 20.5716 47.4795C20.3349 47.1684 19.992 46.9097 19.5428 46.7034C18.6861 46.31 17.9615 46.3314 17.369 46.7677C16.7708 47.1888 16.239 47.906 15.7736 48.9193L14.6292 51.411ZM24.8548 44.475L24.2503 45.7913L13.2808 40.7534L13.8854 39.4371L24.8548 44.475Z" fill="#181D27"/>
        <rect x="27.7409" y="23.114" width="6.89644" height="6.899" transform="matrix(0.707371 0.707107 -0.706842 0.707107 24.4558 -12.8458)" fill="#FF8800"/>
        <rect x="133.117" y="128.451" width="6.89644" height="6.899" transform="matrix(0.707371 0.707107 -0.706842 0.707107 129.749 -56.5059)" fill="#FF8800"/>
        <rect x="137.976" y="27.9709" width="6.89901" height="6.89643" transform="matrix(-0.706843 0.707107 -0.707371 -0.707107 255.289 -49.8143)" fill="#FF8800"/>
        <rect x="32.6393" y="133.347" width="6.89901" height="6.89643" transform="matrix(-0.706843 0.707107 -0.707371 -0.707107 150.036 204.558)" fill="#FF8800"/>
    </symbol>

    <symbol id="cirlce-awards" viewBox="0 0 200 200" fill="none" xmlns="http://www.w3.org/2000/svg">
        <rect x="31.85" y="27.0527" width="6.78413" height="6.78413" transform="rotate(45 31.85 27.0527)" fill="#FF8800"/>
        <rect x="168.647" y="163.85" width="6.78413" height="6.78413" transform="rotate(45 168.647 163.85)" fill="#FF8800"/>
        <rect x="173.444" y="31.8501" width="6.78413" height="6.78413" transform="rotate(135 173.444 31.8501)" fill="#FF8800"/>
        <rect x="36.6472" y="168.646" width="6.78413" height="6.78413" transform="rotate(135 36.6472 168.646)" fill="#FF8800"/>
        <path d="M150.835 187.391L149.606 188.113L143.596 177.874L144.825 177.153L147.495 181.702L153.565 178.138L150.894 173.59L152.123 172.868L158.133 183.107L156.905 183.828L154.252 179.309L148.182 182.872L150.835 187.391Z" fill="white"/>
        <path d="M136.603 181.151L138.056 180.63L137.2 193.552L135.716 194.085L126.85 184.654L128.287 184.138L130.405 186.423L136.423 184.262L136.603 181.151ZM135.994 191.949L136.343 185.696L131.379 187.479L135.643 192.075C135.683 192.12 135.793 192.243 135.973 192.443C135.981 192.163 135.988 191.999 135.994 191.949Z" fill="white"/>
        <path d="M119.387 186.338L120.789 186.087L122.879 197.774L115.199 199.147L114.96 197.811L121.238 196.689L119.387 186.338Z" fill="white"/>
        <path d="M106.951 199.944L102.898 199.999C99.54 200.045 97.8437 198.79 97.8089 196.235C97.7741 193.68 99.4356 192.379 102.793 192.333L105.422 192.298L105.365 188.092L106.789 188.073L106.951 199.944ZM99.2504 196.215C99.257 196.701 99.353 197.107 99.5384 197.432C99.7239 197.769 99.9874 198.02 100.329 198.185C100.659 198.361 101.023 198.481 101.419 198.543C101.816 198.617 102.28 198.65 102.812 198.643L105.508 198.606L105.441 193.654L102.744 193.691C101.647 193.706 100.791 193.899 100.174 194.269C99.5456 194.639 99.2378 195.288 99.2504 196.215Z" fill="white"/>
        <path d="M90.8799 187.683L92.4027 187.934L85.3681 198.807L83.8118 198.551L80.655 185.998L82.1611 186.246L82.8999 189.273L89.2089 190.313L90.8799 187.683ZM85.094 196.82L88.4415 191.527L83.2371 190.669L84.7259 196.759C84.739 196.818 84.7755 196.979 84.8355 197.241C84.9782 197.001 85.0644 196.861 85.094 196.82Z" fill="white"/>
        <path d="M75.5117 181.716L76.7865 182.18L75.3642 186.085L74.0097 185.591C72.0013 187.338 70.1959 190.411 68.5936 194.809L61.7412 192.313L65.3406 182.433L63.9382 181.922L65.3606 178.018L66.6354 178.482L65.6775 181.112L74.5538 184.345L75.5117 181.716ZM67.6876 193.035C69.3688 189.147 70.9768 186.484 72.5117 185.045L66.6792 182.921L63.5443 191.526L67.6876 193.035Z" fill="white"/>
        <path d="M54.9954 175.682L58.4817 177.75L52.4249 187.961L51.1996 187.234L53.3541 183.602L51.093 182.261C48.2048 180.548 47.4096 178.597 48.7075 176.409C50.0112 174.211 52.1071 173.969 54.9954 175.682ZM54.0463 182.435L56.5642 178.19L54.2448 176.815C53.7878 176.543 53.3717 176.336 52.9968 176.193C52.616 176.059 52.2414 175.981 51.8728 175.96C51.4888 175.942 51.1353 176.028 50.8125 176.218C50.4838 176.418 50.1955 176.726 49.9474 177.144C49.4744 177.942 49.4208 178.653 49.7865 179.277C50.1368 179.906 50.7836 180.5 51.7269 181.059L54.0463 182.435ZM48.3145 171.719L49.5398 172.446L43.4829 182.657L42.2576 181.93L48.3145 171.719Z" fill="white"/>
        <path d="M187.391 49.2756L188.113 50.5042L177.874 56.5146L177.153 55.286L181.702 52.6156L178.138 46.5458L173.59 49.2161L172.868 47.9875L183.107 41.9771L183.828 43.2057L179.308 45.8588L182.872 51.9287L187.391 49.2756Z" fill="white"/>
        <path d="M181.151 63.5074L180.629 62.0549L193.551 62.9101L194.085 64.3946L184.654 73.2602L184.138 71.8236L186.423 69.7055L184.262 63.6878L181.151 63.5074ZM191.948 64.1166L185.696 63.7674L187.479 68.7315L192.075 64.4678C192.12 64.4274 192.243 64.3173 192.442 64.1374C192.163 64.1296 191.999 64.1226 191.948 64.1166Z" fill="white"/>
        <path d="M186.338 80.7235L186.087 79.3211L197.774 77.2313L199.147 84.9112L197.811 85.1501L196.689 78.8726L186.338 80.7235Z" fill="white"/>
        <path d="M199.944 93.1596L199.999 97.2127C200.044 100.571 198.79 102.267 196.235 102.302C193.679 102.336 192.379 100.675 192.333 97.317L192.298 94.6884L188.092 94.7457L188.072 93.3212L199.944 93.1596ZM196.215 100.86C196.701 100.854 197.107 100.758 197.432 100.572C197.769 100.387 198.02 100.123 198.185 99.7817C198.361 99.4514 198.481 99.0879 198.543 98.6912C198.617 98.2945 198.65 97.8304 198.643 97.299L198.606 94.6026L193.654 94.67L193.691 97.3664C193.706 98.4631 193.899 99.3199 194.269 99.9368C194.639 100.565 195.288 100.873 196.215 100.86Z" fill="white"/>
        <path d="M187.683 109.231L187.934 107.708L198.807 114.742L198.551 116.299L185.998 119.455L186.246 117.949L189.273 117.211L190.313 110.902L187.683 109.231ZM196.82 115.016L191.527 111.669L190.669 116.873L196.759 115.385C196.818 115.372 196.979 115.335 197.241 115.275C197.001 115.132 196.861 115.046 196.82 115.016Z" fill="white"/>
        <path d="M181.716 124.599L182.18 123.324L186.084 124.746L185.591 126.101C187.338 128.109 190.411 129.915 194.809 131.517L192.313 138.369L182.433 134.77L181.922 136.172L178.018 134.75L178.482 133.475L181.111 134.433L184.345 125.557L181.716 124.599ZM193.035 132.423C189.147 130.742 186.484 129.134 185.045 127.599L182.92 133.431L191.526 136.566L193.035 132.423Z" fill="white"/>
        <path d="M175.682 145.115L177.75 141.629L187.961 147.686L187.234 148.911L183.602 146.756L182.261 149.017C180.548 151.906 178.597 152.701 176.409 151.403C174.211 150.099 173.969 148.003 175.682 145.115ZM182.435 146.064L178.19 143.546L176.814 145.866C176.543 146.323 176.336 146.739 176.192 147.114C176.059 147.495 175.981 147.869 175.96 148.238C175.942 148.622 176.028 148.975 176.218 149.298C176.417 149.627 176.726 149.915 177.144 150.163C177.942 150.636 178.653 150.69 179.277 150.324C179.906 149.974 180.5 149.327 181.059 148.384L182.435 146.064ZM171.719 151.796L172.446 150.571L182.657 156.628L181.93 157.853L171.719 151.796Z" fill="white"/>
        <path d="M12.6087 150.835L11.8874 149.607L22.1258 143.596L22.847 144.825L18.2983 147.495L21.8616 153.565L26.4104 150.895L27.1316 152.123L16.8933 158.134L16.172 156.905L20.6915 154.252L17.1282 148.182L12.6087 150.835Z" fill="white"/>
        <path d="M18.8487 136.603L19.3705 138.056L6.44848 137.201L5.9153 135.716L15.3458 126.851L15.8618 128.287L13.577 130.405L15.7384 136.423L18.8487 136.603ZM8.05152 135.994L14.3042 136.343L12.5212 131.379L7.92539 135.643C7.87983 135.683 7.75719 135.793 7.55748 135.973C7.83663 135.981 8.00131 135.988 8.05152 135.994Z" fill="white"/>
        <path d="M13.6624 119.387L13.9132 120.79L2.22632 122.879L0.853009 115.199L2.18865 114.961L3.31118 121.238L13.6624 119.387Z" fill="white"/>
        <path d="M0.0563774 106.951L0.00120492 102.898C-0.0445028 99.5402 1.2102 97.8439 3.76532 97.8091C6.32045 97.7743 7.62086 99.4358 7.66657 102.794L7.70235 105.422L11.9081 105.365L11.9275 106.79L0.0563774 106.951ZM3.78495 99.2506C3.29879 99.2572 2.89302 99.3532 2.56761 99.5385C2.2309 99.724 1.98005 99.9875 1.81508 100.329C1.63865 100.659 1.51921 101.023 1.45676 101.419C1.38301 101.816 1.34975 102.28 1.35698 102.812L1.39369 105.508L6.34565 105.441L6.30894 102.744C6.29401 101.648 6.10142 100.791 5.73117 100.174C5.36077 99.5457 4.71203 99.238 3.78495 99.2506Z" fill="white"/>
        <path d="M12.3168 90.8801L12.0658 92.4029L1.19279 85.3683L1.44928 83.812L14.0019 80.6552L13.7537 82.1613L10.727 82.9001L9.68724 89.2091L12.3168 90.8801ZM3.18033 85.0942L8.47295 88.4417L9.33067 83.2373L3.24101 84.7261C3.18155 84.7392 3.02082 84.7757 2.75883 84.8357C2.99888 84.9784 3.13938 85.0646 3.18033 85.0942Z" fill="white"/>
        <path d="M18.2842 75.5119L17.8198 76.7867L13.9155 75.3644L14.409 74.0099C12.6617 72.0015 9.5889 70.1961 5.19062 68.5938L7.68696 61.7414L17.5672 65.3408L18.078 63.9384L21.9823 65.3608L21.5179 66.6356L18.8885 65.6777L15.6548 74.554L18.2842 75.5119ZM6.96475 67.6878C10.8529 69.369 13.5163 70.977 14.9547 72.5119L17.0795 66.6794L8.47417 63.5444L6.96475 67.6878Z" fill="white"/>
        <path d="M24.3179 54.9956L22.2499 58.4819L12.0389 52.4251L12.7657 51.1997L16.3979 53.3542L17.7391 51.0932C19.4523 48.205 21.403 47.4098 23.591 48.7077C25.7888 50.0114 26.0311 52.1073 24.3179 54.9956ZM17.5649 54.0465L21.8098 56.5644L23.1855 54.245C23.4567 53.7879 23.664 53.3719 23.8075 52.9969C23.9414 52.6162 24.019 52.2416 24.0404 51.873C24.0578 51.489 23.9717 51.1355 23.782 50.8126C23.5825 50.484 23.2737 50.1956 22.8556 49.9476C22.0581 49.4746 21.3472 49.421 20.7227 49.7867C20.0942 50.137 19.5002 50.7838 18.9407 51.7271L17.5649 54.0465ZM28.2808 48.3147L27.554 49.54L17.343 43.4831L18.0698 42.2578L28.2808 48.3147Z" fill="white"/>
        <path d="M49.2756 12.6087L50.5042 11.8874L56.5146 22.1258L55.286 22.847L52.6156 18.2983L46.5458 21.8616L49.2161 26.4104L47.9875 27.1316L41.9771 16.8933L43.2057 16.172L45.8588 20.6915L51.9287 17.1282L49.2756 12.6087Z" fill="white"/>
        <path d="M63.5074 18.8487L62.0549 19.3704L62.9101 6.44847L64.3946 5.9153L73.2602 15.3458L71.8236 15.8618L69.7055 13.577L63.6878 15.7384L63.5074 18.8487ZM64.1166 8.05152L63.7674 14.3042L68.7315 12.5212L64.4678 7.92539C64.4274 7.87983 64.3173 7.75719 64.1374 7.55748C64.1296 7.83663 64.1226 8.00131 64.1166 8.05152Z" fill="white"/>
        <path d="M80.7235 13.6624L79.3211 13.9132L77.2313 2.22632L84.9112 0.853009L85.1501 2.18865L78.8726 3.31118L80.7235 13.6624Z" fill="white"/>
        <path d="M93.1596 0.0563772L97.2127 0.00120492C100.571 -0.0445027 102.267 1.2102 102.302 3.76532C102.336 6.32045 100.675 7.62086 97.317 7.66657L94.6884 7.70235L94.7457 11.9081L93.3211 11.9275L93.1596 0.0563772ZM100.86 3.78495C100.854 3.2988 100.758 2.89302 100.572 2.56761C100.387 2.2309 100.123 1.98005 99.7817 1.81508C99.4513 1.63865 99.0879 1.51921 98.6912 1.45676C98.2945 1.38301 97.8304 1.34975 97.299 1.35698L94.6026 1.39369L94.67 6.34565L97.3664 6.30894C98.4631 6.29401 99.3199 6.10142 99.9368 5.73117C100.565 5.36077 100.873 4.71203 100.86 3.78495Z" fill="white"/>
        <path d="M109.231 12.3168L107.708 12.0658L114.742 1.19279L116.299 1.44928L119.455 14.0019L117.949 13.7537L117.211 10.727L110.902 9.68724L109.231 12.3168ZM115.016 3.18033L111.669 8.47295L116.873 9.33067L115.385 3.24101C115.372 3.18155 115.335 3.02082 115.275 2.75883C115.132 2.99888 115.046 3.13938 115.016 3.18033Z" fill="white"/>
        <path d="M124.599 18.2842L123.324 17.8198L124.746 13.9155L126.101 14.409C128.109 12.6617 129.915 9.5889 131.517 5.19062L138.369 7.68696L134.77 17.5672L136.172 18.078L134.75 21.9823L133.475 21.5179L134.433 18.8885L125.557 15.6548L124.599 18.2842ZM132.423 6.96476C130.742 10.8529 129.134 13.5163 127.599 14.9547L133.431 17.0795L136.566 8.47417L132.423 6.96476Z" fill="white"/>
        <path d="M145.115 24.3179L141.629 22.2499L147.686 12.0389L148.911 12.7657L146.756 16.3979L149.017 17.7391C151.906 19.4523 152.701 21.403 151.403 23.591C150.099 25.7888 148.003 26.0311 145.115 24.3179ZM146.064 17.5649L143.546 21.8098L145.866 23.1855C146.323 23.4567 146.739 23.664 147.114 23.8075C147.495 23.9414 147.869 24.019 148.238 24.0404C148.622 24.0578 148.975 23.9717 149.298 23.782C149.627 23.5825 149.915 23.2737 150.163 22.8556C150.636 22.0581 150.69 21.3472 150.324 20.7227C149.974 20.0942 149.327 19.5002 148.384 18.9407L146.064 17.5649ZM151.796 28.2808L150.571 27.554L156.628 17.343L157.853 18.0698L151.796 28.2808Z" fill="white"/>
    </symbol>

    <symbol id="diamond" width="80" height="80" viewBox="0 0 80 80" fill="none"
        xmlns="http://www.w3.org/2000/svg">
        <g clip-path="url(#clip0_49_154)">
            <path fill-rule="evenodd" clip-rule="evenodd"
                d="M18.185 11.455C18.5353 11.0022 18.9847 10.6357 19.4987 10.3835C20.0126 10.1313 20.5775 10.0001 21.15 10H58.85C59.4225 10.0001 59.9873 10.1313 60.5013 10.3835C61.0152 10.6357 61.4646 11.0022 61.815 11.455L79.215 33.955C79.7811 34.6856 80.0574 35.5995 79.991 36.5214C79.9245 37.4433 79.52 38.3081 78.855 38.95L42.605 73.95C41.9058 74.6252 40.9719 75.0025 40 75.0025C39.0281 75.0025 38.0941 74.6252 37.395 73.95L1.14497 38.95C0.47996 38.3081 0.0754156 37.4433 0.00897489 36.5214C-0.0574658 35.5995 0.218878 34.6856 0.784973 33.955L18.185 11.455V11.455ZM22.99 17.5L8.76997 35.885L40 66.035L71.23 35.885L57.01 17.5H22.99Z"
                fill="#FF8800" />
        </g>
        <defs>
            <clipPath id="clip0_49_154">
                <rect width="80" height="80" fill="white" />
            </clipPath>
        </defs>
    </symbol>

    <symbol id="arrow-up" width="80" height="80" viewBox="0 0 80 80" fill="none"
        xmlns="http://www.w3.org/2000/svg">
        <path
            d="M73.0667 22.0667C72.7284 21.2522 72.0812 20.6049 71.2667 20.2667C70.8659 20.0959 70.4356 20.0053 70 20H53.3333C52.4493 20 51.6014 20.3512 50.9763 20.9763C50.3512 21.6014 50 22.4493 50 23.3333C50 24.2174 50.3512 25.0652 50.9763 25.6904C51.6014 26.3155 52.4493 26.6667 53.3333 26.6667H61.9667L43.3333 45.3L32.3667 34.3C32.0568 33.9876 31.6881 33.7396 31.2819 33.5704C30.8757 33.4011 30.44 33.314 30 33.314C29.56 33.314 29.1243 33.4011 28.7181 33.5704C28.3119 33.7396 27.9432 33.9876 27.6333 34.3L7.63333 54.3C7.32091 54.6099 7.07292 54.9785 6.9037 55.3847C6.73447 55.7909 6.64734 56.2266 6.64734 56.6667C6.64734 57.1067 6.73447 57.5424 6.9037 57.9486C7.07292 58.3548 7.32091 58.7234 7.63333 59.0333C7.94321 59.3458 8.31188 59.5937 8.71808 59.763C9.12428 59.9322 9.55996 60.0193 10 60.0193C10.44 60.0193 10.8757 59.9322 11.2819 59.763C11.6881 59.5937 12.0568 59.3458 12.3667 59.0333L30 41.3667L40.9667 52.3667C41.2765 52.6791 41.6452 52.9271 42.0514 53.0963C42.4576 53.2655 42.8933 53.3527 43.3333 53.3527C43.7734 53.3527 44.2091 53.2655 44.6153 53.0963C45.0215 52.9271 45.3901 52.6791 45.7 52.3667L66.6667 31.3667V40C66.6667 40.8841 67.0179 41.7319 67.643 42.357C68.2681 42.9821 69.1159 43.3333 70 43.3333C70.8841 43.3333 71.7319 42.9821 72.357 42.357C72.9821 41.7319 73.3333 40.8841 73.3333 40V23.3333C73.3281 22.8977 73.2375 22.4674 73.0667 22.0667V22.0667Z"
            fill="#FF8800" />
    </symbol>

    <symbol id="currency" width="80" height="80" viewBox="0 0 80 80" fill="none" xmlns="http://www.w3.org/2000/svg">
	    <path d="M46.25 48.75C51.5543 48.75 56.6414 46.6429 60.3921 42.8921C64.1429 39.1414 66.25 34.0543 66.25 28.75C66.25 23.4457 64.1429 18.3586 60.3921 14.6079C56.6414 10.8571 51.5543 8.75 46.25 8.75H27.5C26.5054 8.75 25.5516 9.14509 24.8483 9.84835C24.1451 10.5516 23.75 11.5054 23.75 12.5V41.25H17.5C16.5054 41.25 15.5516 41.6451 14.8483 42.3484C14.1451 43.0516 13.75 44.0054 13.75 45C13.75 45.9946 14.1451 46.9484 14.8483 47.6516C15.5516 48.3549 16.5054 48.75 17.5 48.75H23.75V53.75H17.5C16.5054 53.75 15.5516 54.1451 14.8483 54.8484C14.1451 55.5516 13.75 56.5054 13.75 57.5C13.75 58.4946 14.1451 59.4484 14.8483 60.1516C15.5516 60.8549 16.5054 61.25 17.5 61.25H23.75V67.5C23.75 68.4946 24.1451 69.4484 24.8483 70.1516C25.5516 70.8549 26.5054 71.25 27.5 71.25C28.4946 71.25 29.4484 70.8549 30.1517 70.1516C30.8549 69.4484 31.25 68.4946 31.25 67.5V61.25H45C45.9946 61.25 46.9484 60.8549 47.6516 60.1516C48.3549 59.4484 48.75 58.4946 48.75 57.5C48.75 56.5054 48.3549 55.5516 47.6516 54.8484C46.9484 54.1451 45.9946 53.75 45 53.75H31.25V48.75H46.25ZM31.25 16.25H46.25C49.5652 16.25 52.7446 17.567 55.0888 19.9112C57.433 22.2554 58.75 25.4348 58.75 28.75C58.75 32.0652 57.433 35.2446 55.0888 37.5888C52.7446 39.933 49.5652 41.25 46.25 41.25H31.25V16.25Z" fill="#FF8800" />
    </symbol>		

    <symbol id="logo-white" width="307" height="67" viewBox="0 0 307 67" fill="none" xmlns="http://www.w3.org/2000/svg">
        <path d="M138.926 1.99072L123.02 41.5762H133.998L136.326 35.3554H153.108L155.436 41.5762H166.413L150.464 1.99072H138.926ZM139.515 26.8598L143.668 15.4152C144.171 14.1374 144.516 12.7612 144.731 11.3991C144.947 12.7612 145.277 14.1374 145.794 15.4152L149.947 26.8598H139.515Z" fill="white"/>
        <path d="M291.564 20.976L279.063 1.99072H264.853L277.914 20.976L264.005 41.5762H276.477L284.71 28.3062L292.929 41.5762H305.487L291.564 20.976Z" fill="white"/>
        <path d="M227.492 1.99072H211.471V41.6184H222.162V29.1768H227.464C237.464 29.1347 245.108 26.0313 245.108 15.5838C245.094 5.13622 237.493 1.99072 227.492 1.99072ZM228.01 20.1054H222.147V11.034H227.995C231.257 11.034 234.145 11.9889 234.145 15.5557C234.145 19.1084 231.271 20.1054 228.01 20.1054Z" fill="white"/>
        <path d="M291.978 1.74219H304.363V13.8467H291.978V1.74219Z" fill="#FF8800"/>
        <path d="M110.086 33.163C109.195 33.3737 108.261 33.4579 107.327 33.4579C102.701 33.4579 95.3298 31.5903 95.3298 21.8168C95.3298 13.6862 101.523 10.3722 108.046 10.3722C112.112 10.3722 116.193 11.4956 119.239 13.5177V3.61785C115.259 2.00297 111.02 1.13235 106.695 1.13235C95.3729 1.11831 84.3522 7.00206 84.3522 21.7606C84.3522 36.14 95.2867 42.4029 106.825 42.4029C111.451 42.3608 115.977 41.4902 120.259 39.7489V19.8087H110.086V33.163Z" fill="white"/>
        <path d="M196.241 27.1966C200.696 25.4553 204 21.8886 204 15.3027C204 4.85513 195.609 1.9624 187.376 1.9624H170.292V41.5479H181.025V28.6991H185.652L195.322 41.59H207.406L196.241 27.1966ZM187.85 20.1894H181.025V11.0338H187.807C190.868 11.0338 192.937 12.5644 192.937 15.6397C192.937 18.7009 190.911 20.1894 187.85 20.1894Z" fill="white"/>
        <path d="M250.096 41.5762H260.829V1.99072H250.096V41.5762Z" fill="white"/>
        <path d="M96.4877 66.0721V61.3353H95.0484V53.1605H92.0898V61.3353H87.9318V53.1605H84.9732V63.8565H93.9289V66.0721H96.4877Z" fill="white"/>
        <path d="M109.673 63.8565V53.1605H106.874L102.492 59.3031C102.54 58.7988 102.556 58.1265 102.556 57.5306V53.1605H99.5975V63.8565H102.396L106.778 57.7292C106.73 58.2335 106.714 58.9058 106.714 59.4864V63.8565H109.673Z" fill="white"/>
        <path d="M120.831 64.4677V63.1536C124.093 62.955 126.188 61.2894 126.188 58.5085C126.188 55.7275 124.093 54.062 120.831 53.8634V52.5493H118.032V53.8634C114.722 54.0315 112.595 55.7123 112.595 58.5085C112.595 61.3047 114.722 62.9855 118.032 63.1536V64.4677H120.831ZM115.553 58.5085C115.553 57.5 116.033 56.354 118.032 56.1707V60.8463C116.033 60.663 115.553 59.517 115.553 58.5085ZM120.831 56.1707C122.75 56.3846 123.23 57.5153 123.23 58.5085C123.23 59.5017 122.75 60.6324 120.831 60.8463V56.1707Z" fill="white"/>
        <path d="M129.112 53.1605V63.8565H132.07V60.4949H133.541C136.308 60.4796 138.419 59.6392 138.419 56.8277C138.419 54.0162 136.308 53.1605 133.541 53.1605H129.112ZM135.381 56.8277C135.381 57.7903 134.581 58.0501 133.685 58.0501H132.07V55.6053H133.685C134.581 55.6053 135.381 55.8651 135.381 56.8277Z" fill="white"/>
        <path d="M140.865 58.5085C140.865 61.4881 142.864 64.0857 146.862 64.0857C150.86 64.0857 152.859 61.4881 152.859 58.5085C152.859 55.5289 150.86 52.9313 146.862 52.9313C142.864 52.9313 140.865 55.5289 140.865 58.5085ZM149.821 58.5085C149.821 60.2199 148.797 61.4881 146.862 61.4881C144.927 61.4881 143.903 60.2199 143.903 58.5085C143.903 56.7971 144.927 55.5289 146.862 55.5289C148.797 55.5289 149.821 56.7971 149.821 58.5085Z" fill="white"/>
        <path d="M156.002 53.1605V63.8565H160.864C162.991 63.8565 165.421 63.2606 165.421 60.831C165.421 59.3489 164.51 58.5238 163.31 58.1876C164.382 57.8209 164.974 57.0416 164.974 55.8651C164.974 54.0162 163.502 53.1605 161.056 53.1605H156.002ZM162.447 60.5254C162.447 61.3658 161.855 61.6409 160.96 61.6409H158.945V59.41H160.96C161.855 59.41 162.447 59.6851 162.447 60.5254ZM162.015 56.3693C162.015 56.9805 161.567 57.3625 160.784 57.3625L158.961 57.3472V55.3761H160.784C161.567 55.3761 162.015 55.7581 162.015 56.3693Z" fill="white"/>
        <path d="M170.142 63.8565L170.782 62.1757H175.42L176.059 63.8565H179.098L174.7 53.1605H171.501L167.104 63.8565H170.142ZM172.813 56.7971C172.909 56.5374 173.005 56.2776 173.101 55.7123C173.197 56.2776 173.293 56.5374 173.389 56.7971L174.54 59.8837H171.661L172.813 56.7971Z" fill="white"/>
        <path d="M184.231 63.8565L186.869 60.3727H187.909V63.8565H190.867V53.1605H186.15C183.719 53.1605 181.56 54.169 181.56 56.843C181.56 58.5238 182.535 59.517 183.879 59.9907L180.856 63.8565H184.231ZM184.598 56.843C184.598 56.0179 185.174 55.6053 186.182 55.6053H187.909V58.0807H186.182C185.174 58.0807 184.598 57.6681 184.598 56.843Z" fill="white"/>
        <path d="M202.156 63.2453L202.796 61.5645H207.433L208.073 63.2453H211.112L206.714 52.5493H203.515L199.117 63.2453H202.156ZM204.827 56.1859C204.922 55.9262 205.018 55.6664 205.114 55.1011C205.21 55.6664 205.306 55.9262 205.402 56.1859L206.554 59.2725H203.675L204.827 56.1859Z" fill="white"/>
        <path d="M216.74 63.2453V59.1197H218.131L220.85 63.2453H224.129L220.45 57.7598L223.969 52.5493H220.69L218.147 56.5985H216.74V52.5493H213.782V63.2453H216.74Z" fill="white"/>
        <path d="M228.671 63.2453L229.311 61.5645H233.949L234.589 63.2453H237.627L233.229 52.5493H230.031L225.633 63.2453H228.671ZM231.342 56.1859C231.438 55.9262 231.534 55.6664 231.63 55.1011C231.726 55.6664 231.822 55.9262 231.918 56.1859L233.069 59.2725H230.191L231.342 56.1859Z" fill="white"/>
        <path d="M242.136 65.4609V63.2453H249.493V65.4609H252.052V60.8005H250.612V52.5493H242.616C242.616 55.3761 242.296 58.3557 240.857 60.8005H239.577V65.4609H242.136ZM245.335 55.0705H247.654V60.8005H243.975C244.855 59.2419 245.175 57.1639 245.335 55.0705Z" fill="white"/>
        <path d="M255.156 52.5493V63.2453H263.312V60.8005H258.114V59.0586H262.736V56.6291H258.114V54.9941H263.216V52.5493H255.156Z" fill="white"/>
        <path d="M276.237 52.5493L272.83 57.5611L269.424 52.5493H266.625V63.2453H269.584V57.5459L271.983 61.0755H273.678L276.077 57.5611V63.2453H279.035V52.5493H276.237Z" fill="white"/>
        <path d="M292.824 63.2453V52.5493H290.025L285.643 58.6919C285.691 58.1876 285.707 57.5153 285.707 56.9194V52.5493H282.749V63.2453H285.548L289.929 57.118C289.881 57.6223 289.865 58.2946 289.865 58.8752V63.2453H292.824Z" fill="white"/>
        <path d="M298.993 63.2453L301.631 59.7615H302.671V63.2453H305.629V52.5493H300.912C298.481 52.5493 296.322 53.5578 296.322 56.2318C296.322 57.9126 297.297 58.9058 298.641 59.3795L295.618 63.2453H298.993ZM299.36 56.2318C299.36 55.4067 299.936 54.9941 300.944 54.9941H302.671V57.4695H300.944C299.936 57.4695 299.36 57.0569 299.36 56.2318Z" fill="white"/>
        <path d="M17.7938 33.5518H72.3726L58.0098 63.8402H3.43094L17.7938 33.5518Z" fill="#FF8800"/>
        <path fill-rule="evenodd" clip-rule="evenodd" d="M3.43094 3.2627H58.0098L72.3726 33.5512H17.7938L3.43094 3.2627ZM7.73979 6.01619H56.1583L68.0638 30.7977H19.6396L7.73979 6.01619Z" fill="#FF8800"/>
    </symbol>

    <symbol id="ok" width="50" height="50" xmlns="http://www.w3.org/2000/svg" viewBox="0 0 20 20">
        <path d="M0 11l2-2 5 5L18 3l2 2L7 18z"/>
    </symbol>	

    <symbol id="logo-menu" viewBox="0 0 579 113" fill="none" xmlns="http://www.w3.org/2000/svg">
        <path d="M143.495 2.83675L101.906 109.832H130.609L136.695 93.0178H180.576L186.663 109.832H215.366L173.664 2.83675H143.495ZM145.036 70.055L155.893 39.1217C157.208 35.6678 158.11 31.9482 158.673 28.2666C159.237 31.9482 160.101 35.6678 161.454 39.1217L172.311 70.055H145.036Z" fill="white"/>
        <path d="M542.595 54.1519L509.91 2.83675H472.754L506.904 54.1519L470.537 109.832H503.147L524.675 73.9644L546.164 109.832H579L542.595 54.1519Z" fill="white"/>
        <path d="M375.074 2.83675H333.184V109.946H361.135V76.3176H374.999C401.147 76.2037 421.134 67.8157 421.134 39.5772C421.096 11.3387 401.222 2.83675 375.074 2.83675ZM376.426 51.7987H361.098V27.2798H376.389C384.917 27.2798 392.468 29.8607 392.468 39.5013C392.468 49.1039 384.954 51.7987 376.426 51.7987Z" fill="white"/>
        <path d="M543.685 2.16655H576.07V34.8837H543.685V2.16655Z" fill="#FF8800"/>
        <path d="M68.0937 87.0966C65.7644 87.6659 63.3224 87.8936 60.8804 87.8936C48.7831 87.8936 29.5099 82.8456 29.5099 56.4289C29.5099 34.453 45.7024 25.4956 62.7589 25.4956C73.391 25.4956 84.0607 28.532 92.0255 33.9975V7.23926C81.6187 2.87443 70.5358 0.521232 59.2273 0.521232C29.6226 0.483277 0.806885 16.3864 0.806885 56.2771C0.806885 95.143 29.3972 112.071 59.5655 112.071C71.6628 111.957 83.4972 109.604 94.6929 104.897V51.0014H68.0937V87.0966Z" fill="white"/>
        <path d="M293.36 70.966C305.007 66.2596 313.647 56.619 313.647 38.8181C313.647 10.5796 291.707 2.76088 270.18 2.76088H225.51V109.756H253.574V75.0272H265.671L290.956 109.87H322.551L293.36 70.966ZM271.42 52.0265H253.574V27.2798H271.307C279.309 27.2798 284.719 31.4169 284.719 39.729C284.719 48.0032 279.422 52.0265 271.42 52.0265Z" fill="white"/>
        <path d="M434.17 109.832H462.235V2.83675H434.17V109.832Z" fill="white"/>
    </symbol>

    <symbol id="arrow-details" width="66" height="66" viewBox="0 0 36 36" fill="none"
        xmlns="http://www.w3.org/2000/svg">
        <rect width="36" height="36" fill="none" />
        <path
            d="M26.9714 27.9996C27.5235 28.0154 27.9838 27.5806 27.9996 27.0286L28.2566 18.0322C28.2724 17.4802 27.8377 17.0199 27.2856 17.0041C26.7335 16.9883 26.2732 17.4231 26.2574 17.9751L26.029 25.9718L18.0322 25.7434C17.4802 25.7276 17.0199 26.1623 17.0041 26.7144C16.9883 27.2665 17.4231 27.7268 17.9751 27.7426L26.9714 27.9996ZM9.27299 9.68662L26.273 27.6866L27.727 26.3134L10.727 8.31338L9.27299 9.68662Z"
            fill="#FFFFFF" />
    </symbol>

    <symbol id="cirlce-work-us" viewBox="0 0 379 380" fill="none" xmlns="http://www.w3.org/2000/svg">
        <rect x="325.563" y="60.8066" width="8" height="8" transform="rotate(135 325.563 60.8066)" fill="#181D27"/>
        <rect x="324.651" y="319.077" width="8" height="8" transform="rotate(135 324.651 319.077)" fill="#181D27"/>
        <rect width="8" height="8" transform="matrix(0.707107 0.707107 0.707107 -0.707107 52.9785 60.8066)" fill="#181D27"/>
        <rect width="8" height="8" transform="matrix(0.707107 0.707107 0.707107 -0.707107 55.0663 320.077)" fill="#181D27"/>
        <path d="M81.1587 37.3213L84.1371 35.2687C86.6046 33.5683 88.4853 33.6569 89.7792 35.5345C91.0732 37.4121 90.4864 39.2011 88.0189 40.9015L86.0873 42.2327L88.2172 45.3233L87.1704 46.0447L81.1587 37.3213ZM88.72 36.2645C88.4738 35.9072 88.2012 35.6539 87.9022 35.5046C87.5976 35.347 87.2776 35.2917 86.9425 35.3389C86.61 35.372 86.2812 35.4638 85.956 35.6143C85.6252 35.7566 85.2645 35.9622 84.874 36.2313L82.8926 37.5968L85.4003 41.2357L87.3817 39.8702C88.1876 39.3149 88.7274 38.7468 89.0011 38.166C89.2832 37.5796 89.1895 36.9457 88.72 36.2645Z" fill="white"/>
        <path d="M99.1261 38.1231L97.9307 38.807L96.6764 27.3191L97.8981 26.6201L107.153 33.5311L105.97 34.2075L103.754 32.5285L98.8018 35.3619L99.1261 38.1231ZM97.9855 28.5405L98.6491 34.0892L102.735 31.7518L98.2745 28.3751C98.2319 28.3414 98.1161 28.2507 97.9271 28.1031C97.9635 28.3496 97.983 28.4954 97.9855 28.5405Z" fill="white"/>
        <path d="M110.7 24.7074L113.252 23.5188C115.713 22.3728 117.388 22.7555 118.278 24.6671C119.164 26.5695 118.377 28.0937 115.917 29.2397L112.213 30.9651L107.74 21.3616L114.393 18.2623L114.905 19.3598L109.403 21.9224L110.7 24.7074ZM112.854 29.3308L115.461 28.1166C115.735 27.9888 115.973 27.8668 116.175 27.7505C116.373 27.6251 116.571 27.4771 116.77 27.3065C116.973 27.1226 117.121 26.9371 117.212 26.75C117.298 26.5538 117.336 26.3247 117.325 26.0626C117.324 25.7962 117.253 25.5121 117.112 25.2103C116.937 24.8353 116.724 24.5563 116.472 24.3732C116.215 24.181 115.933 24.0897 115.626 24.0992C115.319 24.1088 115.029 24.1549 114.756 24.2376C114.478 24.3111 114.166 24.4289 113.818 24.5907L111.212 25.8049L112.854 29.3308Z" fill="white"/>
        <path d="M123.763 22.1986C123.324 21.6707 122.986 21.0795 122.749 20.425C122.512 19.7705 122.392 19.1002 122.39 18.414C122.398 17.7244 122.522 17.062 122.764 16.4269C123.003 15.7823 123.406 15.1909 123.972 14.6527C124.539 14.1144 125.245 13.6922 126.089 13.3861C126.933 13.08 127.745 12.9519 128.525 13.0017C129.305 13.0515 129.994 13.2474 130.59 13.5893C131.183 13.9217 131.698 14.3519 132.136 14.8799C132.584 15.4044 132.927 15.9939 133.164 16.6484C133.401 17.3028 133.516 17.9749 133.509 18.6645C133.511 19.3507 133.392 20.0161 133.154 20.6606C132.912 21.2957 132.508 21.8824 131.941 22.4207C131.374 22.9589 130.668 23.3811 129.824 23.6872C128.98 23.9933 128.168 24.1215 127.388 24.0716C126.608 24.0218 125.921 23.8307 125.329 23.4983C124.732 23.1564 124.21 22.7232 123.763 22.1986ZM132.24 18.6737C132.239 18.1375 132.144 17.6086 131.955 17.0869C131.765 16.5652 131.5 16.0982 131.157 15.6858C130.824 15.27 130.427 14.9309 129.967 14.6684C129.516 14.4025 128.991 14.2551 128.39 14.2261C127.785 14.1876 127.156 14.287 126.502 14.5244C125.847 14.7617 125.3 15.0888 124.861 15.5056C124.419 15.9129 124.105 16.3648 123.92 16.8611C123.744 17.3541 123.657 17.8686 123.659 18.4048C123.669 18.9375 123.769 19.4647 123.958 19.9864C124.148 20.5081 124.409 20.9769 124.742 21.3927C125.085 21.805 125.481 22.1442 125.932 22.4101C126.392 22.6725 126.924 22.823 127.529 22.8615C128.129 22.8905 128.757 22.7863 129.411 22.549C130.066 22.3116 130.615 21.9893 131.057 21.582C131.496 21.1652 131.804 20.7103 131.979 20.2174C132.164 19.721 132.251 19.2065 132.24 18.6737Z" fill="white"/>
        <path d="M136.98 9.92725L145.4 7.66951L145.713 8.83896L142.117 9.80321L144.547 18.8665L143.319 19.1957L140.889 10.1325L137.293 11.0967L136.98 9.92725Z" fill="white"/>
        <path d="M154.049 16.5668L152.694 16.8139L155.334 5.56347L156.719 5.31096L163.146 14.9079L161.806 15.1522L160.275 12.8315L154.662 13.8551L154.049 16.5668ZM156.162 7.1509L154.941 12.6042L159.572 11.7597L156.49 7.09117C156.461 7.04516 156.382 6.92111 156.253 6.71903C156.205 6.96362 156.175 7.10758 156.162 7.1509Z" fill="white"/>
        <path d="M176.283 13.4583L177.549 13.341L176.572 2.79197L175.397 2.90082L169.832 11.9125L169.052 3.48831L167.786 3.60553L168.763 14.1546L169.939 14.0458L175.502 5.019L176.283 13.4583ZM174.128 1.34637C173.574 1.82322 172.891 2.09932 172.077 2.17468C171.263 2.25004 170.54 2.10418 169.909 1.7371L169.8 0.561632C170.514 0.941358 171.237 1.09726 171.971 1.02935C172.704 0.961438 173.387 0.675287 174.019 0.170898L174.128 1.34637Z" fill="white"/>
        <path d="M183.214 2.4337L191.931 2.35882L191.941 3.56955L188.218 3.60153L188.299 12.9846L187.028 12.9955L186.947 3.61245L183.224 3.64442L183.214 2.4337Z" fill="white"/>
        <path d="M198.715 2.58155L205.842 3.07204L205.759 4.27995L199.901 3.87675L199.665 7.3042L205.07 7.67621L204.987 8.88412L199.582 8.51211L199.339 12.0301L205.288 12.4396L205.205 13.6475L197.988 13.1508L198.715 2.58155Z" fill="white"/>
        <path d="M219.154 10.1579C219.376 9.00881 219.841 8.06597 220.549 7.32936C221.259 6.58286 222.058 6.09006 222.947 5.85098C223.836 5.6119 224.746 5.58244 225.677 5.76259C226.747 5.96958 227.678 6.39115 228.469 7.02731L228.228 8.27547C227.573 7.62461 226.715 7.19664 225.655 6.99156C224.467 6.76157 223.365 6.92878 222.352 7.49316C221.34 8.04765 220.695 9.01735 220.417 10.4023C220.246 11.2839 220.322 12.0898 220.643 12.8199C220.974 13.552 221.439 14.1249 222.037 14.5387C222.645 14.9544 223.326 15.235 224.078 15.3807C225.198 15.5973 226.163 15.5219 226.974 15.1547L226.732 16.4029C225.741 16.6941 224.69 16.7323 223.581 16.5177C222.917 16.3892 222.286 16.1488 221.686 15.7964C221.088 15.4341 220.568 14.9892 220.125 14.4616C219.684 13.9242 219.372 13.283 219.187 12.5382C219.004 11.7834 218.993 10.99 219.154 10.1579Z" fill="white"/>
        <path d="M250.531 12.6987L251.738 13.0986L248.406 23.1551L247.199 22.7553L248.68 18.2873L242.718 16.3118L241.237 20.7798L240.03 20.38L243.362 10.3234L244.569 10.7233L243.098 15.1625L249.06 17.138L250.531 12.6987Z" fill="white"/>
        <path d="M254.975 25.656L253.71 25.1095L262.151 17.2164L263.443 17.7749L263.463 29.325L262.212 28.7845L262.227 26.0044L256.99 23.7405L254.975 25.656ZM261.959 18.9964L257.916 22.8551L262.237 24.7226L262.264 19.1285C262.266 19.0742 262.269 18.9271 262.274 18.6874C262.098 18.8643 261.993 18.9674 261.959 18.9964Z" fill="white"/>
        <path d="M282.285 27.2349L283.24 27.7597L278.138 37.0444L277.024 36.4322L280.967 29.2564L274.897 32.4141L274.207 32.0351L273.619 25.2184L269.675 32.3942L268.561 31.7819L273.663 22.4972L274.618 23.022L275.303 30.8585L282.285 27.2349Z" fill="white"/>
        <path d="M291.457 45.7515L290.407 45.0346L295.186 38.0353L285.145 41.4416L284.17 40.7759L290.144 32.0268L291.194 32.7437L286.423 39.7305L296.456 36.3367L297.431 37.0024L291.457 45.7515Z" fill="white"/>
        <path d="M297.841 342.02L294.863 344.073C292.395 345.773 290.515 345.685 289.221 343.807C287.927 341.929 288.514 340.14 290.981 338.44L292.913 337.109L290.783 334.018L291.83 333.297L297.841 342.02ZM290.28 343.077C290.526 343.434 290.799 343.688 291.098 343.837C291.402 343.995 291.722 344.05 292.058 344.003C292.39 343.97 292.719 343.878 293.044 343.727C293.375 343.585 293.736 343.379 294.126 343.11L296.107 341.745L293.6 338.106L291.618 339.471C290.812 340.027 290.273 340.595 289.999 341.175C289.717 341.762 289.811 342.396 290.28 343.077Z" fill="white"/>
        <path d="M279.874 341.218L281.069 340.535L282.324 352.022L281.102 352.721L271.847 345.81L273.03 345.134L275.246 346.813L280.198 343.98L279.874 341.218ZM281.015 350.801L280.351 345.252L276.265 347.59L280.726 350.966C280.768 351 280.884 351.091 281.073 351.238C281.037 350.992 281.017 350.846 281.015 350.801Z" fill="white"/>
        <path d="M268.3 354.634L265.748 355.823C263.288 356.969 261.612 356.586 260.722 354.674C259.836 352.772 260.623 351.248 263.083 350.102L266.787 348.376L271.261 357.98L264.607 361.079L264.095 359.982L269.597 357.419L268.3 354.634ZM266.146 350.011L263.539 351.225C263.265 351.353 263.027 351.475 262.825 351.591C262.627 351.716 262.429 351.864 262.23 352.035C262.027 352.219 261.879 352.404 261.788 352.591C261.702 352.788 261.664 353.017 261.675 353.279C261.676 353.545 261.747 353.829 261.888 354.131C262.063 354.506 262.276 354.785 262.528 354.968C262.785 355.161 263.067 355.252 263.374 355.242C263.681 355.233 263.971 355.187 264.244 355.104C264.522 355.03 264.834 354.913 265.182 354.751L267.788 353.537L266.146 350.011Z" fill="white"/>
        <path d="M255.238 357.143C255.676 357.671 256.014 358.262 256.251 358.917C256.488 359.571 256.608 360.241 256.61 360.928C256.602 361.617 256.478 362.28 256.236 362.915C255.997 363.559 255.595 364.151 255.028 364.689C254.461 365.227 253.755 365.649 252.911 365.955C252.067 366.262 251.255 366.39 250.475 366.34C249.695 366.29 249.006 366.094 248.41 365.752C247.818 365.42 247.302 364.99 246.864 364.462C246.416 363.937 246.073 363.348 245.836 362.693C245.599 362.039 245.484 361.367 245.491 360.677C245.489 359.991 245.608 359.325 245.846 358.681C246.088 358.046 246.492 357.459 247.059 356.921C247.626 356.383 248.332 355.96 249.176 355.654C250.02 355.348 250.832 355.22 251.612 355.27C252.392 355.32 253.079 355.511 253.672 355.843C254.268 356.185 254.79 356.618 255.238 357.143ZM246.76 360.668C246.761 361.204 246.856 361.733 247.045 362.255C247.235 362.776 247.501 363.243 247.843 363.656C248.176 364.072 248.573 364.411 249.033 364.673C249.484 364.939 250.01 365.086 250.61 365.115C251.215 365.154 251.844 365.054 252.498 364.817C253.153 364.58 253.7 364.253 254.139 363.836C254.581 363.429 254.895 362.977 255.08 362.48C255.256 361.987 255.343 361.473 255.341 360.937C255.331 360.404 255.231 359.877 255.042 359.355C254.852 358.833 254.591 358.365 254.258 357.949C253.915 357.537 253.519 357.197 253.068 356.931C252.608 356.669 252.076 356.519 251.471 356.48C250.871 356.451 250.243 356.555 249.589 356.793C248.934 357.03 248.386 357.352 247.943 357.76C247.504 358.176 247.197 358.631 247.021 359.124C246.836 359.621 246.749 360.135 246.76 360.668Z" fill="white"/>
        <path d="M242.021 369.414L233.6 371.672L233.287 370.503L236.883 369.538L234.453 360.475L235.681 360.146L238.111 369.209L241.707 368.245L242.021 369.414Z" fill="white"/>
        <path d="M224.951 362.775L226.306 362.528L223.666 373.778L222.281 374.031L215.854 364.434L217.194 364.189L218.725 366.51L224.338 365.486L224.951 362.775ZM222.838 372.191L224.059 366.737L219.428 367.582L222.51 372.25C222.539 372.296 222.618 372.42 222.747 372.623C222.795 372.378 222.825 372.234 222.838 372.191Z" fill="white"/>
        <path d="M202.717 365.883L201.451 366L202.428 376.55L203.603 376.441L209.168 367.429L209.948 375.853L211.214 375.736L210.237 365.187L209.061 365.296L203.498 374.323L202.717 365.883ZM204.872 377.995C205.426 377.518 206.109 377.242 206.923 377.167C207.737 377.091 208.46 377.237 209.092 377.604L209.2 378.78C208.486 378.4 207.763 378.244 207.029 378.312C206.296 378.38 205.613 378.666 204.981 379.171L204.872 377.995Z" fill="white"/>
        <path d="M195.786 376.908L187.069 376.983L187.059 375.772L190.782 375.74L190.701 366.357L191.972 366.346L192.053 375.729L195.776 375.697L195.786 376.908Z" fill="white"/>
        <path d="M180.285 376.76L173.158 376.27L173.241 375.062L179.099 375.465L179.335 372.037L173.93 371.665L174.013 370.457L179.418 370.829L179.661 367.311L173.712 366.902L173.795 365.694L181.012 366.191L180.285 376.76Z" fill="white"/>
        <path d="M159.846 369.184C159.624 370.333 159.159 371.276 158.451 372.012C157.741 372.759 156.942 373.251 156.053 373.491C155.164 373.73 154.254 373.759 153.323 373.579C152.253 373.372 151.322 372.95 150.531 372.314L150.772 371.066C151.427 371.717 152.285 372.145 153.345 372.35C154.534 372.58 155.635 372.413 156.648 371.848C157.66 371.294 158.305 370.324 158.583 368.939C158.754 368.058 158.678 367.252 158.357 366.522C158.026 365.79 157.561 365.217 156.963 364.803C156.355 364.387 155.674 364.107 154.922 363.961C153.802 363.744 152.837 363.82 152.026 364.187L152.268 362.939C153.259 362.647 154.31 362.609 155.419 362.824C156.083 362.952 156.715 363.193 157.314 363.545C157.912 363.907 158.432 364.352 158.875 364.88C159.316 365.417 159.629 366.058 159.813 366.803C159.996 367.558 160.007 368.352 159.846 369.184Z" fill="white"/>
        <path d="M128.469 366.643L127.262 366.243L130.594 356.186L131.801 356.586L130.32 361.054L136.283 363.03L137.763 358.562L138.97 358.962L135.638 369.018L134.431 368.618L135.902 364.179L129.94 362.204L128.469 366.643Z" fill="white"/>
        <path d="M124.025 353.686L125.29 354.232L116.849 362.125L115.557 361.567L115.537 350.017L116.788 350.557L116.773 353.337L122.01 355.601L124.025 353.686ZM117.041 360.345L121.084 356.486L116.763 354.619L116.736 360.213C116.734 360.267 116.731 360.414 116.726 360.654C116.902 360.477 117.007 360.374 117.041 360.345Z" fill="white"/>
        <path d="M96.7151 352.107L95.7601 351.582L100.862 342.297L101.976 342.909L98.0332 350.085L104.103 346.927L104.793 347.306L105.381 354.123L109.325 346.947L110.439 347.56L105.337 356.844L104.382 356.32L103.697 348.483L96.7151 352.107Z" fill="white"/>
        <path d="M87.5434 333.59L88.5933 334.307L83.814 341.306L93.8552 337.9L94.8301 338.566L88.856 347.315L87.8061 346.598L92.5769 339.611L82.5441 343.005L81.5692 342.339L87.5434 333.59Z" fill="white"/>
        <path d="M341.85 81.3291L343.902 84.3075C345.603 86.775 345.514 88.6557 343.637 89.9496C341.759 91.2436 339.97 90.6568 338.27 88.1893L336.938 86.2577L333.848 88.3876L333.126 87.3408L341.85 81.3291ZM342.907 88.8904C343.264 88.6442 343.517 88.3716 343.667 88.0726C343.824 87.7679 343.879 87.448 343.832 87.1129C343.799 86.7804 343.707 86.4515 343.557 86.1264C343.415 85.7955 343.209 85.4349 342.94 85.0444L341.574 83.063L337.935 85.5707L339.301 87.5521C339.856 88.358 340.424 88.8978 341.005 89.1715C341.592 89.4536 342.225 89.3598 342.907 88.8904Z" fill="white"/>
        <path d="M341.048 99.2965L340.364 98.101L351.852 96.8468L352.551 98.0685L345.64 107.323L344.964 106.141L346.643 103.925L343.809 98.9722L341.048 99.2965ZM350.631 98.1559L345.082 98.8195L347.419 102.905L350.796 98.4449C350.83 98.4023 350.92 98.2865 351.068 98.0974C350.821 98.1339 350.676 98.1533 350.631 98.1559Z" fill="white"/>
        <path d="M354.464 110.871L355.652 113.423C356.798 115.883 356.416 117.558 354.504 118.449C352.602 119.335 351.077 118.548 349.931 116.087L348.206 112.383L357.81 107.91L360.909 114.564L359.811 115.075L357.249 109.574L354.464 110.871ZM349.84 113.024L351.055 115.631C351.182 115.905 351.304 116.144 351.421 116.345C351.546 116.543 351.694 116.741 351.865 116.94C352.049 117.144 352.234 117.291 352.421 117.382C352.617 117.469 352.846 117.507 353.109 117.496C353.375 117.494 353.659 117.423 353.961 117.283C354.336 117.108 354.615 116.894 354.798 116.642C354.99 116.386 355.081 116.104 355.072 115.797C355.062 115.489 355.016 115.199 354.934 114.926C354.86 114.649 354.742 114.336 354.58 113.989L353.366 111.382L349.84 113.024Z" fill="white"/>
        <path d="M356.972 123.933C357.5 123.495 358.092 123.157 358.746 122.919C359.401 122.682 360.071 122.563 360.757 122.561C361.447 122.568 362.109 122.693 362.744 122.935C363.389 123.173 363.98 123.576 364.518 124.143C365.057 124.71 365.479 125.415 365.785 126.259C366.091 127.103 366.219 127.916 366.169 128.696C366.12 129.476 365.924 130.164 365.582 130.76C365.249 131.353 364.819 131.868 364.291 132.307C363.767 132.755 363.177 133.097 362.523 133.334C361.868 133.572 361.196 133.687 360.507 133.679C359.82 133.681 359.155 133.563 358.51 133.324C357.875 133.082 357.289 132.678 356.75 132.111C356.212 131.544 355.79 130.839 355.484 129.995C355.178 129.15 355.05 128.338 355.099 127.558C355.149 126.778 355.34 126.092 355.673 125.499C356.015 124.903 356.448 124.381 356.972 123.933ZM360.497 132.411C361.034 132.409 361.563 132.314 362.084 132.125C362.606 131.936 363.073 131.67 363.485 131.327C363.901 130.994 364.24 130.597 364.503 130.137C364.769 129.687 364.916 129.161 364.945 128.56C364.984 127.956 364.884 127.327 364.647 126.672C364.409 126.018 364.082 125.471 363.666 125.032C363.258 124.589 362.806 124.275 362.31 124.09C361.817 123.915 361.303 123.828 360.766 123.829C360.234 123.84 359.706 123.94 359.185 124.129C358.663 124.318 358.194 124.579 357.778 124.912C357.366 125.255 357.027 125.652 356.761 126.102C356.499 126.563 356.348 127.095 356.31 127.699C356.281 128.3 356.385 128.927 356.622 129.582C356.859 130.236 357.182 130.785 357.589 131.227C358.006 131.667 358.461 131.974 358.954 132.149C359.45 132.334 359.965 132.421 360.497 132.411Z" fill="white"/>
        <path d="M369.244 137.15L371.502 145.57L370.332 145.884L369.368 142.287L360.305 144.718L359.975 143.49L369.039 141.06L368.074 137.463L369.244 137.15Z" fill="white"/>
        <path d="M362.604 154.219L362.357 152.864L373.608 155.505L373.86 156.889L364.263 163.316L364.019 161.976L366.34 160.445L365.316 154.832L362.604 154.219ZM372.02 156.333L366.567 155.112L367.411 159.742L372.08 156.66C372.126 156.631 372.25 156.552 372.452 156.423C372.207 156.375 372.064 156.345 372.02 156.333Z" fill="white"/>
        <path d="M365.713 176.454L365.83 177.72L376.379 176.743L376.27 175.567L367.259 170.003L375.683 169.223L375.566 167.957L365.017 168.934L365.125 170.109L374.152 175.672L365.713 176.454ZM377.825 174.299C377.348 173.745 377.072 173.061 376.996 172.247C376.921 171.434 377.067 170.711 377.434 170.079L378.609 169.97C378.23 170.684 378.074 171.408 378.142 172.141C378.21 172.875 378.496 173.557 379 174.19L377.825 174.299Z" fill="white"/>
        <path d="M376.737 183.384L376.812 192.101L375.602 192.112L375.57 188.389L366.186 188.469L366.176 187.198L375.559 187.118L375.527 183.395L376.737 183.384Z" fill="white"/>
        <path d="M376.59 198.886L376.099 206.013L374.891 205.929L375.294 200.071L371.867 199.835L371.495 205.241L370.287 205.157L370.659 199.752L367.141 199.51L366.732 205.459L365.524 205.376L366.02 198.158L376.59 198.886Z" fill="white"/>
        <path d="M369.013 219.324C370.162 219.547 371.105 220.012 371.842 220.719C372.588 221.429 373.081 222.228 373.32 223.117C373.559 224.006 373.589 224.916 373.409 225.848C373.202 226.917 372.78 227.848 372.144 228.64L370.896 228.398C371.547 227.743 371.974 226.886 372.18 225.826C372.41 224.637 372.242 223.536 371.678 222.522C371.123 221.511 370.154 220.866 368.769 220.587C367.887 220.417 367.081 220.492 366.351 220.813C365.619 221.144 365.046 221.609 364.632 222.207C364.217 222.815 363.936 223.496 363.79 224.249C363.574 225.368 363.649 226.333 364.016 227.144L362.768 226.903C362.477 225.911 362.439 224.861 362.653 223.751C362.782 223.088 363.022 222.456 363.375 221.856C363.737 221.258 364.182 220.738 364.709 220.295C365.247 219.855 365.888 219.542 366.633 219.357C367.388 219.174 368.181 219.163 369.013 219.324Z" fill="white"/>
        <path d="M366.472 250.702L366.073 251.909L356.016 248.576L356.416 247.37L360.884 248.85L362.859 242.888L358.391 241.408L358.791 240.201L368.848 243.533L368.448 244.74L364.009 243.269L362.033 249.231L366.472 250.702Z" fill="white"/>
        <path d="M353.515 255.145L354.062 253.881L361.955 262.321L361.396 263.613L349.846 263.633L350.387 262.383L353.167 262.397L355.431 257.16L353.515 255.145ZM360.175 262.129L356.316 258.087L354.448 262.407L360.043 262.435C360.097 262.436 360.244 262.439 360.484 262.444C360.307 262.269 360.204 262.164 360.175 262.129Z" fill="white"/>
        <path d="M351.936 282.455L351.411 283.41L342.127 278.308L342.739 277.194L349.915 281.137L346.757 275.067L347.136 274.378L353.953 273.789L346.777 269.846L347.389 268.732L356.674 273.834L356.149 274.789L348.313 275.473L351.936 282.455Z" fill="white"/>
        <path d="M333.42 291.627L334.136 290.577L341.136 295.356L337.729 285.315L338.395 284.34L347.144 290.314L346.427 291.364L339.441 286.594L342.834 296.626L342.169 297.601L333.42 291.627Z" fill="white"/>
        <path d="M37.1504 298.012L35.0978 295.034C33.3974 292.566 33.486 290.686 35.3636 289.392C37.2412 288.098 39.0302 288.685 40.7306 291.152L42.0618 293.084L45.1524 290.954L45.8738 292.001L37.1504 298.012ZM36.0936 290.451C35.7363 290.697 35.483 290.97 35.3337 291.269C35.1761 291.573 35.1208 291.893 35.168 292.229C35.2011 292.561 35.2929 292.89 35.4434 293.215C35.5857 293.546 35.7913 293.907 36.0604 294.297L37.4259 296.278L41.0648 293.771L39.6993 291.789C39.144 290.983 38.5759 290.444 37.9952 290.17C37.4087 289.888 36.7748 289.982 36.0936 290.451Z" fill="white"/>
        <path d="M37.9522 280.045L38.6361 281.24L27.1482 282.495L26.4492 281.273L33.3602 272.018L34.0366 273.201L32.3576 275.417L35.191 280.369L37.9522 280.045ZM28.3696 281.186L33.9183 280.522L31.581 276.436L28.2042 280.897C28.1705 280.939 28.0798 281.055 27.9322 281.244C28.1788 281.208 28.3245 281.188 28.3696 281.186Z" fill="white"/>
        <path d="M24.5365 268.471L23.3479 265.919C22.2019 263.458 22.5846 261.783 24.4962 260.893C26.3986 260.007 27.9228 260.794 29.0688 263.254L30.7942 266.958L21.1907 271.432L18.0914 264.778L19.1889 264.266L21.7515 269.768L24.5365 268.471ZM29.1599 266.317L27.9457 263.71C27.8179 263.436 27.6959 263.198 27.5796 262.996C27.4542 262.798 27.3062 262.6 27.1357 262.401C26.9517 262.198 26.7662 262.05 26.5792 261.959C26.3829 261.873 26.1538 261.835 25.8917 261.846C25.6253 261.847 25.3412 261.918 25.0394 262.059C24.6644 262.234 24.3854 262.447 24.2023 262.699C24.0101 262.956 23.9188 263.238 23.9283 263.545C23.9379 263.852 23.984 264.142 24.0667 264.415C24.1402 264.693 24.258 265.005 24.4199 265.353L25.634 267.959L29.1599 266.317Z" fill="white"/>
        <path d="M22.0278 255.409C21.4998 255.847 20.9086 256.185 20.2541 256.422C19.5996 256.659 18.9293 256.779 18.2431 256.781C17.5535 256.773 16.8911 256.649 16.256 256.407C15.6115 256.168 15.02 255.766 14.4818 255.199C13.9435 254.632 13.5213 253.926 13.2152 253.082C12.9091 252.238 12.781 251.426 12.8308 250.646C12.8806 249.866 13.0765 249.177 13.4184 248.581C13.7508 247.988 14.181 247.473 14.709 247.035C15.2335 246.587 15.823 246.244 16.4775 246.007C17.132 245.77 17.804 245.655 18.4936 245.662C19.1798 245.66 19.8452 245.779 20.4897 246.017C21.1248 246.259 21.7115 246.663 22.2498 247.23C22.788 247.797 23.2102 248.503 23.5163 249.347C23.8224 250.191 23.9506 251.003 23.9007 251.783C23.8509 252.563 23.6598 253.25 23.3274 253.842C22.9855 254.439 22.5523 254.961 22.0278 255.409ZM18.5028 246.931C17.9666 246.932 17.4377 247.027 16.916 247.216C16.3943 247.406 15.9273 247.672 15.5149 248.014C15.0991 248.347 14.76 248.744 14.4975 249.204C14.2316 249.655 14.0842 250.18 14.0552 250.781C14.0167 251.386 14.1161 252.015 14.3535 252.669C14.5908 253.324 14.9179 253.871 15.3347 254.31C15.742 254.752 16.1939 255.066 16.6902 255.251C17.1832 255.427 17.6977 255.514 18.2339 255.512C18.7666 255.502 19.2938 255.402 19.8155 255.213C20.3372 255.023 20.806 254.762 21.2218 254.429C21.6341 254.086 21.9733 253.69 22.2392 253.239C22.5016 252.779 22.6521 252.247 22.6906 251.642C22.7196 251.042 22.6154 250.414 22.3781 249.76C22.1408 249.105 21.8184 248.557 21.4111 248.114C20.9943 247.675 20.5394 247.367 20.0465 247.192C19.5501 247.007 19.0356 246.92 18.5028 246.931Z" fill="white"/>
        <path d="M9.75636 242.192L7.49861 233.771L8.66807 233.458L9.63231 237.054L18.6956 234.624L19.0249 235.852L9.96157 238.282L10.9258 241.878L9.75636 242.192Z" fill="white"/>
        <path d="M16.3959 225.122L16.643 226.477L5.39257 223.837L5.14006 222.452L14.737 216.025L14.9814 217.365L12.6606 218.896L13.6842 224.509L16.3959 225.122ZM6.98 223.009L12.4333 224.23L11.5888 219.599L6.92027 222.681C6.87426 222.71 6.75021 222.789 6.54813 222.918C6.79272 222.966 6.93668 222.996 6.98 223.009Z" fill="white"/>
        <path d="M13.2874 202.888L13.1702 201.622L2.62107 202.599L2.72992 203.774L11.7416 209.339L3.31741 210.119L3.43463 211.385L13.9837 210.408L13.8749 209.232L4.84811 203.669L13.2874 202.888ZM1.17547 205.043C1.65232 205.597 1.92843 206.28 2.00378 207.094C2.07914 207.908 1.93328 208.631 1.5662 209.263L0.390734 209.371C0.77046 208.657 0.926366 207.934 0.858453 207.2C0.790539 206.467 0.504388 205.784 0 205.152L1.17547 205.043Z" fill="white"/>
        <path d="M2.2628 195.957L2.18793 187.24L3.39865 187.23L3.43063 190.953L12.8137 190.872L12.8246 192.143L3.44155 192.224L3.47353 195.947L2.2628 195.957Z" fill="white"/>
        <path d="M2.41066 180.456L2.90114 173.329L4.10905 173.412L3.70585 179.27L7.1333 179.506L7.50531 174.101L8.71322 174.184L8.34121 179.589L11.8592 179.832L12.2687 173.883L13.4766 173.966L12.9799 181.183L2.41066 180.456Z" fill="white"/>
        <path d="M9.98701 160.017C8.83792 159.795 7.89507 159.33 7.15846 158.622C6.41196 157.912 5.91916 157.113 5.68008 156.224C5.441 155.335 5.41154 154.425 5.59169 153.494C5.79868 152.424 6.22025 151.493 6.85641 150.702L8.10457 150.943C7.4537 151.598 7.02574 152.456 6.82066 153.516C6.59067 154.704 6.75787 155.806 7.32226 156.819C7.87675 157.831 8.84645 158.476 10.2314 158.754C11.113 158.925 11.9189 158.849 12.649 158.528C13.3811 158.197 13.954 157.732 14.3678 157.134C14.7835 156.526 15.0641 155.845 15.2098 155.093C15.4264 153.973 15.351 153.008 14.9838 152.197L16.232 152.439C16.5232 153.43 16.5614 154.481 16.3468 155.59C16.2184 156.254 15.9779 156.886 15.6255 157.485C15.2632 158.083 14.8183 158.603 14.2907 159.046C13.7533 159.487 13.1121 159.799 12.3673 159.984C11.6125 160.167 10.8191 160.178 9.98701 160.017Z" fill="white"/>
        <path d="M12.5278 128.64L12.9277 127.433L22.9842 130.765L22.5844 131.972L18.1164 130.491L16.1409 136.454L20.6089 137.934L20.2091 139.141L10.1525 135.809L10.5524 134.602L14.9916 136.073L16.9671 130.111L12.5278 128.64Z" fill="white"/>
        <path d="M25.4851 124.196L24.9386 125.461L17.0455 117.02L17.604 115.728L29.1541 115.708L28.6136 116.959L25.8335 116.944L23.5696 122.181L25.4851 124.196ZM18.8255 117.212L22.6842 121.255L24.5517 116.934L18.9576 116.907C18.9033 116.905 18.7562 116.902 18.5165 116.897C18.6934 117.073 18.7965 117.178 18.8255 117.212Z" fill="white"/>
        <path d="M27.064 96.8861L27.5888 95.9311L36.8735 101.033L36.2613 102.147L29.0855 98.2042L32.2432 104.274L31.8642 104.964L25.0475 105.552L32.2233 109.496L31.611 110.61L22.3263 105.508L22.8511 104.553L30.6876 103.868L27.064 96.8861Z" fill="white"/>
        <path d="M45.5806 87.7144L44.8637 88.7643L37.8644 83.985L41.2707 94.0262L40.605 95.0011L31.8559 89.027L32.5728 87.9771L39.5596 92.7479L36.1658 82.7151L36.8315 81.7402L45.5806 87.7144Z" fill="white"/>
    </symbol>

    <symbol id="cirlce-partner" viewBox="0 0 140 140" fill="none" xmlns="http://www.w3.org/2000/svg">
        <path d="M34.1748 17.9536L30.9819 11.4097L35.2354 9.33415L38.4283 15.8781L39.3149 15.4455L35.71 8.05716L29.6833 10.9979L33.2882 18.3862L34.1748 17.9536Z" fill="white"/>
        <path d="M43.209 13.9191L43.3893 11.7692L47.5934 10.3804L49.0189 11.9997L50.0225 11.6681L44.0537 4.98212L43.0166 5.32474L42.1943 14.2543L43.209 13.9191ZM43.8232 6.4559C43.8346 6.3408 43.8386 6.24054 43.8464 6.11429C43.9278 6.21106 43.9907 6.28922 44.0685 6.37485L46.938 9.63212L43.47 10.7779L43.8232 6.4559Z" fill="white"/>
        <path d="M51.4513 2.93509L53.0103 11.0068L53.9789 10.8197L53.4266 7.96004L55.2139 7.61485C57.0819 7.25407 58.525 6.36534 58.1353 4.34741C57.7455 2.32948 56.0752 2.04205 54.2072 2.40283L51.4513 2.93509ZM57.1551 4.53671C57.4179 5.89737 56.3964 6.42958 55.0818 6.68346L53.2484 7.03755L52.5981 3.6705L54.4315 3.3164C55.7576 3.06029 56.8901 3.16452 57.1551 4.53671Z" fill="white"/>
        <path d="M61.1826 1.30594L61.2475 2.24323L64.1297 2.04381L64.6322 9.3078L65.6164 9.23971L65.1138 1.97571L67.996 1.77629L67.9311 0.838997L61.1826 1.30594Z" fill="white"/>
        <path d="M78.2399 1.18847L78.0252 4.81105L73.1599 4.52263L73.3747 0.900058L72.3899 0.841681L71.9034 9.04817L72.8882 9.10654L73.1043 5.46052L77.9696 5.74893L77.7535 9.39496L78.7382 9.45333L79.2247 1.24685L78.2399 1.18847Z" fill="white"/>
        <path d="M84.2098 1.95416L82.6774 10.031L88.1927 11.0774L88.3678 10.1543L83.8217 9.2918L84.3318 6.60338L88.4625 7.3871L88.6376 6.46404L84.5069 5.68031L85.0038 3.06112L89.4807 3.91052L89.6558 2.98746L84.2098 1.95416Z" fill="white"/>
        <path d="M94.2203 4.18328L91.7188 12.0143L92.6585 12.3145L93.5448 9.54011L95.2788 10.0941C97.0911 10.6731 98.7836 10.585 99.409 8.62725C100.034 6.66949 98.7064 5.61645 96.894 5.03746L94.2203 4.18328ZM98.4581 8.32346C98.0364 9.64355 96.8847 9.62084 95.6094 9.2134L93.8307 8.64514L94.8742 5.37847L96.6529 5.94674C97.9394 6.35775 98.8833 6.99218 98.4581 8.32346Z" fill="white"/>
        <path d="M103.467 16.4278C105.183 17.2508 106.871 17.3967 107.76 15.5437C108.649 13.6907 107.474 12.4755 105.759 11.6524L104.117 10.8649L105.382 8.22844L104.493 7.80168L100.937 15.2136L103.467 16.4278ZM103.711 11.712L105.395 12.5198C106.602 13.099 107.46 13.8624 106.86 15.1119C106.256 16.3719 105.134 16.1853 103.916 15.601L102.233 14.7932L103.711 11.712ZM108.317 18.7546L111.873 11.3428L110.984 10.916L107.427 18.3279L108.317 18.7546Z" fill="white"/>
        <path d="M17.9531 106.052L11.4092 109.245L9.33373 104.992L15.8777 101.799L15.4451 100.912L8.05675 104.517L10.9974 110.544L18.3857 106.939L17.9531 106.052Z" fill="white"/>
        <path d="M13.9186 97.0186L11.7688 96.8383L10.3798 92.6343L11.9991 91.2088L11.6675 90.2052L4.98157 96.1739L5.3242 97.211L14.2539 98.0334L13.9186 97.0186ZM6.45536 96.4044C6.34026 96.393 6.24 96.389 6.11375 96.3812C6.21052 96.2998 6.28868 96.2368 6.37431 96.1591L9.63157 93.2896L10.7774 96.7577L6.45536 96.4044Z" fill="white"/>
        <path d="M2.93558 88.7758L11.0073 87.2169L10.8202 86.2483L7.96053 86.8006L7.61532 85.0133C7.25452 83.1452 6.36576 81.7021 4.34783 82.0919C2.32989 82.4816 2.04248 84.1518 2.40329 86.0199L2.93558 88.7758ZM4.53714 83.072C5.8978 82.8092 6.43003 83.8308 6.68393 85.1453L7.03805 86.9787L3.67098 87.629L3.31686 85.7956C3.06073 84.4695 3.16494 83.337 4.53714 83.072Z" fill="white"/>
        <path d="M1.30545 79.0439L2.24274 78.9791L2.04333 76.0969L9.30733 75.5943L9.23924 74.6101L1.97524 75.1127L1.77583 72.2306L0.838545 72.2954L1.30545 79.0439Z" fill="white"/>
        <path d="M1.18845 61.9866L4.81103 62.2014L4.52263 67.0667L0.900053 66.8519L0.841678 67.8367L9.04816 68.3232L9.10654 67.3384L5.46051 67.1223L5.74891 62.257L9.39494 62.4731L9.45331 61.4884L1.24683 61.0019L1.18845 61.9866Z" fill="white"/>
        <path d="M1.95464 56.0173L10.0314 57.5497L11.0778 52.0344L10.1548 51.8593L9.29226 56.4054L6.60384 55.8953L7.38753 51.7646L6.46447 51.5895L5.68078 55.7202L3.06159 55.2232L3.91095 50.7464L2.98789 50.5712L1.95464 56.0173Z" fill="white"/>
        <path d="M4.18373 46.0067L12.0147 48.5085L12.3149 47.5687L9.5405 46.6824L10.0944 44.9484C10.6734 43.1361 10.5853 41.4435 8.62752 40.8181C6.66977 40.1926 5.61678 41.5206 5.03784 43.333L4.18373 46.0067ZM8.32375 41.769C9.64383 42.1907 9.62115 43.3424 9.21375 44.6177L8.64553 46.3965L5.37889 45.3529L5.94711 43.5741C6.35808 42.2876 6.99249 41.3437 8.32375 41.769Z" fill="white"/>
        <path d="M16.429 36.7599C17.252 35.0446 17.3978 33.356 15.5448 32.4668C13.6919 31.5777 12.4767 32.7531 11.6537 34.4685L10.8663 36.1097L8.22982 34.8446L7.80309 35.734L15.2148 39.2906L16.429 36.7599ZM11.7133 36.5162L12.5211 34.8326C13.1002 33.6255 13.8636 32.7673 15.113 33.3669C16.373 33.9715 16.1865 35.0934 15.6022 36.3111L14.7945 37.9947L11.7133 36.5162ZM18.7557 31.9104L11.3439 28.3538L10.9172 29.2432L18.3289 32.7998L18.7557 31.9104Z" fill="white"/>
        <path d="M122.047 33.65L128.591 30.457L130.666 34.7105L124.122 37.9035L124.555 38.7901L131.943 35.1851L129.003 29.1584L121.614 32.7634L122.047 33.65Z" fill="white"/>
        <path d="M126.081 42.6828L128.231 42.863L129.62 47.0671L128.001 48.4926L128.332 49.4963L135.018 43.5273L134.676 42.4902L125.746 41.668L126.081 42.6828ZM133.545 43.2969C133.66 43.3083 133.76 43.3123 133.886 43.32C133.789 43.4015 133.711 43.4644 133.626 43.5422L130.368 46.4118L129.223 42.9437L133.545 43.2969Z" fill="white"/>
        <path d="M137.064 50.9254L128.993 52.4845L129.18 53.4531L132.039 52.9007L132.385 54.688C132.745 56.5561 133.634 57.9992 135.652 57.6094C137.67 57.2196 137.957 55.5494 137.597 53.6813L137.064 50.9254ZM135.463 56.6293C134.102 56.8921 133.57 55.8705 133.316 54.556L132.962 52.7225L136.329 52.0722L136.683 53.9056C136.939 55.2317 136.835 56.3642 135.463 56.6293Z" fill="white"/>
        <path d="M138.695 60.6582L137.757 60.7231L137.957 63.6053L130.693 64.1079L130.761 65.092L138.025 64.5894L138.224 67.4716L139.161 67.4067L138.695 60.6582Z" fill="white"/>
        <path d="M138.812 77.7145L135.189 77.4998L135.477 72.6345L139.1 72.8493L139.158 71.8645L130.952 71.3779L130.893 72.3627L134.54 72.5789L134.251 77.4442L130.605 77.228L130.547 78.2128L138.753 78.6993L138.812 77.7145Z" fill="white"/>
        <path d="M138.045 83.6839L129.969 82.1514L128.922 87.6667L129.845 87.8419L130.708 83.2958L133.396 83.8059L132.612 87.9366L133.536 88.1117L134.319 83.981L136.938 84.478L136.089 88.9548L137.012 89.1299L138.045 83.6839Z" fill="white"/>
        <path d="M135.816 93.6945L127.985 91.1927L127.685 92.1324L130.459 93.0188L129.905 94.7528C129.326 96.5651 129.414 98.2577 131.372 98.8831C133.33 99.5085 134.383 98.1805 134.962 96.3682L135.816 93.6945ZM131.676 97.9322C130.356 97.5105 130.378 96.3588 130.786 95.0835L131.354 93.3047L134.621 94.3483L134.052 96.127C133.641 97.4136 133.007 98.3575 131.676 97.9322Z" fill="white"/>
        <path d="M123.571 102.943C122.748 104.659 122.602 106.347 124.455 107.236C126.308 108.125 127.523 106.95 128.346 105.235L129.134 103.593L131.77 104.859L132.197 103.969L124.785 100.413L123.571 102.943ZM128.287 103.187L127.479 104.871C126.9 106.078 126.136 106.936 124.887 106.336C123.627 105.732 123.814 104.61 124.398 103.392L125.205 101.708L128.287 103.187ZM121.244 107.793L128.656 111.349L129.083 110.46L121.671 106.903L121.244 107.793Z" fill="white"/>
        <path d="M106.578 122.045L109.771 128.589L105.518 130.665L102.325 124.121L101.438 124.554L105.043 131.942L111.07 129.001L107.465 121.613L106.578 122.045Z" fill="white"/>
        <path d="M97.5439 126.08L97.3636 128.23L93.1596 129.619L91.7341 127.999L90.7304 128.331L96.6993 135.017L97.7363 134.674L98.5587 125.745L97.5439 126.08ZM96.9297 133.543C96.9183 133.658 96.9143 133.758 96.9066 133.885C96.8251 133.788 96.7622 133.71 96.6844 133.624L93.8149 130.367L97.283 129.221L96.9297 133.543Z" fill="white"/>
        <path d="M89.3016 137.063L87.7425 128.991L86.7739 129.178L87.3263 132.038L85.539 132.383C83.6709 132.744 82.2278 133.633 82.6176 135.651C83.0074 137.668 84.6777 137.956 86.5457 137.595L89.3016 137.063ZM83.5977 135.461C83.3349 134.101 84.3565 133.568 85.671 133.315L87.5045 132.96L88.1548 136.328L86.3214 136.682C84.9953 136.938 83.8628 136.833 83.5977 135.461Z" fill="white"/>
        <path d="M79.5703 138.692L79.5054 137.755L76.6233 137.954L76.1207 130.69L75.1365 130.758L75.6391 138.022L72.7569 138.222L72.8218 139.159L79.5703 138.692Z" fill="white"/>
        <path d="M62.513 138.811L62.7277 135.188L67.593 135.476L67.3783 139.099L68.363 139.157L68.8495 130.951L67.8647 130.892L67.6486 134.539L62.7833 134.25L62.9995 130.604L62.0147 130.546L61.5282 138.752L62.513 138.811Z" fill="white"/>
        <path d="M56.5432 138.044L58.0755 129.967L52.5602 128.921L52.3851 129.844L56.9312 130.706L56.4211 133.395L52.2904 132.611L52.1153 133.534L56.246 134.318L55.7491 136.937L51.2722 136.088L51.0971 137.011L56.5432 138.044Z" fill="white"/>
        <path d="M46.5325 135.815L49.0342 127.984L48.0945 127.684L47.2082 130.458L45.4742 129.904C43.6618 129.325 41.9693 129.413 41.3439 131.371C40.7184 133.329 42.0464 134.382 43.8588 134.961L46.5325 135.815ZM42.2948 131.675C42.7165 130.355 43.8682 130.377 45.1435 130.785L46.9223 131.353L45.8787 134.62L44.0999 134.051C42.8134 133.64 41.8695 133.006 42.2948 131.675Z" fill="white"/>
        <path d="M37.2852 123.57C35.5698 122.747 33.8813 122.602 32.9922 124.455C32.103 126.308 33.2784 127.523 34.9938 128.346L36.635 129.133L35.3699 131.77L36.2593 132.196L39.8158 124.785L37.2852 123.57ZM37.0415 128.286L35.3579 127.478C34.1508 126.899 33.2927 126.136 33.8922 124.886C34.4968 123.626 35.6187 123.813 36.8364 124.397L38.5199 125.205L37.0415 128.286ZM32.4356 121.244L28.8792 128.656L29.7686 129.082L33.3251 121.67L32.4356 121.244Z" fill="white"/>
        <rect width="4.20299" height="4.20299" transform="matrix(0.707143 0.70707 -0.707143 0.70707 20.4897 18.3877)" fill="#FF8800"/>
        <rect width="4.20299" height="4.20299" transform="matrix(0.707078 0.707136 -0.707078 0.707136 119.26 115.057)" fill="#FF8800"/>
        <rect x="121.887" y="21.54" width="4.20299" height="4.20299" transform="rotate(135 121.887 21.54)" fill="#FF8800"/>
        <rect width="4.20299" height="4.20299" transform="matrix(-0.707143 0.70707 -0.707143 -0.707071 23.1162 118.208)" fill="#FF8800"/>
    </symbol>

    <symbol id="cirlce-academy" viewBox="0 0 149 148" fill="none" xmlns="http://www.w3.org/2000/svg">
        <path d="M28.9306 15.9383C30.4769 18.6662 32.1019 21.4387 31.0365 22.1569C30.852 22.2813 30.74 22.3324 30.5943 22.3697L31.0467 23.0408C31.2765 22.9835 31.4697 22.8899 31.6291 22.7824C33.1586 21.739 31.6235 18.9914 30.0542 16.157L32.2941 14.6469L35.8006 19.8481L36.5052 19.373L32.5463 13.5007L28.9306 15.9383Z" fill="white"/>
        <path d="M35.7041 11.7368L38.9747 18.0185L43.2643 15.7852L42.8905 15.0673L39.3547 16.9081L38.2661 14.8172L41.4788 13.1445L41.105 12.4266L37.8923 14.0993L36.8317 12.0622L40.3136 10.2494L39.9398 9.53148L35.7041 11.7368Z" fill="white"/>
        <path d="M42.8532 8.23828L43.1487 8.9918L45.4658 8.08315L47.7561 13.9229L48.5473 13.6126L46.257 7.77288L48.5741 6.86424L48.2785 6.11072L42.8532 8.23828Z" fill="white"/>
        <path d="M56.8931 7.34419C57.2487 9.14058 58.8053 10.6992 61.2368 10.2179C63.6684 9.73649 64.5137 7.70236 64.1581 5.90597C63.8024 4.10958 62.2459 2.55093 59.8143 3.03231C57.3827 3.51368 56.5375 5.54781 56.8931 7.34419ZM63.3145 6.07298C63.5974 7.50215 62.9654 9.05057 61.0797 9.42387C59.1939 9.79718 58.0196 8.60636 57.7367 7.17719C57.4538 5.74802 58.0858 4.1996 59.9715 3.82629C61.8572 3.45298 63.0315 4.64381 63.3145 6.07298Z" fill="white"/>
        <path d="M66.9367 5.0499L66.7749 3.00245L70.8194 2.68283L70.7556 1.87595L65.8639 2.26253L66.4219 9.32271L69.1451 9.1075C70.4462 9.00468 71.8287 8.51991 71.6924 6.79521C71.5561 5.07051 70.1138 4.79883 68.8127 4.90165L66.9367 5.0499ZM67.2053 8.44887L67.0005 5.85678L68.9168 5.70534C69.8044 5.6352 70.7434 5.70307 70.8351 6.86296C70.926 8.01276 70.0193 8.2265 69.1217 8.29743L67.2053 8.44887Z" fill="white"/>
        <path d="M77.8631 7.40086L80.6292 2.019L79.7192 1.98779L77.5258 6.31621L75.2398 1.83414L74.2994 1.80188L77.0434 7.09941L76.913 7.35815C76.4498 8.17237 75.9711 8.25719 75.4554 8.2395C75.1723 8.22979 74.8811 8.15906 74.651 8.0803L74.6236 8.87911C74.9238 8.98052 75.2659 9.04287 75.5793 9.05362C76.3579 9.08033 77.1584 8.76359 77.8631 7.40086Z" fill="white"/>
        <path d="M87.8984 10.1464L88.9147 3.13753L88.0737 3.01556L87.5713 6.47995C86.9157 6.63023 86.2689 6.64889 85.6681 6.56177C84.4981 6.38187 83.7867 5.85954 83.9493 4.73812L84.2789 2.46524L83.4378 2.34327L83.114 4.5761C82.8846 6.1581 83.7526 7.08139 85.3517 7.33375C86.0026 7.42813 86.7094 7.41818 87.4551 7.28097L87.0573 10.0244L87.8984 10.1464Z" fill="white"/>
        <path d="M92.5314 3.94337L90.7537 10.7988L95.435 12.0128L95.6381 11.2293L91.7795 10.2287L92.3712 7.94678L95.8773 8.85599L96.0805 8.07251L92.5744 7.1633L93.1509 4.94018L96.9507 5.92558L97.1539 5.1421L92.5314 3.94337Z" fill="white"/>
        <path d="M105.68 8.22329L104.559 11.1415L100.639 9.63539L101.761 6.71716L100.967 6.4123L98.427 13.0232L99.2203 13.328L100.349 10.3909L104.268 11.8971L103.14 14.8342L103.933 15.139L106.473 8.52815L105.68 8.22329Z" fill="white"/>
        <path d="M111.482 19.045L114.774 12.7744L114.075 12.4076L107.675 15.435C107.769 15.2559 107.863 15.0767 107.958 14.8975L110.304 10.4275L109.552 10.0324L106.26 16.303L106.959 16.6699L113.363 13.6335C113.269 13.8126 113.175 13.9918 113.081 14.171L110.73 18.6499L111.482 19.045Z" fill="white"/>
        <path d="M113.975 20.6918L117.087 19.6747L117.095 19.6804L118.602 20.7036L117.147 22.8462L117.85 23.3237L121.829 17.465L119.619 15.9643C118.439 15.1629 116.97 14.9847 116.089 16.2819C115.407 17.2863 115.671 18.2847 116.371 19.054L113.121 20.112L113.975 20.6918ZM116.817 16.7765C117.386 15.9395 118.302 16.0484 119.139 16.6168L120.671 17.6571L119.057 20.034L117.525 18.9938C116.688 18.4254 116.249 17.6134 116.817 16.7765Z" fill="white"/>
        <path d="M120.857 132.521C119.311 129.793 117.686 127.02 118.751 126.302C118.936 126.178 119.048 126.127 119.194 126.089L118.741 125.418C118.511 125.476 118.318 125.569 118.159 125.677C116.629 126.72 118.165 129.468 119.734 132.302L117.494 133.812L113.987 128.611L113.283 129.086L117.242 134.958L120.857 132.521Z" fill="white"/>
        <path d="M114.084 136.723L110.813 130.441L106.524 132.675L106.898 133.393L110.433 131.552L111.522 133.643L108.309 135.315L108.683 136.033L111.896 134.361L112.956 136.398L109.475 138.211L109.848 138.928L114.084 136.723Z" fill="white"/>
        <path d="M106.935 140.222L106.639 139.468L104.322 140.377L102.032 134.537L101.241 134.847L103.531 140.687L101.214 141.596L101.51 142.349L106.935 140.222Z" fill="white"/>
        <path d="M92.895 141.116C92.5394 139.319 90.9828 137.761 88.5512 138.242C86.1197 138.723 85.2744 140.758 85.63 142.554C85.9857 144.35 87.5422 145.909 89.9738 145.428C92.4053 144.946 93.2506 142.912 92.895 141.116ZM86.4736 142.387C86.1907 140.958 86.8227 139.409 88.7084 139.036C90.5941 138.663 91.7684 139.854 92.0514 141.283C92.3343 142.712 91.7023 144.26 89.8166 144.634C87.9309 145.007 86.7566 143.816 86.4736 142.387Z" fill="white"/>
        <path d="M82.8513 143.41L83.0131 145.458L78.9686 145.777L79.0324 146.584L83.9241 146.197L83.3661 139.137L80.6429 139.352C79.3418 139.455 77.9593 139.94 78.0956 141.665C78.2319 143.389 79.6742 143.661 80.9753 143.558L82.8513 143.41ZM82.5827 140.011L82.7875 142.603L80.8712 142.755C79.9836 142.825 79.0446 142.757 78.9529 141.597C78.862 140.447 79.7687 140.233 80.6664 140.163L82.5827 140.011Z" fill="white"/>
        <path d="M71.9249 141.059L69.1588 146.441L70.0689 146.472L72.2622 142.144L74.5482 146.626L75.4886 146.658L72.7447 141.361L72.875 141.102C73.3383 140.288 73.817 140.203 74.3326 140.22C74.6158 140.23 74.9069 140.301 75.1371 140.38L75.1645 139.581C74.8642 139.479 74.5222 139.417 74.2087 139.406C73.4301 139.38 72.6297 139.696 71.9249 141.059Z" fill="white"/>
        <path d="M61.8898 138.316L60.8734 145.324L61.7144 145.446L62.2168 141.982C62.8725 141.832 63.5192 141.813 64.12 141.9C65.29 142.08 66.0015 142.602 65.8388 143.724L65.5092 145.997L66.3503 146.119L66.6741 143.886C66.9035 142.304 66.0355 141.381 64.4364 141.128C63.7856 141.034 63.0787 141.044 62.333 141.181L62.7308 138.438L61.8898 138.316Z" fill="white"/>
        <path d="M57.2566 144.516L59.0344 137.66L54.3531 136.446L54.15 137.23L58.0086 138.23L57.4168 140.512L53.9108 139.603L53.7076 140.387L57.2137 141.296L56.6371 143.519L52.8373 142.534L52.6341 143.317L57.2566 144.516Z" fill="white"/>
        <path d="M44.1086 140.237L45.23 137.318L49.1493 138.825L48.0279 141.743L48.8212 142.048L51.3616 135.437L50.5683 135.132L49.4396 138.069L45.5203 136.563L46.649 133.626L45.8557 133.321L43.3153 139.932L44.1086 140.237Z" fill="white"/>
        <path d="M38.3061 129.415L35.0138 135.686L35.7125 136.053L42.113 133.025C42.0189 133.204 41.9248 133.383 41.8308 133.563L39.4838 138.033L40.2363 138.428L43.5286 132.157L42.8299 131.79L36.4247 134.827C36.5188 134.648 36.6128 134.468 36.7069 134.289L39.0585 129.81L38.3061 129.415Z" fill="white"/>
        <path d="M35.8128 127.769L32.7005 128.786L32.6921 128.78L31.1856 127.757L32.6408 125.615L31.9378 125.137L27.9588 130.996L30.1683 132.497C31.3484 133.298 32.8173 133.476 33.6984 132.179C34.3805 131.175 34.1169 130.176 33.4163 129.407L36.6665 128.349L35.8128 127.769ZM32.9702 131.684C32.4018 132.521 31.4851 132.412 30.6482 131.844L29.1165 130.804L30.7309 128.427L32.2625 129.467C33.0995 130.035 33.5386 130.847 32.9702 131.684Z" fill="white"/>
        <path d="M15.8229 121.479C18.5509 119.933 21.3233 118.308 22.0416 119.374C22.166 119.558 22.2171 119.67 22.2543 119.816L22.9254 119.363C22.8681 119.134 22.7745 118.94 22.6671 118.781C21.6237 117.251 18.876 118.787 16.0416 120.356L14.5315 118.116L19.7327 114.61L19.2576 113.905L13.3853 117.864L15.8229 121.479Z" fill="white"/>
        <path d="M11.6205 114.707L17.9023 111.436L15.6689 107.146L14.951 107.52L16.7919 111.056L14.701 112.145L13.0283 108.932L12.3104 109.306L13.983 112.518L11.946 113.579L10.1331 110.097L9.41519 110.471L11.6205 114.707Z" fill="white"/>
        <path d="M8.12058 107.557L8.87409 107.262L7.96544 104.945L13.8052 102.655L13.4949 101.863L7.65518 104.154L6.74653 101.837L5.99302 102.132L8.12058 107.557Z" fill="white"/>
        <path d="M7.22843 93.5176C9.02482 93.162 10.5835 91.6054 10.1021 89.1739C9.62068 86.7423 7.58654 85.897 5.79015 86.2526C3.99376 86.6082 2.43512 88.1648 2.91651 90.5963C3.3979 93.0279 5.43204 93.8732 7.22843 93.5176ZM5.95716 87.0962C7.38634 86.8133 8.93476 87.4453 9.30809 89.331C9.68141 91.2168 8.49059 92.391 7.06142 92.674C5.63224 92.9569 4.08382 92.3249 3.71049 90.4392C3.33717 88.5534 4.52799 87.3792 5.95716 87.0962Z" fill="white"/>
        <path d="M4.93365 83.4739L2.8862 83.6357L2.56658 79.5912L1.7597 79.655L2.14627 84.5467L9.20645 83.9887L8.99124 81.2655C8.88842 79.9644 8.40365 78.5819 6.67895 78.7182C4.95425 78.8545 4.68257 80.2968 4.78539 81.5979L4.93365 83.4739ZM8.33262 83.2053L5.74052 83.4101L5.58908 81.4938C5.51894 80.6062 5.58682 79.6671 6.7467 79.5755C7.8965 79.4846 8.11024 80.3913 8.18118 81.2889L8.33262 83.2053Z" fill="white"/>
        <path d="M7.28563 72.546L1.90378 69.78L1.87256 70.69L6.20099 72.8834L1.7189 75.1694L1.68665 76.1098L6.98418 73.3658L7.24292 73.4962C8.05714 73.9594 8.14196 74.4381 8.12427 74.9538C8.11456 75.2369 8.04383 75.5281 7.96507 75.7582L8.76388 75.7856C8.86528 75.4854 8.92764 75.1433 8.93839 74.8299C8.9651 74.0513 8.64836 73.2508 7.28563 72.546Z" fill="white"/>
        <path d="M10.0291 62.5114L3.02026 61.495L2.89829 62.336L6.36268 62.8384C6.51297 63.4941 6.53163 64.1408 6.44451 64.7416C6.26462 65.9116 5.7423 66.6231 4.62088 66.4604L2.348 66.1308L2.22603 66.9719L4.45886 67.2957C6.04086 67.5251 6.96415 66.6571 7.21649 65.058C7.31087 64.4072 7.30091 63.7003 7.1637 62.9546L9.90717 63.3524L10.0291 62.5114Z" fill="white"/>
        <path d="M3.82665 57.8782L10.6821 59.6561L11.896 54.9748L11.1125 54.7716L10.1119 58.6302L7.83003 58.0385L8.73919 54.5324L7.95571 54.3292L7.04656 57.8353L4.82345 57.2587L5.80878 53.4589L5.02531 53.2557L3.82665 57.8782Z" fill="white"/>
        <path d="M8.10791 44.7292L11.0261 45.8506L9.52006 49.77L6.60184 48.6485L6.297 49.4418L12.9078 51.9823L13.2127 51.189L10.2756 50.0603L11.7816 46.141L14.7188 47.2697L15.0236 46.4764L8.41275 43.9359L8.10791 44.7292Z" fill="white"/>
        <path d="M18.9282 38.928L12.6576 35.636L12.2908 36.3347L15.3183 42.7349C15.1391 42.6408 14.9599 42.5468 14.7808 42.4527L10.3108 40.1059L9.91572 40.8584L16.1863 44.1504L16.5531 43.4517L13.5167 37.0468C13.6958 37.1409 13.875 37.2349 14.0542 37.329L18.5331 39.6805L18.9282 38.928Z" fill="white"/>
        <path d="M20.5752 36.4339L19.5581 33.3216L19.5638 33.3132L20.587 31.8067L22.7297 33.2619L23.2072 32.5589L17.3484 28.5799L15.8477 30.7894C15.0462 31.9695 14.8679 33.4384 16.1652 34.3195C17.1696 35.0016 18.1681 34.738 18.9374 34.0374L19.9954 37.2876L20.5752 36.4339ZM16.6598 33.5913C15.8228 33.0229 15.9318 32.1062 16.5002 31.2693L17.5405 29.7377L19.9175 31.352L18.8772 32.8836C18.3087 33.7206 17.4968 34.1598 16.6598 33.5913Z" fill="white"/>
        <path d="M133.924 29.5508C131.196 31.0971 128.423 32.7221 127.705 31.6567C127.58 31.4722 127.529 31.3602 127.492 31.2145L126.821 31.6669C126.878 31.8967 126.972 32.0899 127.079 32.2492C128.123 33.7788 130.87 32.2436 133.705 30.6744L135.215 32.9142L130.014 36.4208L130.489 37.1254L136.361 33.1665L133.924 29.5508Z" fill="white"/>
        <path d="M138.125 36.3237L131.843 39.5945L134.077 43.8841L134.794 43.5103L132.954 39.9745L135.045 38.8858L136.717 42.0985L137.435 41.7247L135.762 38.512L137.8 37.4513L139.612 40.9333L140.33 40.5595L138.125 36.3237Z" fill="white"/>
        <path d="M141.626 43.4728L140.872 43.7683L141.781 46.0854L135.941 48.3755L136.252 49.1667L142.091 46.8766L143 49.1936L143.754 48.8981L141.626 43.4728Z" fill="white"/>
        <path d="M142.518 57.5128C140.722 57.8684 139.163 59.425 139.644 61.8565C140.126 64.2881 142.16 65.1334 143.956 64.7777C145.753 64.4221 147.311 62.8655 146.83 60.434C146.349 58.0024 144.314 57.1571 142.518 57.5128ZM143.789 63.9341C142.36 64.2171 140.812 63.5851 140.438 61.6993C140.065 59.8136 141.256 58.6393 142.685 58.3564C144.114 58.0734 145.663 58.7054 146.036 60.5912C146.409 62.4769 145.218 63.6512 143.789 63.9341Z" fill="white"/>
        <path d="M144.813 67.5564L146.86 67.3946L147.18 71.4391L147.987 71.3753L147.6 66.4836L140.54 67.0416L140.755 69.7648C140.858 71.0659 141.343 72.4484 143.067 72.3121C144.792 72.1758 145.064 70.7335 144.961 69.4324L144.813 67.5564ZM141.414 67.825L144.006 67.6202L144.157 69.5365C144.228 70.4241 144.16 71.3631 143 71.4548C141.85 71.5457 141.636 70.639 141.565 69.7413L141.414 67.825Z" fill="white"/>
        <path d="M142.461 78.4842L147.843 81.2503L147.874 80.3403L143.545 78.1469L148.028 75.8609L148.06 74.9205L142.762 77.6645L142.504 77.5341C141.689 77.0709 141.605 76.5922 141.622 76.0765C141.632 75.7934 141.703 75.5022 141.781 75.2721L140.983 75.2447C140.881 75.5449 140.819 75.887 140.808 76.2004C140.781 76.979 141.098 77.7795 142.461 78.4842Z" fill="white"/>
        <path d="M139.717 88.5189L146.726 89.5353L146.848 88.6942L143.384 88.1918C143.233 87.5362 143.215 86.8894 143.302 86.2887C143.482 85.1187 144.004 84.4072 145.126 84.5698L147.398 84.8994L147.52 84.0584L145.288 83.7346C143.706 83.5052 142.782 84.3731 142.53 85.9723C142.436 86.6231 142.446 87.3299 142.583 88.0757L139.839 87.6779L139.717 88.5189Z" fill="white"/>
        <path d="M145.92 93.1521L139.064 91.3742L137.85 96.0555L138.634 96.2587L139.635 92.4001L141.916 92.9918L141.007 96.4979L141.791 96.7011L142.7 93.195L144.923 93.7715L143.938 97.5714L144.721 97.7746L145.92 93.1521Z" fill="white"/>
        <path d="M141.638 106.301L138.72 105.18L140.226 101.26L143.145 102.382L143.449 101.588L136.839 99.0481L136.534 99.8414L139.471 100.97L137.965 104.889L135.028 103.761L134.723 104.554L141.334 107.094L141.638 106.301Z" fill="white"/>
        <path d="M130.818 112.102L137.089 115.394L137.456 114.696L134.428 108.295C134.607 108.389 134.787 108.484 134.966 108.578L139.436 110.924L139.831 110.172L133.56 106.88L133.193 107.579L136.23 113.983C136.051 113.889 135.871 113.795 135.692 113.701L131.213 111.35L130.818 112.102Z" fill="white"/>
        <path d="M129.171 114.596L130.188 117.709L130.183 117.717L129.16 119.224L127.017 117.768L126.539 118.471L132.398 122.45L133.899 120.241C134.7 119.061 134.878 117.592 133.581 116.711C132.577 116.029 131.578 116.292 130.809 116.993L129.751 113.743L129.171 114.596ZM133.087 117.439C133.924 118.007 133.815 118.924 133.246 119.761L132.206 121.293L129.829 119.678L130.869 118.147C131.438 117.31 132.25 116.87 133.087 117.439Z" fill="white"/>
        <rect width="4.04697" height="4.04697" transform="matrix(0.707152 0.707062 -0.707152 0.707062 24.0176 21.0977)" fill="url(#paint0_linear_3950_19326)"/>
        <rect width="4.04697" height="4.04697" transform="matrix(0.707152 0.707062 -0.707152 0.707062 127.042 122.776)" fill="url(#paint1_linear_3950_19326)"/>
        <rect width="4.04697" height="4.04697" transform="matrix(-0.707152 0.707061 -0.707152 -0.707062 129.745 24.1318)" fill="url(#paint2_linear_3950_19326)"/>
        <rect width="4.04697" height="4.04697" transform="matrix(-0.707152 0.707061 -0.707152 -0.707062 26.5474 125.813)" fill="url(#paint3_linear_3950_19326)"/>
        <defs>
        <linearGradient id="paint0_linear_3950_19326" x1="4.04697" y1="0.526105" x2="-0.0549478" y2="3.32395" gradientUnits="userSpaceOnUse">
        <stop stop-color="#FCC026"/>
        <stop offset="0.246468" stop-color="#FFB800"/>
        <stop offset="0.50689" stop-color="#FF8800"/>
        <stop offset="0.751686" stop-color="#FF8800"/>
        <stop offset="1" stop-color="#FF6B00"/>
        </linearGradient>
        <linearGradient id="paint1_linear_3950_19326" x1="4.04697" y1="0.526105" x2="-0.0549478" y2="3.32395" gradientUnits="userSpaceOnUse">
        <stop stop-color="#FCC026"/>
        <stop offset="0.246468" stop-color="#FFB800"/>
        <stop offset="0.50689" stop-color="#FF8800"/>
        <stop offset="0.751686" stop-color="#FF8800"/>
        <stop offset="1" stop-color="#FF6B00"/>
        </linearGradient>
        <linearGradient id="paint2_linear_3950_19326" x1="4.04697" y1="0.526105" x2="-0.0549478" y2="3.32395" gradientUnits="userSpaceOnUse">
        <stop stop-color="#FCC026"/>
        <stop offset="0.246468" stop-color="#FFB800"/>
        <stop offset="0.50689" stop-color="#FF8800"/>
        <stop offset="0.751686" stop-color="#FF8800"/>
        <stop offset="1" stop-color="#FF6B00"/>
        </linearGradient>
        <linearGradient id="paint3_linear_3950_19326" x1="4.04697" y1="0.526105" x2="-0.0549478" y2="3.32395" gradientUnits="userSpaceOnUse">
        <stop stop-color="#FCC026"/>
        <stop offset="0.246468" stop-color="#FFB800"/>
        <stop offset="0.50689" stop-color="#FF8800"/>
        <stop offset="0.751686" stop-color="#FF8800"/>
        <stop offset="1" stop-color="#FF6B00"/>
        </linearGradient>
        </defs>
    </symbol>

    <symbol id="file" width="40" height="40" viewBox="0 0 40 40" fill="none" xmlns="http://www.w3.org/2000/svg">
        <path d="M16.25 5H21.4648C22.1277 5.0001 22.7633 5.26341 23.232 5.73203L34.268 16.768C34.7366 17.2367 34.9999 17.8723 35 18.5352V33.75C35 34.7446 34.6049 35.6984 33.9017 36.4017C33.1984 37.1049 32.2446 37.5 31.25 37.5H15C14.0054 37.5 13.0516 37.1049 12.3483 36.4017C11.6451 35.6984 11.25 34.7446 11.25 33.75V23.75" stroke="#FF8800" stroke-width="2" stroke-linecap="round" stroke-linejoin="round"/>
        <path d="M22.5 5.625V15C22.5 15.663 22.7634 16.2989 23.2322 16.7678C23.7011 17.2366 24.337 17.5 25 17.5H34.375" stroke="#FF8800" stroke-width="2" stroke-linecap="round" stroke-linejoin="round"/>
        <path d="M12.5 6.25V18.125C12.5033 18.3721 12.457 18.6174 12.3639 18.8464C12.2708 19.0753 12.1328 19.2833 11.9581 19.4581C11.7833 19.6328 11.5753 19.7708 11.3464 19.8639C11.1174 19.957 10.8721 20.0033 10.625 20C9.6875 20 8.75 19.2891 8.75 18.125V6.875C8.75 4.48516 10.0445 2.5 12.5 2.5C14.9555 2.5 16.25 4.4375 16.25 6.82656V17.6664C16.25 21.0258 14.0766 23.75 10.625 23.75C7.17344 23.75 5 21.0266 5 17.6664V11.25" stroke="#FF8800" stroke-width="2" stroke-miterlimit="10" stroke-linecap="round"/>
    </symbol>
</svg>