<svg width="89" height="75" viewBox="0 0 89 75" fill="none" xmlns="http://www.w3.org/2000/svg">
<path fill-rule="evenodd" clip-rule="evenodd" d="M25 44H10C6.68629 44 4 46.6863 4 50V65C4 68.3137 6.68629 71 10 71H25C28.3137 71 31 68.3137 31 65V50C31 46.6863 28.3137 44 25 44ZM10 40C4.47715 40 0 44.4772 0 50V65C0 70.5228 4.47715 75 10 75H25C30.5228 75 35 70.5228 35 65V50C35 44.4772 30.5228 40 25 40H10Z" fill="#FF8800"/>
<ellipse cx="11.8248" cy="51.8248" rx="1.82482" ry="1.82483" fill="#FF8800"/>
<ellipse cx="23.8686" cy="51.8248" rx="1.82482" ry="1.82483" fill="#FF8800"/>
<ellipse cx="23.8686" cy="63.6861" rx="1.82482" ry="1.82482" fill="#FF8800"/>
<ellipse cx="11.8248" cy="63.6861" rx="1.82482" ry="1.82482" fill="#FF8800"/>
<circle cx="17.8467" cy="57.8468" r="1.82482" fill="#FF8800"/>
<path fill-rule="evenodd" clip-rule="evenodd" d="M42.0025 25.0913C43.0566 24.7613 44.1787 25.3484 44.5087 26.4025L54.843 59.415C57.2623 67.1434 51.4892 75 43.391 75H22.5429C21.4383 75 20.5429 74.1046 20.5429 73C20.5429 71.8954 21.4383 71 22.5429 71H43.391C48.7898 71 52.6386 65.7623 51.0257 60.61L40.6913 27.5975C40.3614 26.5434 40.9484 25.4213 42.0025 25.0913ZM27.9708 25.1667C28.9833 25.6082 29.4462 26.7869 29.0047 27.7994L22.8333 41.9532C22.3918 42.9657 21.2131 43.4286 20.2006 42.9872C19.1881 42.5457 18.7252 41.367 19.1667 40.3545L25.3381 26.2006C25.7796 25.1881 26.9583 24.7252 27.9708 25.1667Z" fill="#FF8800"/>
<path fill-rule="evenodd" clip-rule="evenodd" d="M35 26C41.0751 26 46 21.0751 46 15C46 8.92487 41.0751 4 35 4C28.9249 4 24 8.92487 24 15C24 21.0751 28.9249 26 35 26ZM35 30C43.2843 30 50 23.2843 50 15C50 6.71573 43.2843 0 35 0C26.7157 0 20 6.71573 20 15C20 23.2843 26.7157 30 35 30Z" fill="#FF8800"/>
<path fill-rule="evenodd" clip-rule="evenodd" d="M75.0025 25.0913C76.0566 24.7614 77.1787 25.3484 77.5087 26.4025L87.843 59.415C90.2623 67.1434 84.4892 75 76.391 75H42.5C41.3954 75 40.5 74.1046 40.5 73C40.5 71.8954 41.3954 71 42.5 71H76.391C81.7898 71 85.6386 65.7623 84.0257 60.61L73.6913 27.5975C73.3613 26.5434 73.9484 25.4213 75.0025 25.0913ZM60.9659 25.1646C61.9796 25.6033 62.4456 26.7807 62.0069 27.7944L51.8355 51.2944C51.3967 52.3081 50.2193 52.7742 49.2056 52.3354C48.1919 51.8967 47.7258 50.7193 48.1645 49.7056L58.336 26.2056C58.7747 25.1919 59.9522 24.7258 60.9659 25.1646Z" fill="#FF8800"/>
<path fill-rule="evenodd" clip-rule="evenodd" d="M68 26C74.0751 26 79 21.0751 79 15C79 8.92487 74.0751 4 68 4C61.9249 4 57 8.92487 57 15C57 21.0751 61.9249 26 68 26ZM68 30C76.2843 30 83 23.2843 83 15C83 6.71573 76.2843 0 68 0C59.7157 0 53 6.71573 53 15C53 23.2843 59.7157 30 68 30Z" fill="#FF8800"/>
</svg>
